<svg width="190" height="101" viewBox="0 0 190 101" fill="none" xmlns="http://www.w3.org/2000/svg">
<g filter="url(#filter0_d_0_8756)">
<path d="M157.347 45.8665H171.883C171.883 45.8665 181.421 65.536 183.299 73.9641H157.347V45.8665Z" fill="#E7816B"/>
<path fill-rule="evenodd" clip-rule="evenodd" d="M157.346 74.2315H183.299C183.38 74.232 183.458 74.1956 183.509 74.1327C183.558 74.068 183.577 73.9855 183.561 73.906C181.695 65.5127 172.221 45.9478 172.122 45.7502C172.08 45.6566 171.986 45.5971 171.883 45.5991H157.346C157.198 45.5991 157.078 45.7188 157.078 45.8665V73.9641C157.078 74.1118 157.198 74.2315 157.346 74.2315ZM182.966 73.7025H157.632L157.615 46.128H171.714C172.589 47.9473 181.041 65.6232 182.966 73.7025Z" fill="#231F20"/>
<path d="M158.321 67.4773L169.666 72.4935C169.666 72.4935 159.691 29.481 140.208 10.0673C140.208 10.0673 133.401 15.2985 128.489 28.8707C127.241 32.3175 128.302 30.1494 128.221 30.7307L126.896 40.1063L158.321 67.4773Z" fill="#E7816B"/>
<path fill-rule="evenodd" clip-rule="evenodd" d="M169.562 72.7609C169.597 72.7663 169.632 72.7663 169.667 72.7609C169.731 72.7601 169.792 72.7375 169.842 72.6969C169.918 72.6334 169.952 72.532 169.929 72.4354C169.83 72.0052 159.709 29.1497 140.395 9.88124C140.295 9.79243 140.145 9.79243 140.045 9.88124C139.975 9.93355 133.121 15.3159 128.238 28.8009C127.463 30.9503 127.533 30.9922 127.754 31.1257L127.754 31.1259C127.797 31.1517 127.845 31.1676 127.894 31.1724L126.611 40.0597C126.598 40.15 126.634 40.2402 126.704 40.2981L158.128 67.6982C158.146 67.7169 158.168 67.731 158.193 67.7389L169.562 72.7609ZM169.299 72.0343L158.467 67.2506L127.177 39.9435L128.501 30.7423C128.545 30.5935 128.48 30.434 128.343 30.3587H128.273C128.304 30.2721 128.343 30.157 128.391 30.0136C128.478 29.7528 128.596 29.3984 128.758 28.9521C133.138 16.8156 139.1 11.3634 140.208 10.4218C158.152 28.5103 168.086 67.0937 169.299 72.0343Z" fill="#231F20"/>
<path d="M128.775 36.5665C128.775 36.5665 131.884 21.9073 140.343 13.7466C140.343 13.7466 153.374 24.7903 165.974 69.0118L125.013 66.7391C125.013 66.7391 125.818 44.2622 128.775 36.5665Z" fill="#231F20"/>
<path fill-rule="evenodd" clip-rule="evenodd" d="M125.012 67.0297L165.974 69.3024C166.07 69.328 166.172 69.3015 166.242 69.2327C166.302 69.1595 166.322 69.0616 166.295 68.9711C153.812 25.1449 140.704 13.671 140.57 13.5605C140.46 13.4579 140.289 13.4579 140.179 13.5605C131.884 21.5411 128.658 35.8399 128.512 36.5025C125.598 44.1011 124.784 65.523 124.739 66.7065L124.738 66.7275C124.732 66.8859 124.854 67.0204 125.012 67.0297ZM165.583 68.7037L125.333 66.4659C125.421 63.8329 126.325 43.7681 129.061 36.671V36.6245C129.09 36.4792 132.182 22.1921 140.348 14.1476C141.118 14.88 144.128 17.949 148.212 24.9879C152.581 32.486 159.126 46.1454 165.583 68.7037Z" fill="#231F20"/>
<path d="M114.991 49.2144C114.991 49.2144 121.851 34.9447 130.367 26.6619C130.367 26.6619 141.118 35.0668 148.118 44.0646C155.118 53.0623 161.535 69.0118 161.535 69.0118H115.615L114.991 49.2144Z" fill="white"/>
<path fill-rule="evenodd" clip-rule="evenodd" d="M115.615 69.3024H161.541L161.511 69.2792C161.608 69.2798 161.699 69.2329 161.753 69.1538C161.808 69.0747 161.82 68.9736 161.786 68.8839C161.739 68.7444 155.264 52.7949 148.322 43.8902C141.602 35.269 131.305 27.0783 130.561 26.4862C130.536 26.4667 130.522 26.4554 130.519 26.4527C130.409 26.3563 130.244 26.3563 130.134 26.4527C121.85 34.5297 115.018 48.4368 114.709 49.0655C114.704 49.077 114.7 49.084 114.699 49.0865C114.69 49.1307 114.69 49.1761 114.699 49.2202L115.323 69.0234C115.329 69.1794 115.458 69.3025 115.615 69.3024ZM161.109 68.7212H115.895L115.288 49.2783C115.298 49.2585 115.31 49.2342 115.325 49.2055C116.06 47.736 122.535 34.7934 130.391 27.0455C131.896 28.2487 141.515 36.0491 147.891 44.2447C154.109 52.2718 160.053 66.1927 161.109 68.7212Z" fill="#231F20"/>
<path d="M130.251 29.5043C130.251 29.5043 120.976 38.223 117.575 50.1503C117.575 50.1503 157.364 64.1526 157.009 63.8038C156.653 63.4551 151.099 50.8943 144.759 43.5415C135.793 33.1313 130.251 29.5043 130.251 29.5043Z" fill="#231F20"/>
<path fill-rule="evenodd" clip-rule="evenodd" d="M137.151 57.3229C153.66 63.0831 156.495 64.0538 157.078 64.0538C157.201 64.0538 157.23 64.0131 157.253 63.9608C157.329 63.8527 157.317 63.706 157.224 63.612C157.148 63.5132 156.816 62.8448 156.431 62.0659L156.413 62.0298C154.489 58.1678 150.027 49.2078 144.991 43.3496C136.09 33.0034 130.466 29.3008 130.408 29.2659C130.295 29.1906 130.146 29.2027 130.046 29.295C129.953 29.3822 120.678 38.1998 117.295 50.0689C117.249 50.2164 117.329 50.3737 117.476 50.4234C117.476 50.4234 127.305 53.8819 137.151 57.3229ZM156.431 63.3563C152.388 62.0833 130.181 54.3062 117.931 49.9875C121.075 39.2634 129.026 31.1201 130.291 29.8995C131.341 30.6319 136.638 34.5321 144.566 43.7449C149.557 49.542 153.998 58.4728 155.908 62.3144L155.923 62.3449L156.431 63.3563Z" fill="#231F20"/>
<path d="M120.743 37.0024C120.743 37.0024 139.491 39.8563 150.668 52.6206C156.373 59.1422 161.541 69.0118 161.541 69.0118H138.68L120.743 37.0024Z" fill="#E7816B"/>
<path fill-rule="evenodd" clip-rule="evenodd" d="M138.68 69.2792H161.541C161.637 69.2788 161.725 69.2249 161.768 69.1397C161.815 69.0587 161.815 68.959 161.768 68.8781L161.765 68.8717C161.606 68.5708 156.458 58.8354 150.854 52.4345C139.747 39.7575 120.958 36.7408 120.772 36.7408C120.67 36.7272 120.57 36.7695 120.509 36.8512C120.459 36.9397 120.459 37.0476 120.509 37.136L138.447 69.1455C138.495 69.2285 138.584 69.2795 138.68 69.2792ZM161.097 68.7502H138.837L121.25 37.3627C124.412 37.9556 140.547 41.4664 150.463 52.7949C155.451 58.4912 160.077 66.8612 161.097 68.7502Z" fill="#231F20"/>
<path d="M110.593 50.1677C114.676 44.1576 117.009 40.3504 120.743 37.0024C127.713 41.1261 134.13 46.1143 139.841 51.8475C144.844 56.9318 149.078 62.7137 152.412 69.0118H101.376C101.376 69.0118 106.813 55.7128 110.593 50.1677Z" fill="white"/>
<path fill-rule="evenodd" clip-rule="evenodd" d="M101.376 69.3024H152.411C152.509 69.3025 152.6 69.2518 152.651 69.1687C152.697 69.0795 152.697 68.9732 152.651 68.8839C149.292 62.5622 145.039 56.7543 140.021 51.6382C134.287 45.8932 127.849 40.8918 120.859 36.7524C120.753 36.6896 120.617 36.7038 120.526 36.7873C117.312 39.6412 115.125 42.8904 112.103 47.3835C111.566 48.2089 110.983 49.0807 110.353 50.0049C106.596 55.5094 101.16 68.7735 101.107 68.9072C101.069 68.9952 101.08 69.0967 101.136 69.1745C101.189 69.2546 101.279 69.3026 101.376 69.3024ZM151.933 68.7212H101.813C102.752 66.4659 107.477 55.2478 110.837 50.3304L112.616 47.709C115.562 43.3205 117.709 40.1353 120.783 37.3627C127.651 41.4655 133.984 46.399 139.636 52.0509C144.491 57.0129 148.629 62.6234 151.933 68.7212Z" fill="#231F20"/>
<path d="M103.237 69.0118C103.237 69.0118 107.198 59.2701 112.121 51.5162C117.132 43.6286 121.005 39.8563 121.005 39.8563C121.005 39.8563 126.879 42.6347 136.586 52.1381C143.218 58.6307 149.378 68.9944 149.378 68.9944L103.237 69.0118Z" fill="#231F20"/>
<path fill-rule="evenodd" clip-rule="evenodd" d="M103.237 69.3024H149.378C149.489 69.3111 149.594 69.2542 149.647 69.1571C149.699 69.0672 149.699 68.9564 149.647 68.8665C149.643 68.8621 149.622 68.8272 149.584 68.7642C148.915 67.6665 143.042 58.025 136.813 51.9289C127.188 42.501 121.215 39.5947 121.157 39.5947C121.045 39.5437 120.914 39.5643 120.824 39.6471C120.823 39.6487 120.814 39.657 120.8 39.6719C120.461 40.0145 116.663 43.8608 111.899 51.3592C107.017 59.0259 103.027 68.8084 102.992 68.9072C102.945 68.9902 102.945 69.0915 102.992 69.1746C103.047 69.2547 103.139 69.3025 103.237 69.3024ZM148.859 68.7212H103.674C104.473 66.8437 108.072 58.4331 112.366 51.6731C116.758 44.7562 120.311 40.9781 121.063 40.2109C122.131 40.7689 127.772 43.9134 136.382 52.3474C142.139 57.9797 147.611 66.681 148.859 68.7212Z" fill="#231F20"/>
<path d="M121.833 72.4935H62.2226C62.2226 72.4935 59.3818 46.9185 60.7876 30.0622C62.1934 13.206 70.9376 0.662598 70.9376 0.662598C70.9376 0.662598 93.0459 6.07985 106.34 27.3536C119.634 48.6273 121.833 72.4935 121.833 72.4935Z" fill="white"/>
<path fill-rule="evenodd" clip-rule="evenodd" d="M62.2223 72.7841H121.833C121.921 72.7926 122.008 72.7579 122.066 72.6911C122.123 72.6321 122.151 72.5514 122.142 72.4703L122.142 72.4689C122.111 72.153 119.776 48.267 106.591 27.1734C93.384 6.045 71.229 0.406875 71.0073 0.354562C70.8898 0.320124 70.7636 0.36758 70.6982 0.470812C70.6107 0.58125 61.884 13.3106 60.4957 30.0099C59.2236 45.3108 61.4922 68.0533 61.8811 71.9518C61.9166 72.3081 61.9365 72.507 61.9365 72.5284C61.9515 72.6742 62.0752 72.7849 62.2223 72.7841ZM121.53 72.2029H62.4848C62.1932 69.471 59.7665 45.8025 61.0907 30.0332C62.3973 14.5196 70.0565 2.51681 71.0832 0.970687C73.2823 1.57519 93.6815 7.61438 106.095 27.4815C118.386 47.1452 121.203 69.2966 121.53 72.2029Z" fill="#231F20"/>
<path d="M121.833 72.4935H103.75C103.75 72.4935 101.545 49.412 92.6667 28.9346C83.7884 8.45717 70.9551 0.633545 70.9551 0.633545C70.9551 0.633545 93.0634 6.05079 106.358 27.3245C119.652 48.5983 121.833 72.4935 121.833 72.4935Z" fill="#E7816B"/>
<path fill-rule="evenodd" clip-rule="evenodd" d="M103.75 72.7609H121.833H121.921C121.996 72.7611 122.068 72.7298 122.119 72.6745C122.17 72.6192 122.196 72.5451 122.189 72.4702L122.189 72.4681C122.155 72.1193 119.825 48.2579 106.638 27.185C93.4192 6.06242 71.2759 0.430107 71.0542 0.377795C70.9262 0.34511 70.7937 0.412336 70.745 0.534732C70.6967 0.654268 70.7409 0.791118 70.85 0.860232C70.8524 0.861918 70.861 0.867504 70.8757 0.87704C71.521 1.29491 83.8786 9.29726 92.4334 29.045C101.183 49.2435 103.488 72.29 103.488 72.5225C103.502 72.6566 103.615 72.7587 103.75 72.7609ZM121.542 72.2319H103.96C103.698 69.7151 101.195 47.9996 92.8767 28.8416C85.7659 12.4097 75.9659 4.01642 72.4134 1.36592C77.675 3.06317 95.0467 9.79405 106.095 27.4757C118.433 47.1975 121.233 69.4419 121.542 72.2319Z" fill="#231F20"/>
<path d="M101.376 72.4935C101.376 72.4935 97.6076 48.0112 92.6667 34.875C85.4101 15.6938 71.6667 4.68488 71.6667 4.68488C71.6667 4.68488 65.8334 15.6937 64.5209 24.7729C63.6692 30.7714 62.9692 60.5837 64.5792 72.2261L101.376 72.4935Z" fill="#231F20"/>
<path fill-rule="evenodd" clip-rule="evenodd" d="M64.5792 72.5167L101.376 72.7841C101.463 72.7874 101.547 72.751 101.603 72.6853C101.661 72.6203 101.687 72.5328 101.673 72.447C101.671 72.4351 101.66 72.3664 101.64 72.2449C101.256 69.8608 97.5968 47.1541 92.9234 34.7878C85.7192 15.7402 71.9759 4.58603 71.8359 4.4756C71.7703 4.41877 71.6812 4.39711 71.5967 4.41747C71.512 4.43361 71.4391 4.48701 71.3984 4.56278C71.34 4.64997 65.5184 15.6937 64.2292 24.7322C63.4067 30.5505 62.6775 60.6069 64.2934 72.2668C64.3136 72.409 64.435 72.5153 64.5792 72.5167ZM101.038 72.2028L64.8359 71.9355C63.2725 60.1477 63.99 30.5737 64.8125 24.8252C65.9559 16.74 70.7859 7.0331 71.7484 5.16728C80.8943 13.3479 87.9632 23.5727 92.375 35.0028C96.9542 47.0987 100.559 69.2036 101.038 72.2028Z" fill="#231F20"/>
<path d="M56.4998 20.7041C56.4998 20.7041 68.709 22.814 82.6273 32.4919C106.281 48.9412 114.501 72.4935 114.501 72.4935H52.6265C52.6265 72.4935 54.7498 27.528 56.4998 20.7041Z" fill="#E7816B"/>
<path fill-rule="evenodd" clip-rule="evenodd" d="M52.6267 72.7609H114.518V72.7144C114.605 72.7128 114.685 72.6708 114.736 72.6011C114.786 72.5313 114.801 72.4419 114.775 72.3598C114.773 72.3555 114.768 72.3416 114.759 72.3185C114.341 71.1964 105.785 48.2345 82.8025 32.2536C68.9775 22.6455 56.675 20.4193 56.5525 20.4193C56.4138 20.3965 56.2803 20.4819 56.2433 20.617C54.5108 27.3885 52.4283 70.6219 52.3408 72.4586C52.3403 72.5317 52.3674 72.6022 52.4167 72.6563C52.4674 72.7208 52.5445 72.7592 52.6267 72.7609ZM114.157 72.2261H52.9067C53.0875 68.4655 55.0825 28.1848 56.7392 21.0064C58.53 21.3668 69.8758 23.9126 82.5167 32.7011C104.24 47.8136 112.99 69.2269 114.157 72.2261Z" fill="#231F20"/>
<path d="M95.064 72.4935C95.064 72.4935 93.454 59.6479 82.5749 45.3259C71.6957 31.0039 56.4999 20.7041 56.4999 20.7041C56.4999 20.7041 49.984 29.8065 47.5632 40.6468C45.1424 51.4871 46.9799 72.4935 46.9799 72.4935H95.064Z" fill="white"/>
<path fill-rule="evenodd" clip-rule="evenodd" d="M46.9857 72.7841H95.064C95.1369 72.7801 95.2056 72.749 95.2565 72.6969C95.3105 72.6344 95.3359 72.5522 95.3265 72.4703C95.309 72.3308 93.559 59.3398 82.779 45.1515C72.0773 31.0662 57.0293 20.7215 56.663 20.4697C56.6604 20.4679 56.6585 20.4666 56.6574 20.4658C56.5265 20.3759 56.3476 20.4069 56.2549 20.5356C56.2539 20.537 56.2515 20.5403 56.2478 20.5457C55.9974 20.902 49.6163 29.9837 47.2774 40.5829C45.0589 50.6364 46.4771 69.6023 46.6726 72.2167C46.6863 72.4001 46.694 72.503 46.694 72.5168C46.7089 72.6668 46.8344 72.7819 46.9857 72.7841ZM94.7024 72.2029H47.254C47.0557 69.75 45.6382 50.7257 47.8199 40.6933C50.0132 30.9748 55.549 22.5932 56.5699 21.0936C58.5474 22.4886 72.3374 32.3582 82.3182 45.5061C92.0715 58.3343 94.3582 70.1162 94.7024 72.2029Z" fill="#231F20"/>
<path d="M92.264 70.7556C92.264 70.7556 89.0498 57.5961 76.059 42.1C70.5477 35.5537 64.2243 29.7314 57.2406 24.7729C57.2406 24.7729 51.2148 32.6837 49.704 42.7219C48.4673 50.9582 48.199 65.722 48.1406 70.7556H92.264Z" fill="#231F20"/>
<path fill-rule="evenodd" clip-rule="evenodd" d="M48.1408 71.0462H92.2642C92.349 71.0432 92.4281 71.0027 92.48 70.9358C92.537 70.8658 92.5565 70.7727 92.5325 70.6858C92.5033 70.5522 89.155 57.2822 76.2692 41.914C70.7327 35.3538 64.3908 29.513 57.3925 24.5288C57.2661 24.4421 57.0936 24.4703 57.0017 24.5927C56.9492 24.6566 50.9233 32.6837 49.4183 42.6754C48.1992 50.7896 47.9133 65.0128 47.8492 70.7498C47.848 70.8286 47.8797 70.9043 47.9367 70.959C47.9909 71.0133 48.064 71.0445 48.1408 71.0462ZM91.8792 70.465H48.4383C48.5083 64.5595 48.8 50.7025 49.9958 42.7626C51.3375 33.8462 56.3367 26.5283 57.3108 25.1681C64.1669 30.0962 70.3891 35.8453 75.8375 42.286C87.4458 56.1371 91.255 68.2504 91.8792 70.465Z" fill="#231F20"/>
<path d="M88.7527 72.4935C88.1694 70.2092 85.7369 62.3449 78.2527 51.0163C69.2869 37.4674 56.9961 33.4509 56.9961 33.4509H32.8169V34.3577L49.3369 72.4935H88.7527Z" fill="#E7816B"/>
<path fill-rule="evenodd" clip-rule="evenodd" d="M49.3366 72.7609H88.7524C88.8481 72.7646 88.9387 72.7183 88.9916 72.6388C89.0434 72.5754 89.0609 72.4907 89.0383 72.4121C88.4724 70.2324 86.0399 62.2577 78.4974 50.8536C69.5841 37.3802 57.2291 33.2243 57.1066 33.1836C57.0777 33.1781 57.048 33.1781 57.0191 33.1836H32.8458C32.6999 33.1867 32.5832 33.3055 32.5833 33.4509V34.3577C32.5777 34.3923 32.5777 34.4277 32.5833 34.4623L49.0916 72.5981C49.1322 72.6972 49.2292 72.7617 49.3366 72.7609ZM88.3908 72.2261H49.4999L33.0849 34.3054V33.7241H56.9374C57.7074 33.9857 69.4558 38.2288 78.0074 51.1616C85.1649 61.9787 87.6908 69.6744 88.3908 72.2261Z" fill="#231F20"/>
<path d="M76.0594 72.4935C72.7927 66.8437 57.6669 42.6405 32.8169 33.4509C32.8169 33.4509 25.0469 50.0224 27.2577 72.4935H76.0594Z" fill="white"/>
<path fill-rule="evenodd" clip-rule="evenodd" d="M27.2576 72.7841H76.0593C76.1629 72.7835 76.2583 72.7282 76.3101 72.6388C76.3622 72.5489 76.3622 72.4381 76.3101 72.3482C73.4751 67.4715 58.0576 42.4778 32.9218 33.1778C32.7785 33.1243 32.618 33.1902 32.5543 33.3289C32.5537 33.3302 32.5526 33.3326 32.551 33.3361C32.3565 33.7639 24.7901 50.4089 26.966 72.5226C26.9835 72.6704 27.1083 72.7823 27.2576 72.7841ZM75.5518 72.2029H27.526C25.5835 51.6673 32.041 35.9503 32.9685 33.8404C57.1068 42.8788 72.1685 66.4601 75.5518 72.2029Z" fill="#231F20"/>
<path d="M73.0844 72.4935C71.5852 69.6919 66.0844 61.7811 59.5919 54.5736C47.3944 41.0769 33.8144 36.6536 33.8144 36.6536C27.5085 53.9865 29.7777 67.1809 29.9002 72.4935H73.0844Z" fill="#231F20"/>
<path fill-rule="evenodd" clip-rule="evenodd" d="M29.9175 72.7841H73.0842V72.7958C73.1873 72.796 73.2829 72.742 73.3356 72.6537C73.3884 72.5653 73.3903 72.4558 73.3408 72.3656C71.9641 69.7965 66.5742 61.8799 59.8075 54.3934C47.6975 40.9781 34.0417 36.4211 33.9017 36.3746C33.7524 36.3313 33.5948 36.4098 33.54 36.5548C28.1967 51.2837 29.0133 63.1238 29.4567 69.5175C29.472 69.7365 29.4876 69.9501 29.5028 70.158C29.5682 71.0538 29.6258 71.8436 29.6258 72.4993C29.6258 72.5759 29.6567 72.6492 29.7116 72.7028C29.7665 72.7564 29.8407 72.7857 29.9175 72.7841ZM72.5883 72.2029H30.18C30.1583 71.4914 30.1016 70.6499 30.0376 69.7016C30.0326 69.6273 30.0276 69.5524 30.0225 69.4768C29.585 63.1819 28.78 51.5104 33.9892 37.0256C35.9492 37.7289 48.2925 42.5184 59.3758 54.7654C65.7691 61.845 70.9142 69.2966 72.5883 72.2029Z" fill="#231F20"/>
<path d="M175.657 72.4935L172.863 66.867H82.3766L79.5999 72.4935H22.5791V92.3664H185.177V72.4935H175.657Z" fill="white"/>
<path fill-rule="evenodd" clip-rule="evenodd" d="M22.5793 92.657H185.178C185.336 92.6539 185.463 92.5247 185.463 92.3664V72.4935C185.463 72.333 185.333 72.2029 185.172 72.2029H175.838L173.126 66.7391C173.076 66.6403 172.975 66.5775 172.863 66.5764H82.3768C82.2652 66.5761 82.1633 66.6393 82.1143 66.7391L79.4193 72.2029H22.5793C22.4182 72.2029 22.2876 72.333 22.2876 72.4935V92.3664C22.2876 92.5269 22.4182 92.657 22.5793 92.657ZM184.886 92.0758H22.8709V72.7841H79.6001C79.7112 72.783 79.8125 72.7202 79.8626 72.6214L82.5576 67.1576H172.683L175.395 72.6214C175.445 72.7202 175.546 72.783 175.658 72.7841H184.886V92.0758Z" fill="#231F20"/>
<rect x="62.2227" y="72.4935" width="32.8417" height="19.8671" fill="#D1D3D4"/>
<path fill-rule="evenodd" clip-rule="evenodd" d="M62.2223 92.6571H95.064C95.2251 92.6571 95.3557 92.527 95.3557 92.3664V72.4935C95.3557 72.333 95.2251 72.2029 95.064 72.2029H62.2223C62.0626 72.206 61.9338 72.3343 61.9307 72.4935V92.3664C61.9307 92.527 62.0612 92.6571 62.2223 92.6571ZM94.7723 92.0758H62.514V72.7841H94.7723V92.0758Z" fill="#231F20"/>
<path d="M146.502 73.9641L168.191 92.3664H146.502V73.9641Z" fill="#D1D3D4"/>
<path fill-rule="evenodd" clip-rule="evenodd" d="M146.503 92.6571H168.191C168.313 92.6559 168.421 92.5796 168.462 92.4658C168.504 92.3519 168.47 92.2243 168.378 92.1456L146.689 73.7432C146.602 73.6726 146.483 73.6569 146.38 73.7025C146.277 73.7486 146.21 73.8512 146.211 73.9641V92.3664C146.211 92.527 146.342 92.6571 146.503 92.6571ZM167.398 92.0758H146.794V74.5976L167.398 92.0758Z" fill="#231F20"/>
<rect x="17.8833" y="76.1031" width="44.3392" height="1.9995" fill="white"/>
<path fill-rule="evenodd" clip-rule="evenodd" d="M17.8893 78.3932H62.2227C62.3 78.3932 62.3742 78.3626 62.4289 78.3081C62.4836 78.2536 62.5143 78.1796 62.5143 78.1026V76.1031C62.5143 75.9426 62.3837 75.8124 62.2227 75.8124H17.8893C17.7282 75.8124 17.5977 75.9426 17.5977 76.1031V78.1026C17.6008 78.2618 17.7295 78.3901 17.8893 78.3932ZM61.9252 77.8119H18.1752V76.3937H61.9252V77.8119Z" fill="#231F20"/>
<rect x="13.6016" y="81.1774" width="48.6267" height="3.52238" fill="white"/>
<path fill-rule="evenodd" clip-rule="evenodd" d="M13.6017 84.9845H62.2226C62.3836 84.9845 62.5142 84.8544 62.5142 84.6939V81.1773C62.5142 81.0168 62.3836 80.8867 62.2226 80.8867H13.6017C13.4406 80.8867 13.3101 81.0168 13.3101 81.1773V84.6939C13.3101 84.8544 13.4406 84.9845 13.6017 84.9845ZM61.9309 84.4033H13.8934L13.9167 81.468H61.9309V84.4033Z" fill="#231F20"/>
<rect x="13.6016" y="83.2757" width="48.6267" height="4.38844" fill="#E7816B"/>
<path fill-rule="evenodd" clip-rule="evenodd" d="M13.6018 87.9257H62.2227C62.2933 87.9272 62.3616 87.9004 62.4121 87.8512C62.4626 87.8019 62.491 87.7345 62.491 87.6641V83.2757C62.491 83.128 62.3709 83.0083 62.2227 83.0083H13.6018C13.4536 83.0083 13.3335 83.128 13.3335 83.2757V87.6641C13.3335 87.7345 13.3619 87.8019 13.4124 87.8512C13.4629 87.9004 13.5312 87.9272 13.6018 87.9257ZM61.9602 87.3967H13.8643V83.5431H61.9602V87.3967Z" fill="#231F20"/>
<rect x="17.8833" y="78.1025" width="44.3392" height="3.07481" fill="#E7816B"/>
<path fill-rule="evenodd" clip-rule="evenodd" d="M17.8891 81.439H62.2224C62.293 81.4405 62.3613 81.4137 62.4118 81.3644C62.4623 81.3152 62.4908 81.2478 62.4908 81.1774V78.1026C62.4924 78.0312 62.4646 77.9622 62.4139 77.9118C62.3633 77.8613 62.2941 77.8336 62.2224 77.8352H17.8891C17.8184 77.8352 17.7508 77.8635 17.7014 77.9139C17.652 77.9642 17.625 78.0322 17.6266 78.1026V81.1774C17.6266 81.3219 17.7441 81.439 17.8891 81.439ZM61.9599 80.91H18.1516V78.3641H61.9599V80.91Z" fill="#231F20"/>
<rect x="22.5791" y="74.307" width="39.6492" height="1.79606" fill="#E7816B"/>
<path fill-rule="evenodd" clip-rule="evenodd" d="M22.5559 76.3704H62.2226C62.3708 76.3704 62.4909 76.2507 62.4909 76.103V74.307C62.4909 74.2361 62.4627 74.1681 62.4123 74.1179C62.362 74.0678 62.2938 74.0396 62.2226 74.0396H22.5559C22.4848 74.0396 22.4165 74.0678 22.3662 74.1179C22.3159 74.1681 22.2876 74.2361 22.2876 74.307V76.103C22.2876 76.2507 22.4077 76.3704 22.5559 76.3704ZM61.9601 75.8357H22.8418V74.5744H61.9601V75.8357Z" fill="#231F20"/>
<path d="M79.6001 72.4935H105.36L107.74 66.867H82.3768L79.6001 72.4935Z" fill="#D1D3D4"/>
<path fill-rule="evenodd" clip-rule="evenodd" d="M79.5999 72.7841H105.36C105.473 72.779 105.573 72.7087 105.617 72.6039L107.997 66.9832C108.043 66.8981 108.043 66.7952 107.997 66.71C107.943 66.6269 107.851 66.5765 107.752 66.5764H82.3882C82.2767 66.5761 82.1748 66.6393 82.1257 66.7391L79.349 72.3656C79.299 72.4519 79.299 72.5583 79.349 72.6446C79.4039 72.7301 79.4981 72.7825 79.5999 72.7841ZM105.15 72.2029H80.0665L82.5574 67.1576H107.285L105.15 72.2029Z" fill="#231F20"/>
<rect x="113.305" y="69.8837" width="38.4825" height="1.73794" fill="#E7816B"/>
<rect x="163.997" y="78.585" width="16.1875" height="1.27294" fill="#E7816B"/>
<rect x="4.82227" y="86.0599" width="57.4058" height="6.30656" fill="white"/>
<path fill-rule="evenodd" clip-rule="evenodd" d="M4.82243 92.657H62.2224C62.3835 92.657 62.5141 92.5269 62.5141 92.3664V86.0599C62.5141 85.8993 62.3835 85.7692 62.2224 85.7692H4.82243C4.66135 85.7692 4.53076 85.8993 4.53076 86.0599V92.3664C4.53076 92.5269 4.66135 92.657 4.82243 92.657ZM61.9308 92.0758H5.1141V86.3505H61.9308V92.0758Z" fill="#231F20"/>
<path d="M175.658 74.2314H146.491C146.387 74.2469 146.283 74.2001 146.226 74.1119C146.169 74.0236 146.169 73.9103 146.226 73.822C146.283 73.7338 146.387 73.687 146.491 73.7025H175.658C175.762 73.687 175.865 73.7338 175.923 73.822C175.98 73.9103 175.98 74.0236 175.923 74.1119C175.865 74.2001 175.762 74.2469 175.658 74.2314Z" fill="#231F20"/>
</g>
<defs>
<filter id="filter0_d_0_8756" x="0.530762" y="0.343445" width="188.933" height="100.314" filterUnits="userSpaceOnUse" color-interpolation-filters="sRGB">
<feFlood flood-opacity="0" result="BackgroundImageFix"/>
<feColorMatrix in="SourceAlpha" type="matrix" values="0 0 0 0 0 0 0 0 0 0 0 0 0 0 0 0 0 0 127 0" result="hardAlpha"/>
<feOffset dy="4"/>
<feGaussianBlur stdDeviation="2"/>
<feComposite in2="hardAlpha" operator="out"/>
<feColorMatrix type="matrix" values="0 0 0 0 0 0 0 0 0 0 0 0 0 0 0 0 0 0 0.25 0"/>
<feBlend mode="normal" in2="BackgroundImageFix" result="effect1_dropShadow_0_8756"/>
<feBlend mode="normal" in="SourceGraphic" in2="effect1_dropShadow_0_8756" result="shape"/>
</filter>
</defs>
</svg>
