<svg width="202" height="128" viewBox="0 0 202 128" fill="none" xmlns="http://www.w3.org/2000/svg">
<path d="M173.132 2.48543C172.136 2.43537 171.139 2.57021 170.193 2.8831C168.791 3.50446 167.427 6.77903 166.455 11.9177C165.605 16.3681 165.24 20.8972 165.366 25.426C165.393 26.2397 165.81 26.9909 166.487 27.4454C170.847 30.5522 185.639 26.7557 187.209 26.3394C187.956 24.9103 194.77 11.5324 191.413 7.93475C188.461 4.74718 178.558 2.48543 173.132 2.48543Z" fill="white"/>
<path fill-rule="evenodd" clip-rule="evenodd" d="M166.113 27.9363C167.471 28.9181 169.738 29.2722 172.298 29.2722C178.261 29.2722 185.828 27.3459 187.287 26.9745C187.402 26.9451 187.479 26.9255 187.514 26.9173C187.6 26.8931 187.672 26.8347 187.714 26.7557L187.719 26.7462C188.115 26.0006 195.755 11.6251 191.887 7.49359C188 3.34291 173.569 0.7332 169.937 2.2866C166.306 3.84 164.357 18.4419 164.724 25.4509C164.763 26.4529 165.279 27.3762 166.113 27.9363ZM170.193 2.8831C171.139 2.57021 172.136 2.43537 173.132 2.48543C178.558 2.48543 188.461 4.74718 191.413 7.93475C194.77 11.5324 187.956 24.9103 187.209 26.3394C185.639 26.7557 170.847 30.5522 166.487 27.4454C165.81 26.9909 165.393 26.2397 165.366 25.426C165.24 20.8972 165.605 16.3681 166.456 11.9177C167.427 6.77903 168.791 3.50446 170.193 2.8831Z" fill="#231F20"/>
<path d="M131.308 110.086C141.697 105.517 148.729 95.6227 149.614 84.3309L139.306 73.2831L125.136 100.579" fill="white"/>
<path d="M131.308 110.409C131.156 110.404 131.028 110.293 131.001 110.144C130.974 109.994 131.055 109.846 131.196 109.788C141.392 105.242 148.317 95.5412 149.29 84.4427L139.387 73.8299L125.428 100.722C125.337 100.859 125.158 100.906 125.012 100.831C124.865 100.756 124.798 100.584 124.855 100.43L139.025 73.134C139.073 73.0409 139.164 72.9778 139.268 72.9662C139.371 72.9494 139.476 72.9843 139.549 73.0594L149.857 84.1134C149.919 84.1805 149.951 84.2706 149.944 84.3619C148.992 95.7583 141.892 105.732 131.42 110.384C131.385 110.402 131.347 110.41 131.308 110.409V110.409Z" fill="#231F20"/>
<path d="M163.26 126.962L194.44 126.36L194.011 87.1891L148.225 88.8357L141.853 126.962H163.26V126.962Z" fill="#231F20"/>
<path fill-rule="evenodd" clip-rule="evenodd" d="M141.853 127.273H163.26H163.267L194.446 126.652C194.529 126.65 194.608 126.616 194.665 126.556C194.722 126.497 194.753 126.417 194.752 126.335L194.322 87.1891C194.322 87.1038 194.286 87.0223 194.222 86.9654C194.16 86.9104 194.081 86.8794 193.998 86.8784L148.212 88.5251C148.064 88.5296 147.941 88.6397 147.919 88.786L141.548 126.913C141.53 127.002 141.555 127.094 141.616 127.161C141.674 127.232 141.761 127.273 141.853 127.273ZM163.26 126.652H142.22L148.486 89.134L193.705 87.506L194.129 126.03L163.26 126.652Z" fill="#231F20"/>
<path d="M200.451 43.7313C197.661 39.9472 190.984 37.9526 186.487 37.2381C182.158 36.5546 177.823 37.2381 173.476 36.8652C169.495 36.6328 165.502 37.0228 161.641 38.021C147.135 42.0225 133.65 62.9748 133.65 62.9748L148.437 63.7515C148.437 63.7515 146.288 79.1798 140.122 112.988C165.808 113.901 195.705 116.449 195.705 116.449C195.705 116.449 195.836 109.372 196.16 102.406C198.477 100.25 198.396 96.814 198.819 94.8194C199.367 92.2532 198.259 64.3728 198.259 64.3728L201.628 63.1301C201.628 63.1301 201.672 45.3592 200.451 43.7313Z" fill="#E7816B"/>
<path d="M165.901 43.3398L154.634 117.275L168.087 118.624L183.391 43.1845L165.901 43.3398V43.3398Z" fill="#231F20"/>
<path fill-rule="evenodd" clip-rule="evenodd" d="M168.056 118.934H168.088C168.238 118.934 168.366 118.827 168.393 118.679L183.69 43.2465C183.708 43.1536 183.683 43.0575 183.622 42.9855C183.563 42.9121 183.473 42.8707 183.379 42.8737L165.895 43.029C165.743 43.0301 165.614 43.1404 165.59 43.29L154.323 117.232C154.307 117.315 154.327 117.401 154.379 117.468C154.433 117.534 154.511 117.576 154.597 117.586L168.056 118.934ZM167.857 118.288L155.007 117.002L166.187 43.6441L183.004 43.495L167.857 118.288Z" fill="#231F20"/>
<path d="M167.901 34.0691L165.964 43.3398C165.964 43.3398 168.025 49.4975 174.273 48.845C178.011 48.4233 181.36 46.3441 183.391 43.1845L185.609 26.1468C185.609 26.1468 181.442 23.1581 184.07 13.6202C178.836 15.0777 173.305 15.1035 168.057 13.6948C168.057 13.6948 163.89 23.8664 163.996 28.6074C164.102 33.3483 167.901 34.0691 167.901 34.0691Z" fill="white"/>
<path fill-rule="evenodd" clip-rule="evenodd" d="M165.662 43.4489C165.76 43.7182 167.773 49.2179 173.369 49.2179C173.69 49.2182 174.01 49.1995 174.328 49.1619C178.168 48.7447 181.608 46.6035 183.671 43.346C183.694 43.3101 183.709 43.2699 183.715 43.228L185.932 26.1903C185.951 26.0721 185.9 25.9537 185.801 25.8858C185.764 25.861 181.846 22.9219 184.381 13.701C184.414 13.5874 184.38 13.4652 184.294 13.3841C184.207 13.3038 184.082 13.2776 183.97 13.3157C178.794 14.7395 173.332 14.7631 168.143 13.3841C167.986 13.3444 167.824 13.4267 167.764 13.5767C167.589 13.993 163.578 23.8664 163.678 28.6509C163.79 32.7891 166.568 34.007 167.527 34.3052L165.658 43.2715C165.643 43.3263 165.643 43.3844 165.658 43.4392C165.659 43.4404 165.66 43.4437 165.662 43.4489ZM174.241 48.5282C168.629 49.106 166.567 44.0482 166.3 43.3149L168.212 34.1623C168.23 34.0762 168.212 33.9864 168.162 33.9138C168.115 33.8437 168.04 33.7964 167.956 33.7833L167.951 33.7822C167.74 33.7389 164.405 33.0558 164.313 28.6571C164.228 24.5209 167.475 16.1101 168.203 14.2246C168.22 14.1812 168.235 14.1412 168.249 14.1049C173.29 15.37 178.567 15.37 183.609 14.1049C181.497 22.4 184.518 25.6808 185.265 26.3021L183.079 43.0788C181.084 46.1082 177.849 48.1029 174.241 48.5282Z" fill="#231F20"/>
<path d="M182.101 25.3763C182.419 24.5732 182.989 23.8949 183.727 23.4439C184.43 23.0577 185.195 22.7949 185.988 22.6672C186.414 22.5507 186.861 22.5295 187.296 22.605C187.592 22.6976 187.868 22.8429 188.112 23.0338C188.717 23.4438 189.158 24.0531 189.358 24.755C189.446 25.339 189.393 25.9356 189.202 26.4948C189.046 27.1151 188.805 27.7109 188.486 28.2656C187.827 29.3762 186.749 30.1762 185.493 30.4858C184.238 30.7954 182.91 30.5888 181.809 29.9122" fill="white"/>
<path d="M184.357 30.9375C183.404 30.939 182.468 30.6789 181.654 30.1856C181.503 30.0922 181.456 29.8957 181.548 29.7445C181.592 29.6711 181.663 29.6186 181.746 29.5987C181.83 29.5788 181.917 29.5933 181.99 29.6388C183.022 30.2576 184.256 30.4494 185.428 30.1732C186.6 29.8812 187.608 29.137 188.231 28.1041C188.534 27.5723 188.762 27.0015 188.91 26.4078C189.085 25.9011 189.136 25.36 189.059 24.8295C188.874 24.2024 188.476 23.6595 187.932 23.2948C187.721 23.1252 187.48 22.9966 187.222 22.9157C186.836 22.8541 186.441 22.8753 186.063 22.9779C185.296 23.1005 184.555 23.3504 183.871 23.7173C183.193 24.1323 182.668 24.756 182.376 25.4944C182.311 25.666 182.118 25.7522 181.946 25.687C181.774 25.6218 181.688 25.4298 181.753 25.2583C182.099 24.3926 182.715 23.6607 183.51 23.1705C184.262 22.7652 185.08 22.4939 185.926 22.3689C186.399 22.239 186.896 22.2198 187.378 22.313C187.716 22.4128 188.031 22.5774 188.306 22.7977C188.98 23.2472 189.469 23.9246 189.682 24.7052C189.779 25.3301 189.726 25.9691 189.526 26.5693C189.363 27.2215 189.111 27.8485 188.779 28.4334C188.069 29.6126 186.92 30.4636 185.584 30.8008C185.182 30.8956 184.77 30.9415 184.357 30.9375V30.9375Z" fill="#231F20"/>
<path d="M167.153 38.7045C169.378 39.2625 171.736 38.8319 173.619 37.5239C176.633 35.3181 176.602 33.7957 176.602 33.7957C176.602 33.7957 171.987 35.5728 168.125 34.2493L167.153 38.7045Z" fill="#231F20"/>
<path fill-rule="evenodd" clip-rule="evenodd" d="M167.066 39.0027C167.739 39.1775 168.432 39.2631 169.128 39.2575C170.804 39.2674 172.439 38.7403 173.793 37.7538C176.907 35.4796 176.907 33.8392 176.907 33.7709C176.908 33.67 176.856 33.576 176.77 33.5223C176.683 33.4759 176.578 33.4759 176.49 33.5223C176.446 33.541 171.931 35.2124 168.225 33.9697C168.146 33.9327 168.055 33.9327 167.976 33.9697C167.898 34.0125 167.843 34.0876 167.826 34.1748L166.854 38.6423C166.818 38.7994 166.911 38.9575 167.066 39.0027ZM173.438 37.2753C171.715 38.4691 169.575 38.9027 167.521 38.4746L168.356 34.647C171.445 35.5666 174.852 34.6905 176.16 34.2742C175.93 34.8583 175.276 35.927 173.438 37.2753Z" fill="#231F20"/>
<path d="M173.475 20.2004C173.475 20.2004 169.52 24.3573 170.13 25.3017C170.741 26.2462 172.927 26.0971 172.927 26.0971" fill="white"/>
<path d="M172.466 26.3891C171.725 26.3891 170.386 26.2711 169.869 25.4695C169.196 24.4381 172.005 21.2878 173.245 19.9891C173.303 19.9303 173.383 19.8972 173.466 19.8972C173.549 19.8972 173.628 19.9303 173.687 19.9891C173.745 20.0464 173.778 20.1248 173.778 20.2066C173.778 20.2884 173.745 20.3668 173.687 20.4241C171.669 22.5491 170.124 24.7736 170.379 25.1464C170.791 25.7678 172.373 25.8113 172.871 25.7678C173.041 25.7534 173.191 25.878 173.207 26.0474C173.214 26.1298 173.188 26.2116 173.134 26.2746C173.08 26.3376 173.003 26.3766 172.921 26.3829C172.896 26.3767 172.709 26.3891 172.466 26.3891Z" fill="#231F20"/>
<ellipse cx="1.11261" cy="0.790758" rx="1.11261" ry="0.790758" transform="matrix(0.373601 -0.927589 0.927822 0.373022 177.682 21.7119)" fill="#231F20"/>
<ellipse cx="1.11261" cy="0.790758" rx="1.11261" ry="0.790758" transform="matrix(0.373601 -0.927589 0.927822 0.373022 169.476 20.3726)" fill="#231F20"/>
<path d="M172.921 31.6334C172.602 31.6329 172.284 31.5932 171.974 31.5153C167.664 30.4777 167.764 25.4571 167.764 25.4074C167.774 25.2373 167.917 25.1055 168.088 25.1091C168.17 25.1107 168.248 25.1452 168.304 25.2049C168.36 25.2645 168.39 25.3442 168.387 25.426C168.387 25.6124 168.306 29.993 172.124 30.9126C175.942 31.8322 177.829 25.8113 177.848 25.7491C177.873 25.6345 177.962 25.5441 178.076 25.5154C178.19 25.4867 178.311 25.5247 178.387 25.6136C178.464 25.7025 178.485 25.827 178.44 25.9355C178.359 26.1841 176.608 31.6334 172.921 31.6334Z" fill="#231F20"/>
<path d="M36.7842 45.9806L60.0664 72.0093L92.6415 83.374L88.4809 91.9612C88.4809 91.9612 67.3351 88.7736 59.0075 87.8416C50.68 86.9095 40.1538 74.4326 40.1538 74.4326L36.7842 45.9806Z" fill="white"/>
<path fill-rule="evenodd" clip-rule="evenodd" d="M88.4378 92.2656H88.4814C88.6023 92.2663 88.7123 92.1956 88.7617 92.0854L92.9285 83.4734C92.9659 83.3926 92.9659 83.2995 92.9285 83.2186C92.8955 83.1379 92.8299 83.0748 92.7479 83.0447L60.2475 71.7049L37.0152 45.7382C36.924 45.6373 36.7777 45.6071 36.6539 45.6637C36.534 45.7221 36.4623 45.8479 36.4733 45.9806L39.8429 74.4699C39.8495 74.5304 39.8758 74.5872 39.9176 74.6315C40.3474 75.1472 50.6182 87.2078 58.9707 88.146C65.1577 88.8422 78.5821 90.8208 84.9511 91.7595C87.052 92.0691 88.3853 92.2656 88.4378 92.2656ZM59.0394 87.5247C51.2537 86.6485 41.3192 75.3025 40.4535 74.2959L37.2084 46.9126L59.8491 72.1957C59.8843 72.2356 59.9294 72.2656 59.9799 72.2827L92.2249 83.5355L88.3134 91.6132C85.9901 91.2528 66.825 88.4008 59.0394 87.5247Z" fill="#231F20"/>
<path d="M48.089 33.075C47.7651 30.894 46.8869 28.8373 46.2205 26.7433C44.5388 21.6668 44.2959 16.4287 42.5332 11.3709C40.2722 4.86524 35.931 0.130484 28.3384 0.397668C25.2122 0.399758 22.394 2.27732 21.1943 5.15728C17.6004 3.18136 12.8107 7.20155 12.6425 10.88C12.3934 16.3045 12.7422 20.9336 10.3754 26.0722C8.58155 29.9744 5.80364 33.628 5.57318 37.9153C5.34273 42.2027 7.77808 46.2105 11.266 48.5779C14.754 50.9452 19.1513 51.7344 23.3556 51.4237C27.5598 51.113 31.6271 49.7709 35.5323 48.1678C37.4542 47.4261 39.2984 46.4979 41.0384 45.3965C45.0059 42.7495 48.8489 38.1204 48.089 33.075Z" fill="white"/>
<path fill-rule="evenodd" clip-rule="evenodd" d="M11.0914 48.8326C14.227 50.847 17.8952 51.8793 21.6238 51.7965C22.2031 51.7965 22.7886 51.7779 23.3616 51.7468C27.9956 51.405 32.3493 49.8144 35.6318 48.466C37.579 47.7199 39.4465 46.7811 41.2063 45.6637C45.1988 42.9856 49.185 38.2944 48.4127 33.0439C48.1109 31.3927 47.652 29.774 47.0424 28.2097C46.8555 27.694 46.6749 27.172 46.5005 26.6563C45.7501 24.212 45.1613 21.7212 44.7379 19.2C44.2874 16.5166 43.6442 13.869 42.8132 11.2777C40.1786 3.71573 35.1584 -0.130484 28.307 0.0932049C25.1869 0.0990553 22.3547 1.91318 21.0508 4.74097C19.4753 4.0837 17.6772 4.23686 16.2362 5.15107C14.0313 6.38136 12.4305 8.7301 12.3309 10.8676C12.3263 10.9661 12.3217 11.0648 12.317 11.1636C12.2774 12.0052 12.2375 12.8525 12.2375 13.6699C12.1191 18.0194 12.0132 21.7476 10.0948 25.9417C9.60727 26.9997 9.0362 28.0576 8.48084 29.0865L8.44429 29.1542C6.9619 31.9006 5.42969 34.7402 5.26152 37.9029C5.03729 41.9977 7.3543 46.2788 11.0914 48.8326ZM16.535 5.68544C17.3228 5.22065 18.2173 4.96601 19.1323 4.94602L19.1385 4.97087C19.8063 4.96543 20.4645 5.13011 21.0507 5.44932C21.1296 5.48633 21.2209 5.48633 21.2998 5.44932C21.3794 5.42204 21.4446 5.36376 21.4804 5.28777C22.629 2.52214 25.3311 0.716077 28.3318 0.708349C35.0088 0.472232 39.6552 4.09476 42.2463 11.4765C43.0615 14.041 43.6861 16.6619 44.1149 19.3181C44.5464 21.8603 45.1435 24.3718 45.9024 26.8365C46.0391 27.2504 46.1834 27.6605 46.3264 28.0667C46.3659 28.1789 46.4052 28.2908 46.4443 28.4023C47.0407 29.9286 47.4912 31.5076 47.7897 33.1184C48.5247 38.0831 44.6879 42.5817 40.8573 45.1355C39.1361 46.2284 37.3105 47.1483 35.4074 47.8819C32.1686 49.2117 27.846 50.7961 23.3241 51.113C18.8022 51.4299 14.5855 50.4544 11.4338 48.3231C7.84621 45.8874 5.66623 41.8113 5.87177 37.934C6.03965 34.9194 7.53581 32.1402 8.97851 29.4602L8.98603 29.4462C9.55905 28.3899 10.1508 27.2963 10.6553 26.2027C12.6237 21.916 12.7349 17.9381 12.8529 13.721L12.8539 13.6823C12.8789 12.7565 12.9038 11.8431 12.9474 10.8924C13.0346 8.96 14.5107 6.81631 16.535 5.68544Z" fill="#231F20"/>
<path d="M48.2075 49.8827C47.9459 48.8513 47.6656 47.8322 47.3542 46.8194C46.532 44.1041 45.5542 40.1647 43.6171 38.0085C40.4592 34.5165 33.3525 34.4047 29.0361 34.3798C22.3529 34.3425 15.5203 35.9084 10.0578 39.7421C1.64935 45.6451 0.0922169 54.2136 1.05764 63.7701C2.16631 74.4575 3.54904 85.12 5.05012 95.7639C5.1996 96.8575 6.99964 113.118 7.80935 113.125C7.86541 113.125 63.2431 113.168 61.4742 114.473C58.9828 105.842 57.1143 97.075 55.1087 88.3759C54.6852 86.5118 53.9315 84.8218 53.4706 83.0074C52.8041 80.3852 53.1093 77.5083 52.8477 74.8241C52.3059 68.6105 50.9792 62.4963 49.6837 56.407C49.229 54.2198 48.7556 52.0388 48.2075 49.8827Z" fill="#E7816B"/>
<path d="M63.9031 127.167L57.5563 99.3802L6.2956 103.593L5.6416 127.167H63.9031V127.167Z" fill="#231F20"/>
<path fill-rule="evenodd" clip-rule="evenodd" d="M5.64152 127.478H63.9031C63.9865 127.468 64.0627 127.426 64.1148 127.36C64.1725 127.286 64.1953 127.191 64.1771 127.099L57.8303 99.3117C57.7899 99.1643 57.6532 99.0639 57.5002 99.0693L6.23946 103.282C6.08095 103.298 5.95843 103.428 5.95294 103.587L5.33009 127.161C5.32929 127.244 5.36051 127.324 5.41729 127.385C5.47671 127.444 5.55735 127.478 5.64152 127.478ZM63.5229 126.857H5.97764L6.58181 103.879L57.2944 99.7155L63.5229 126.857Z" fill="#231F20"/>
<path d="M33.4955 57.7864C33.6662 57.8561 33.8471 57.8981 34.0312 57.9107C35.1959 57.9977 36.1115 56.9165 36.5911 55.854C37.6624 53.4866 37.6624 50.7899 37.4755 48.2051C37.4398 46.6784 37.1121 45.1726 36.5101 43.7685C35.9374 42.6791 35.1689 41.704 34.2429 40.8917C32.5799 39.3569 30.5619 38.0707 28.3134 37.7849C26.0649 37.499 22.7762 38.7169 22.0849 41.1775C21.3624 43.8369 24.1652 46.515 25.523 48.4722C27.4831 51.3011 29.6261 53.9994 31.9384 56.5499C32.356 57.0752 32.8887 57.4982 33.4955 57.7864Z" fill="#231F20"/>
<path fill-rule="evenodd" clip-rule="evenodd" d="M34.0062 58.2214H34.1681C35.7315 58.2214 36.6284 56.5437 36.8713 55.9907C37.9987 53.5115 37.9675 50.6843 37.7869 48.1988C37.7466 46.6314 37.4084 45.0859 36.7903 43.6443C36.2037 42.5197 35.4115 41.5145 34.4546 40.6804C32.4428 38.8163 30.3874 37.7476 28.3507 37.5115C25.7472 37.2008 22.4959 38.5864 21.8045 41.134C21.1817 43.4082 22.9381 45.6513 24.3457 47.447C24.6945 47.8944 25.0184 48.3107 25.28 48.6897C27.2523 51.5162 29.4034 54.2143 31.7203 56.7674C32.168 57.3243 32.7367 57.7726 33.3833 58.0784C33.5839 58.1526 33.7933 58.2006 34.0062 58.2214ZM34.056 57.5938C33.9019 57.5823 33.7505 57.5467 33.6075 57.4882C33.0489 57.2097 32.5627 56.8056 32.1874 56.3076C29.8847 53.7708 27.75 51.087 25.797 48.2734C25.5332 47.9226 25.2253 47.5277 24.8992 47.1095C24.8788 47.0833 24.8583 47.057 24.8378 47.0307C23.5111 45.3468 21.8668 43.2404 22.4024 41.2645C23.0004 39.0586 25.9776 37.8284 28.2759 38.0955C30.1818 38.3192 32.1189 39.332 34.0311 41.1029C34.9316 41.8858 35.6773 42.83 36.2297 43.8866C36.8113 45.2653 37.1282 46.7407 37.164 48.2361C37.3384 50.6221 37.3695 53.3748 36.3045 55.7297C35.8747 56.6742 35.0339 57.6808 34.056 57.5938Z" fill="#231F20"/>
<rect x="60.3906" y="8.27029" width="87.5605" height="93.2536" fill="white"/>
<path fill-rule="evenodd" clip-rule="evenodd" d="M60.3905 101.828H147.945C148.117 101.828 148.256 101.689 148.256 101.518V8.27029C148.256 8.09871 148.117 7.95961 147.945 7.95961H60.3905C60.2185 7.95961 60.0791 8.09871 60.0791 8.27029V101.518C60.0791 101.689 60.2185 101.828 60.3905 101.828ZM147.633 101.207H60.7017V8.58097H147.633V101.207Z" fill="#231F20"/>
<rect x="66.0396" y="15.4408" width="76.2495" height="68.4551" fill="white"/>
<path fill-rule="evenodd" clip-rule="evenodd" d="M66.0395 84.2066H142.295C142.38 84.2067 142.461 84.1722 142.52 84.1113C142.579 84.0503 142.61 83.968 142.607 83.8835V15.4408C142.607 15.2692 142.467 15.1301 142.295 15.1301H66.0395C65.8675 15.1301 65.728 15.2692 65.728 15.4408V83.8959C65.728 84.0675 65.8675 84.2066 66.0395 84.2066ZM141.984 83.5852H66.3508V15.7515H141.984V83.5852Z" fill="#D1D3D4"/>
<path d="M133.762 39.3507C132.666 40.5561 131.62 41.8361 130.474 42.9608C127.478 46.0054 124.438 49.0066 121.418 52.0264C121.312 52.132 121.231 52.275 121.106 52.3309C120.564 52.567 119.86 53.0889 119.499 52.9087C119.005 52.527 118.704 51.9474 118.677 51.3243C118.59 48.9942 118.646 46.6641 118.646 44.1724C117.662 44.1724 116.734 44.1351 115.806 44.1724C112.299 44.3402 108.923 45.0361 105.871 46.8567C102.1 48.9438 99.7144 52.8639 99.5991 57.1651C99.6313 58.3237 99.8177 59.4729 100.153 60.5825C100.284 61.1666 100.614 61.8252 99.8794 62.0551C99.3264 62.0573 98.8111 61.7756 98.5153 61.3095C97.5674 59.4316 96.808 57.4647 96.2481 55.4377C94.1491 45.9682 99.3624 37.2878 108.786 34.3115C111.502 33.4451 114.337 33.0028 117.188 33.0004H118.64C118.64 31.1798 118.64 29.4462 118.64 27.7126C118.621 26.8808 118.677 26.049 118.808 25.2272C118.995 24.2827 119.593 24.059 120.433 24.5251C120.774 24.7377 121.084 24.9947 121.355 25.2893C125.155 29.0796 128.95 32.8761 132.741 36.6788C133.114 37.1144 133.453 37.5776 133.756 38.0645L133.762 39.3507Z" fill="#E7816B"/>
<path d="M86.3446 73.5068C84.2121 73.1016 82.2715 72.0103 80.8199 70.4C79.4277 68.7958 78.6644 66.7432 78.6711 64.6214C78.6711 56.3759 78.6212 48.1367 78.6711 39.8913C78.6594 37.5465 79.5883 35.2946 81.2509 33.6372C82.9134 31.9798 85.1715 31.0547 87.5218 31.068C89.0602 31.0307 90.5925 31.0307 92.1309 31.068C93.3766 31.068 94.1614 31.8074 94.1489 32.8885C94.1365 33.9697 93.3704 34.5849 92.1558 34.5973C90.6547 34.5973 89.1599 34.5973 87.6588 34.5973C86.2138 34.5513 84.8129 35.0969 83.7812 36.1073C82.7495 37.1177 82.177 38.5051 82.1964 39.9472C82.1715 48.232 82.1715 56.5168 82.1964 64.8016C82.1963 66.2066 82.76 67.5531 83.7617 68.5407C84.7634 69.5284 86.1197 70.0749 87.528 70.0583C95.7185 70.0583 109.839 70.0583 118.048 70.0583C119.512 70.1229 120.937 69.576 121.981 68.5491C123.025 67.5221 123.592 66.1079 123.548 64.6462C123.591 62.0551 123.548 59.4641 123.548 56.873C123.548 55.6303 124.083 54.9717 125.098 54.835C125.946 54.7169 126.967 55.301 126.967 56.146C126.967 59.607 127.222 63.1052 126.805 66.5165C126.344 70.2447 123.442 72.7301 119.698 73.4322C119.559 73.4722 119.424 73.5242 119.293 73.5876L86.3446 73.5068Z" fill="#E7816B"/>
<path d="M141.729 90.7992H77.1576C76.9856 90.7992 76.8462 90.6601 76.8462 90.4885C76.8462 90.317 76.9856 90.1779 77.1576 90.1779H141.729C141.901 90.1779 142.04 90.317 142.04 90.4885C142.04 90.6601 141.901 90.7992 141.729 90.7992Z" fill="#D1D3D4"/>
<path d="M125.678 95.6396H77.1576C76.9856 95.6396 76.8462 95.5005 76.8462 95.3289C76.8462 95.1573 76.9856 95.0182 77.1576 95.0182H125.678C125.85 95.0182 125.989 95.1573 125.989 95.3289C125.986 95.4991 125.848 95.6363 125.678 95.6396Z" fill="#D1D3D4"/>
<ellipse cx="69.6335" cy="91.7437" rx="3.58763" ry="3.57903" fill="white"/>
<path fill-rule="evenodd" clip-rule="evenodd" d="M66.0209 93.2389C66.6273 94.6945 68.0532 95.6421 69.6333 95.6396C71.7877 95.6362 73.5324 93.8929 73.5324 91.7437C73.5324 90.1674 72.5802 88.7464 71.1201 88.1437C69.66 87.5411 67.9798 87.8755 66.8634 88.9911C65.747 90.1066 65.4144 91.7833 66.0209 93.2389ZM66.5956 90.4939C67.1053 89.2697 68.3045 88.4728 69.6332 88.4753C71.4412 88.4788 72.906 89.94 72.9094 91.7437C72.912 93.0692 72.1131 94.2656 70.886 94.774C69.6589 95.2824 68.2456 95.0027 67.306 94.0654C66.3664 93.128 66.086 91.7181 66.5956 90.4939Z" fill="#D1D3D4"/>
<path d="M39.9921 14.2167C39.9921 14.2167 43.1063 21.4555 42.2032 27.1658C41.758 30.4188 39.4262 33.101 36.2612 34.0008L36.884 43.9736C36.884 43.9736 37.264 49.0687 30.9483 48.6897C27.2302 48.4564 23.8959 46.3258 22.1287 43.054L20.2539 24.7798C20.2539 24.7798 27.1053 20.2439 26.0402 13.701C26.0402 13.701 34.7414 17.2241 39.9921 14.2167Z" fill="white"/>
<path fill-rule="evenodd" clip-rule="evenodd" d="M30.9606 49.0315H31.6333C33.4894 49.0315 34.922 48.5344 35.8936 47.5713C36.7933 46.6008 37.2684 45.3129 37.2141 43.9922L36.5912 34.268C39.7486 33.2473 42.0457 30.5191 42.5083 27.2404C43.4426 21.5052 40.3968 14.4155 40.266 14.1173C40.2323 14.0348 40.164 13.9712 40.0792 13.9433C39.9975 13.9091 39.9055 13.9091 39.8238 13.9433C35.1459 16.6339 27.4639 13.8809 26.3059 13.4659C26.215 13.4333 26.1643 13.4151 26.1584 13.4151C26.0544 13.3725 25.9353 13.3891 25.847 13.4586C25.7586 13.5279 25.7155 13.6402 25.7349 13.7507C26.7315 20.014 20.1479 24.4753 20.0794 24.5188C19.9838 24.584 19.9313 24.6959 19.9424 24.8109L21.8483 43.1161C21.852 43.153 21.8626 43.1888 21.8795 43.2218C23.7122 46.5794 27.1372 48.7706 30.9606 49.0315ZM30.9978 48.3915C27.4157 48.1531 24.2009 46.1142 22.4647 42.9794L20.6149 24.9538C21.6114 24.233 27.024 20.0264 26.4447 14.1981C28.3444 14.894 35.2083 17.0812 39.8547 14.6765C40.434 16.1243 42.7199 22.2509 41.9288 27.141C41.5194 30.2802 39.2761 32.8749 36.2235 33.7398C36.0738 33.7732 35.9708 33.9102 35.9806 34.0629L36.6035 44.0047C36.6405 45.1506 36.2269 46.2655 35.4512 47.1115C34.4982 48.0808 32.9971 48.5095 30.9978 48.3915Z" fill="#231F20"/>
<path d="M23.63 23.2637C23.63 23.2637 20.061 16.5406 16.8969 21.1262C13.7329 25.7118 19.0894 30.1732 22.1476 29.5581" fill="white"/>
<path d="M21.537 29.9371C19.7868 29.9371 17.694 28.6944 16.5542 26.9359C15.2866 25.1297 15.3345 22.7133 16.6725 20.9585C17.5134 19.7157 18.4726 19.1565 19.5252 19.2249C21.9356 19.3678 23.8851 22.953 23.935 23.1208C23.991 23.2679 23.9279 23.4335 23.7881 23.5064C23.6483 23.5793 23.476 23.5365 23.3869 23.4066C23.3869 23.4066 21.5183 19.9705 19.438 19.8462C18.6075 19.7965 17.8414 20.2853 17.1397 21.3126C15.9571 22.8622 15.9118 24.996 17.0275 26.5942C18.2047 28.3837 20.4719 29.5829 22.0726 29.2598C22.2425 29.2293 22.4056 29.3397 22.4401 29.5084C22.4566 29.5884 22.4401 29.6716 22.3944 29.7394C22.3487 29.8071 22.2777 29.8537 22.1972 29.8687C21.9799 29.9128 21.7588 29.9357 21.537 29.9371Z" fill="#231F20"/>
<path d="M37.3762 27.1223C36.8683 27.1218 36.3616 27.074 35.8627 26.9794C35.7813 26.966 35.7092 26.9198 35.6632 26.8516C35.6172 26.7833 35.6015 26.6992 35.6197 26.619C35.6348 26.5371 35.6822 26.4647 35.7513 26.418C35.8204 26.3712 35.9054 26.3541 35.9872 26.3705C35.9872 26.3705 38.0053 26.7619 38.9582 26.1841C39.0953 25.4074 37.1769 22.8039 35.7817 21.2132C35.727 21.1518 35.6995 21.0711 35.7053 20.9892C35.7112 20.9073 35.7499 20.8312 35.8128 20.7782C35.936 20.6591 36.1318 20.6591 36.2551 20.7782C36.8779 21.4617 39.7991 24.9538 39.5935 26.2338C39.5649 26.4343 39.4485 26.6118 39.2759 26.7184C38.6884 27.015 38.0338 27.1542 37.3762 27.1223Z" fill="#231F20"/>
<path d="M36.2552 34.0132C36.2552 34.0132 30.9609 35.0322 27.8467 34.4544C27.8467 34.4544 31.7021 42.0847 36.7784 41.7118L36.2552 34.0132Z" fill="#231F20"/>
<path fill-rule="evenodd" clip-rule="evenodd" d="M27.5724 34.5849C27.697 34.9017 31.3967 42.0412 36.4169 42.0412C36.5498 42.0412 36.6806 42.0453 36.8093 42.0536C36.979 42.0403 37.1065 41.8937 37.0958 41.7243L36.5726 34.0256C36.5653 33.9381 36.5226 33.8574 36.4543 33.8019C36.383 33.7485 36.2932 33.7261 36.2051 33.7398C36.1491 33.7522 30.9296 34.7402 27.9087 34.1748C27.7906 34.1314 27.6578 34.1632 27.5724 34.2555C27.5078 34.3558 27.5078 34.4846 27.5724 34.5849ZM36.423 41.4198C32.5177 41.4198 29.4035 36.5111 28.4256 34.852C31.1225 35.1689 34.8285 34.5849 35.9434 34.386L36.423 41.4198Z" fill="#231F20"/>
<ellipse cx="0.784766" cy="1.37325" rx="0.784766" ry="1.37325" transform="matrix(0.992875 -0.119165 0.119376 0.992849 31.8223 18.7594)" fill="#231F20"/>
<ellipse cx="0.784766" cy="1.37325" rx="0.784766" ry="1.37325" transform="matrix(0.992875 -0.119165 0.119376 0.992849 38.6514 18.5136)" fill="#231F20"/>
<path d="M34.2243 30.1111C33.7711 30.1079 33.3235 30.0105 32.9101 29.8252C31.3903 29.1666 30.4187 27.3398 30.0138 24.3511C29.9897 24.1795 30.1096 24.0209 30.2816 23.9969C30.4536 23.9729 30.6126 24.0925 30.6367 24.2641C31.0104 27.0043 31.8824 28.6819 33.1654 29.2349C34.7413 29.9309 36.5164 28.7192 36.5351 28.7068C36.6261 28.6364 36.7485 28.6219 36.8536 28.669C36.9586 28.7161 37.029 28.8171 37.0366 28.9317C37.0443 29.0463 36.9879 29.1557 36.8901 29.2163C36.1015 29.7546 35.1787 30.0643 34.2243 30.1111Z" fill="#231F20"/>
<path d="M117.904 101.841C117.801 101.153 117.735 100.46 117.705 99.7654C117.658 98.3216 117.884 96.8819 118.372 95.5215C118.521 94.9162 118.853 94.3715 119.324 93.9619C119.829 93.5671 120.551 93.6182 120.994 94.08C121.236 94.5782 121.259 95.1551 121.056 95.6707C120.731 97.1138 120.658 98.6019 120.838 100.07C121.075 98.094 121.336 96.0435 122.414 94.3782C122.638 93.9884 122.957 93.6613 123.342 93.4276C123.735 93.1934 124.225 93.1934 124.619 93.4276C125.173 93.8314 125.129 94.6703 125.061 95.3289C124.886 97.0681 124.913 98.8216 125.142 100.555C125.018 99.0305 125.129 97.4965 125.472 96.0062C125.696 95.0307 126.138 93.9557 127.091 93.645C127.292 93.5754 127.507 93.5625 127.714 93.6078C128.15 93.7554 128.468 94.1305 128.543 94.5833C128.614 95.0278 128.614 95.4809 128.543 95.9254C128.363 97.675 128.417 99.4407 128.705 101.176C128.48 99.6541 128.537 98.1041 128.873 96.6027C128.961 96.0016 129.201 95.4327 129.57 94.9499C129.956 94.4591 130.612 94.2669 131.202 94.4714C131.624 94.6945 131.916 95.1014 131.993 95.5713C132.066 96.0357 132.083 96.5071 132.043 96.9755C132 98.747 132.329 100.508 133.009 102.145C133.569 103.506 134.298 105.016 134.167 106.538C133.933 108.152 132.827 109.507 131.289 110.061C129.77 110.586 128.131 110.664 126.568 110.285C121.417 109.266 117.163 106.818 115.357 101.903" fill="white"/>
<path d="M128.748 110.857C128.001 110.853 127.256 110.776 126.524 110.627C120.595 109.452 116.739 106.563 115.058 102.04C114.996 101.868 115.085 101.679 115.257 101.617C115.429 101.555 115.619 101.644 115.681 101.816C117.275 106.116 120.975 108.868 126.668 109.993C128.169 110.363 129.746 110.292 131.208 109.788C132.63 109.277 133.656 108.029 133.88 106.538C133.992 105.252 133.451 103.966 132.927 102.729L132.747 102.288C132.054 100.608 131.717 98.8039 131.756 96.988V96.7705C131.789 96.4015 131.774 96.0298 131.713 95.6645C131.649 95.2934 131.42 94.9712 131.09 94.7883C130.634 94.6542 130.141 94.809 129.844 95.1798C129.512 95.6248 129.298 96.1463 129.221 96.6959C128.889 98.1577 128.832 99.6685 129.053 101.151C129.079 101.326 128.96 101.489 128.785 101.518C128.626 101.538 128.476 101.437 128.437 101.282C128.143 99.5177 128.089 97.7224 128.275 95.9441V95.8384C128.334 95.4617 128.334 95.0781 128.275 94.7014C128.219 94.3608 127.979 94.0787 127.652 93.9681C127.496 93.9361 127.335 93.9469 127.185 93.9992C126.531 94.2105 126.057 94.9313 125.777 96.1243C125.441 97.582 125.334 99.0828 125.459 100.573C125.438 100.719 125.321 100.831 125.174 100.847C125.028 100.863 124.889 100.779 124.837 100.642C124.604 98.8839 124.577 97.1053 124.756 95.3414C124.818 94.72 124.849 94.0365 124.444 93.7382C124.156 93.5678 123.798 93.5678 123.51 93.7382C123.171 93.942 122.89 94.2286 122.694 94.5709C121.635 96.2113 121.392 98.299 121.174 100.163C121.153 100.322 121.017 100.441 120.856 100.443V100.443C120.696 100.441 120.56 100.322 120.539 100.163C120.352 98.6601 120.426 97.1363 120.757 95.6582C120.937 95.2332 120.937 94.7536 120.757 94.3285C120.654 94.1898 120.499 94.0998 120.327 94.08C120.05 94.0395 119.769 94.1087 119.542 94.2726C119.125 94.6441 118.831 95.1342 118.701 95.6769C118.221 96.9956 117.999 98.3942 118.047 99.7965C118.047 100.014 118.079 100.207 118.091 100.387C118.113 100.876 118.165 101.364 118.247 101.847C118.239 101.998 118.127 102.123 117.978 102.148C117.828 102.173 117.682 102.092 117.624 101.953C117.539 101.449 117.485 100.941 117.462 100.43C117.462 100.25 117.462 100.057 117.418 99.8462C117.366 98.366 117.599 96.8896 118.103 95.4967C118.272 94.8272 118.644 94.226 119.169 93.7755C119.529 93.5177 119.975 93.4066 120.414 93.4648C120.755 93.5125 121.062 93.6936 121.268 93.9681C121.577 94.5428 121.62 95.2233 121.386 95.8322C121.383 95.8653 121.383 95.8986 121.386 95.9316C121.587 95.361 121.853 94.8149 122.177 94.3037C122.432 93.8683 122.795 93.5048 123.23 93.2474C123.732 92.9538 124.357 92.9707 124.843 93.2909C125.466 93.7631 125.466 94.633 125.466 95.2357C125.689 94.4306 126.277 93.7757 127.054 93.4648C127.318 93.3711 127.604 93.356 127.876 93.4214C128.44 93.5999 128.855 94.0809 128.947 94.6641C129.004 94.9482 129.021 95.239 128.997 95.5278C129.105 95.3029 129.243 95.0938 129.408 94.9064C129.883 94.3039 130.695 94.0776 131.414 94.3472C131.925 94.6148 132.284 95.1034 132.385 95.6707C132.459 96.0806 132.482 96.4979 132.454 96.9134V97.1309C132.42 98.857 132.74 100.572 133.394 102.17L133.575 102.605C134.105 103.848 134.702 105.271 134.578 106.718C134.343 108.456 133.156 109.918 131.501 110.509C130.615 110.803 129.68 110.921 128.748 110.857Z" fill="#231F20"/>
<path d="M183.067 67.1441L182.121 81.3981C182.121 81.3981 152.847 58.4078 147.945 57.4198V61.44C147.945 61.44 139.804 60.4458 139.156 62.0614C138.509 63.6769 139.611 69.8159 141.729 71.0586C142.975 71.8105 153.494 71.8726 153.494 71.8726C153.494 71.8726 154.983 75.5138 169.496 88.8544C184.008 102.195 197.661 109.328 198.514 96.8326C199.368 84.3371 200.451 63.2792 200.451 63.2792" fill="white"/>
<path d="M193.145 103.612C187.994 103.612 179.511 98.4792 169.277 89.0718C156.515 77.3344 153.793 73.0905 153.295 72.1771C151.557 72.1771 142.812 72.0528 141.567 71.3196C139.237 69.9464 138.16 63.6582 138.857 61.9247C139.555 60.1911 145.659 60.8311 147.627 61.0485V57.3887C147.628 57.2926 147.671 57.2018 147.745 57.1402C147.821 57.0809 147.918 57.0561 148.013 57.0718C152.641 58.0039 177.91 77.6513 181.84 80.7394L182.743 67.1068C182.716 66.9731 182.776 66.8367 182.893 66.7662C183.01 66.6956 183.159 66.706 183.265 66.7921C183.371 66.8783 183.412 67.0216 183.366 67.1503L182.444 81.3981C182.438 81.5172 182.363 81.6216 182.251 81.6652C182.143 81.7158 182.015 81.7014 181.921 81.628C181.641 81.4043 154.03 59.7499 148.287 57.8175V61.4151C148.288 61.5073 148.25 61.5955 148.181 61.6575C148.112 61.7206 148.019 61.7502 147.926 61.7382C144.65 61.3344 139.829 61.2039 139.474 62.167C138.882 63.6396 139.96 69.6233 141.909 70.7728C142.787 71.2885 149.327 71.5122 153.513 71.5433C153.644 71.5416 153.763 71.6206 153.812 71.7421C153.812 71.7732 155.537 75.5511 169.732 88.6058C181.379 99.2994 190.598 104.388 195.082 102.642C196.951 101.903 197.991 99.9332 198.196 96.7953C199.037 84.4489 200.121 63.447 200.133 63.2419C200.137 63.1567 200.174 63.0764 200.237 63.0191C200.301 62.9618 200.384 62.9324 200.47 62.9375C200.555 62.9407 200.636 62.9781 200.693 63.0412C200.75 63.1043 200.78 63.1879 200.775 63.273C200.775 63.4843 199.679 84.4924 198.838 96.8264C198.601 100.231 197.418 102.419 195.306 103.22C194.618 103.488 193.884 103.621 193.145 103.612V103.612Z" fill="#231F20"/>
<path d="M182.121 81.367L189.14 86.5864Z" fill="white"/>
<path d="M189.14 86.9095C189.071 86.906 189.004 86.8846 188.946 86.8474L181.927 81.628C181.787 81.5182 181.759 81.3176 181.865 81.1744C181.972 81.0356 182.172 81.008 182.313 81.1122L189.333 86.3317C189.441 86.4158 189.484 86.5588 189.441 86.6886C189.397 86.8185 189.277 86.907 189.14 86.9095V86.9095Z" fill="#231F20"/>
<path d="M19.7741 55.6365C19.7741 55.6365 31.7826 77.8812 32.1065 78.7511C32.2186 79.0431 56.8524 65.8827 57.7555 64.087C57.4596 62.071 57.6584 60.0134 58.3348 58.0909C58.7334 57.0408 59.4684 56.9103 60.3404 56.1709C60.2282 57.483 60.2032 58.8011 60.2656 60.1165C61.9187 58.3731 63.7054 56.761 65.6097 55.2948C66.0122 54.8701 66.6033 54.6782 67.1793 54.7852C67.4376 54.9151 67.6536 55.1155 67.8021 55.3631C70.3558 58.9484 68.2257 63.2544 66.3945 66.6097C62.9439 72.9227 57.7742 76.8435 52.2807 81.2551C48.6224 84.1723 44.8159 86.8996 40.8763 89.426C37.8257 91.4847 34.5821 93.2431 31.1909 94.6765C29.1604 95.4843 26.3576 96.5406 24.2025 95.534C16.3857 91.9177 7.4229 73.4384 4.9751 65.3049" fill="white"/>
<path d="M26.2392 96.2548C25.5013 96.2658 24.7699 96.1152 24.0966 95.8136C19.6681 93.7693 15.2521 87.3196 12.3309 82.268C9.21027 76.9236 6.65529 71.2698 4.70723 65.3981C4.6789 65.2429 4.77152 65.0912 4.92269 65.0452C5.07385 64.9992 5.23561 65.0734 5.29894 65.2179C7.79035 73.5814 16.8217 91.7685 24.3582 95.2544C26.314 96.1553 28.8676 95.2544 31.1037 94.3907C34.4724 92.9616 37.695 91.2117 40.7267 89.165C44.6596 86.6442 48.4599 83.9232 52.1125 81.0128L53.0592 80.2485C58.1354 76.1911 62.9252 72.3573 66.1391 66.4606C68.0762 62.9188 69.9385 58.8676 67.5654 55.5433C67.446 55.3425 67.2708 55.1806 67.0609 55.0773C66.6685 54.9219 66.1765 55.245 65.8152 55.5371C63.9277 56.9981 62.1537 58.5996 60.5085 60.3278C60.4242 60.4161 60.2959 60.447 60.1804 60.4068C60.065 60.3666 59.9838 60.2628 59.9729 60.1414C59.923 59.5697 59.9293 57.9045 59.9729 56.8357L59.7549 56.9849C59.2417 57.2488 58.843 57.6908 58.6337 58.2276C57.9821 60.0976 57.7878 62.0958 58.0669 64.0559C58.0883 64.1184 58.0883 64.1861 58.0669 64.2485C57.5437 65.2924 50.6737 69.2567 44.987 72.3946C41.7482 74.1903 32.7106 79.0928 32.1189 79.0928V79.0928C31.9923 79.0839 31.8815 79.0046 31.8324 78.8878C31.5833 78.2167 23.6668 63.4967 19.5186 55.8105C19.4361 55.6595 19.4919 55.4703 19.6432 55.388C19.7946 55.3056 19.9842 55.3612 20.0668 55.5122C20.5339 56.3821 31.0103 75.7996 32.2933 78.4031C35.009 77.3219 56.0987 65.7522 57.4316 64C57.1507 61.9681 57.3644 59.8987 58.0545 57.9666C58.3137 57.3173 58.7947 56.7803 59.4123 56.4505C59.6697 56.2871 59.9172 56.1086 60.1535 55.9161C60.2522 55.8305 60.3941 55.8156 60.5085 55.8788C60.62 55.9432 60.6815 56.0684 60.6642 56.1957C60.5704 57.2451 60.5351 58.2989 60.5583 59.3522C62.0794 57.7921 63.7069 56.3387 65.429 55.0027C65.9398 54.6113 66.6187 54.1887 67.2976 54.4497C67.622 54.5994 67.8965 54.8388 68.0886 55.1394C70.879 59.054 68.263 63.8384 66.6997 66.7153C63.4235 72.7177 58.6026 76.5887 53.4578 80.6897L52.5049 81.454C48.8405 84.3803 45.0255 87.1138 41.0755 89.6435C38.0085 91.7126 34.7483 93.4814 31.3404 94.925C29.7352 95.6741 28.0065 96.1247 26.2392 96.2548Z" fill="#231F20"/>
<path d="M19.7743 55.9223C19.6637 55.9217 19.5618 55.8625 19.5065 55.767L13.4773 45.5084C13.3895 45.3591 13.4397 45.1671 13.5894 45.0796C13.739 44.9921 13.9314 45.0422 14.0191 45.1915L20.0608 55.4812C20.1034 55.5517 20.1155 55.6365 20.0943 55.7161C20.0732 55.7957 20.0207 55.8634 19.9487 55.9037C19.894 55.9284 19.8329 55.9349 19.7743 55.9223V55.9223Z" fill="#231F20"/>
<path d="M183.067 67.4672V67.4672C182.983 67.4593 182.905 67.4182 182.851 67.3528C182.797 67.2875 182.772 67.2034 182.78 67.1192L184.107 52.6975C184.127 52.5238 184.281 52.3971 184.456 52.4117C184.542 52.4162 184.623 52.4562 184.678 52.5222C184.734 52.5881 184.759 52.6741 184.749 52.7596L183.416 67.1752C183.409 67.2605 183.369 67.3396 183.303 67.3946C183.238 67.4496 183.152 67.4758 183.067 67.4672Z" fill="#231F20"/>
</svg>
