<svg width="404" height="54" viewBox="0 0 404 54" fill="none" xmlns="http://www.w3.org/2000/svg">
<g id="Group 13">
<path id="DESIGNO" d="M85.4 42V2.4H96.272C99.088 2.4 101.704 2.904 104.12 3.912C106.536 4.92 108.648 6.328 110.456 8.136C112.28 9.944 113.696 12.048 114.704 14.448C115.728 16.848 116.24 19.44 116.24 22.224C116.24 25.024 115.736 27.624 114.728 30.024C113.72 32.408 112.304 34.504 110.48 36.312C108.672 38.104 106.552 39.504 104.12 40.512C101.704 41.504 99.088 42 96.272 42H85.4ZM93.176 35.04H95.408C97.2 35.04 98.856 34.72 100.376 34.08C101.896 33.44 103.216 32.544 104.336 31.392C105.456 30.24 106.328 28.888 106.952 27.336C107.576 25.768 107.888 24.056 107.888 22.2C107.888 20.36 107.576 18.664 106.952 17.112C106.328 15.544 105.456 14.184 104.336 13.032C103.216 11.864 101.896 10.96 100.376 10.32C98.856 9.68 97.2 9.36 95.408 9.36H93.176V35.04ZM134.072 42V2.4H156.104V9.216H141.848V18.744H155.528V25.56H141.848V35.184H156.104V42H134.072ZM185.939 42.768C184.099 42.768 182.403 42.56 180.851 42.144C179.299 41.744 177.907 41.24 176.675 40.632C175.459 40.008 174.411 39.368 173.531 38.712C172.651 38.056 171.955 37.48 171.443 36.984L175.427 30.552C175.955 31.016 176.587 31.536 177.323 32.112C178.059 32.688 178.883 33.24 179.795 33.768C180.707 34.28 181.691 34.712 182.747 35.064C183.819 35.4 184.955 35.568 186.155 35.568C187.275 35.568 188.259 35.392 189.107 35.04C189.971 34.688 190.651 34.168 191.147 33.48C191.643 32.776 191.891 31.904 191.891 30.864C191.891 29.92 191.691 29.12 191.291 28.464C190.891 27.792 190.299 27.192 189.515 26.664C188.747 26.12 187.795 25.592 186.659 25.08C185.539 24.552 184.259 23.976 182.819 23.352C181.747 22.872 180.723 22.328 179.747 21.72C178.787 21.096 177.931 20.376 177.179 19.56C176.427 18.744 175.827 17.824 175.379 16.8C174.947 15.76 174.731 14.6 174.731 13.32C174.731 11.8 175.035 10.344 175.643 8.952C176.251 7.56 177.115 6.32 178.235 5.232C179.371 4.144 180.715 3.28 182.267 2.64C183.835 2 185.579 1.68 187.499 1.68C188.939 1.68 190.379 1.872 191.819 2.256C193.259 2.64 194.603 3.144 195.851 3.768C197.099 4.392 198.155 5.072 199.019 5.808L195.779 11.904C195.091 11.312 194.307 10.784 193.427 10.32C192.563 9.84 191.635 9.456 190.643 9.168C189.667 8.88 188.675 8.736 187.667 8.736C186.531 8.736 185.563 8.936 184.763 9.336C183.979 9.736 183.371 10.272 182.939 10.944C182.523 11.6 182.315 12.336 182.315 13.152C182.315 13.824 182.451 14.4 182.723 14.88C183.011 15.344 183.411 15.752 183.923 16.104C184.435 16.44 185.051 16.768 185.771 17.088C186.491 17.392 187.283 17.72 188.147 18.072C190.003 18.856 191.683 19.632 193.187 20.4C194.691 21.168 195.979 22.024 197.051 22.968C198.123 23.896 198.939 24.984 199.499 26.232C200.075 27.48 200.363 28.968 200.363 30.696C200.363 33.224 199.755 35.392 198.539 37.2C197.339 39.008 195.659 40.392 193.499 41.352C191.339 42.296 188.819 42.768 185.939 42.768ZM218.338 42V2.4H226.114V42H218.338ZM263.507 42.768C260.787 42.768 258.251 42.248 255.899 41.208C253.547 40.168 251.491 38.72 249.731 36.864C247.971 34.992 246.595 32.808 245.603 30.312C244.611 27.816 244.115 25.112 244.115 22.2C244.115 19.416 244.579 16.792 245.507 14.328C246.435 11.848 247.771 9.664 249.515 7.776C251.259 5.872 253.363 4.384 255.827 3.312C258.291 2.224 261.051 1.68 264.107 1.68C265.835 1.68 267.571 1.872 269.315 2.256C271.075 2.64 272.763 3.208 274.379 3.96C275.995 4.696 277.451 5.6 278.747 6.672L275.099 12.696C273.707 11.4 272.019 10.4 270.035 9.696C268.067 8.976 266.123 8.616 264.203 8.616C262.315 8.616 260.643 8.952 259.187 9.624C257.747 10.28 256.531 11.208 255.539 12.408C254.547 13.608 253.795 15.016 253.283 16.632C252.771 18.232 252.515 19.976 252.515 21.864C252.515 23.928 252.803 25.8 253.379 27.48C253.955 29.16 254.755 30.608 255.779 31.824C256.819 33.04 258.027 33.976 259.403 34.632C260.795 35.288 262.291 35.616 263.891 35.616C265.171 35.616 266.403 35.408 267.587 34.992C268.787 34.56 269.851 33.96 270.779 33.192C271.707 32.424 272.443 31.52 272.987 30.48C273.531 29.44 273.803 28.304 273.803 27.072V26.472H263.411V20.448H281.723V26.448C281.723 28.864 281.219 31.072 280.211 33.072C279.219 35.056 277.859 36.776 276.131 38.232C274.403 39.672 272.451 40.792 270.275 41.592C268.099 42.376 265.843 42.768 263.507 42.768ZM299.556 42V2.4H307.332L324.396 29.04V2.4H332.172V42H324.396L307.332 15.36V42H299.556ZM370.051 42.768C367.283 42.768 364.691 42.24 362.275 41.184C359.859 40.128 357.739 38.664 355.915 36.792C354.091 34.904 352.659 32.72 351.619 30.24C350.595 27.744 350.083 25.072 350.083 22.224C350.083 19.376 350.595 16.712 351.619 14.232C352.659 11.736 354.091 9.552 355.915 7.68C357.739 5.792 359.859 4.32 362.275 3.264C364.691 2.208 367.283 1.68 370.051 1.68C372.819 1.68 375.411 2.208 377.827 3.264C380.243 4.32 382.363 5.792 384.187 7.68C386.011 9.552 387.435 11.736 388.459 14.232C389.499 16.712 390.019 19.376 390.019 22.224C390.019 25.072 389.499 27.744 388.459 30.24C387.435 32.72 386.011 34.904 384.187 36.792C382.363 38.664 380.243 40.128 377.827 41.184C375.411 42.24 372.819 42.768 370.051 42.768ZM370.027 35.28C371.723 35.28 373.275 34.96 374.682 34.32C376.091 33.68 377.315 32.776 378.355 31.608C379.395 30.44 380.203 29.064 380.779 27.48C381.355 25.88 381.643 24.128 381.643 22.224C381.643 20.32 381.355 18.576 380.779 16.992C380.203 15.392 379.395 14.008 378.355 12.84C377.315 11.672 376.091 10.768 374.682 10.128C373.275 9.488 371.723 9.168 370.027 9.168C368.363 9.168 366.819 9.488 365.395 10.128C363.987 10.768 362.763 11.672 361.723 12.84C360.683 14.008 359.875 15.392 359.299 16.992C358.739 18.576 358.459 20.32 358.459 22.224C358.459 24.128 358.739 25.88 359.299 27.48C359.875 29.064 360.683 30.44 361.723 31.608C362.763 32.776 363.987 33.68 365.395 34.32C366.819 34.96 368.363 35.28 370.027 35.28Z" fill="#333136"/>
<circle id="Oval" cx="12" cy="12" r="12" transform="matrix(0 -2 -2 0 48 48)" fill="url(#paint0_angular_0_8010)"/>
</g>
<defs>
<radialGradient id="paint0_angular_0_8010" cx="0" cy="0" r="1" gradientUnits="userSpaceOnUse" gradientTransform="translate(12 12) scale(12)">
<stop stop-color="#E7816B" stop-opacity="0.01"/>
<stop offset="0.999287" stop-color="#E7816B"/>
</radialGradient>
</defs>
</svg>
