<svg width="188" height="162" viewBox="0 0 188 162" fill="none" xmlns="http://www.w3.org/2000/svg">
<path d="M158.06 118.136C158.06 118.136 180.675 59.1712 168.959 50.1788C157.243 41.1864 108.106 44.8177 105.414 48.0303C102.722 51.2428 86.8716 122.221 86.8716 122.221L158.06 118.136Z" fill="#231F20"/>
<path fill-rule="evenodd" clip-rule="evenodd" d="M86.5759 122.461C86.6429 122.535 86.7375 122.577 86.8369 122.578L86.8575 122.591L158.08 118.473C158.216 118.467 158.335 118.381 158.382 118.253L158.386 118.244C158.554 117.804 164.159 103.154 168.237 87.6173C173.834 66.3925 174.15 53.7346 169.171 49.918C162.015 44.4333 142.038 44.0969 133.797 44.2068C119.76 44.3921 106.643 46.0464 105.153 47.8243C102.433 51.0643 87.1528 119.262 86.5073 122.166C86.4809 122.27 86.5065 122.38 86.5759 122.461ZM133.81 44.8726H136.392C152.359 44.8726 164.082 46.8839 168.731 50.4465C179.774 58.9103 159.247 113.956 157.798 117.793L87.2486 121.857C92.7701 97.2137 103.593 50.728 105.653 48.2499C106.855 46.8427 119.388 45.0648 133.81 44.8726Z" fill="#231F20"/>
<path d="M66.2348 67.1888L56.0435 101.38C56.0435 101.38 77.0649 104.092 77.0649 103.316C77.0649 102.541 81.1854 65.6924 81.1854 65.6924L66.2348 67.1888Z" fill="white"/>
<path fill-rule="evenodd" clip-rule="evenodd" d="M56.0021 101.703C62.382 102.541 72.4566 103.762 76.0071 103.762C76.4359 103.802 76.868 103.743 77.2708 103.591C77.3527 103.514 77.4018 103.408 77.4081 103.296C77.4081 102.602 80.107 78.4053 81.5286 65.7061C81.5431 65.6044 81.5073 65.502 81.4325 65.4315C81.3615 65.357 81.2603 65.3191 81.1578 65.3286L66.2003 66.825C66.0606 66.8393 65.9436 66.9371 65.905 67.0721L55.7137 101.264C55.687 101.361 55.7034 101.464 55.7586 101.549C55.8138 101.633 55.9025 101.689 56.0021 101.703ZM76.7075 103.097C75.1142 103.323 63.7691 102.026 56.4621 101.092L66.4749 67.5115L80.773 66.0768C80.7456 66.323 80.7078 66.6612 80.6611 67.0801C79.9247 73.679 76.9529 100.308 76.7075 103.097Z" fill="#231F20"/>
<path d="M46.9164 58.6975C47.0057 58.7936 50.6249 57.8258 52.4928 60.0704C54.3608 62.3151 51.9365 64.3195 46.0374 63.1594C40.1382 61.9993 46.9164 58.6975 46.9164 58.6975Z" fill="white"/>
<path fill-rule="evenodd" clip-rule="evenodd" d="M45.9689 63.5026C47.0156 63.7157 48.0804 63.8283 49.1485 63.839C51.1745 63.839 52.651 63.3173 53.221 62.4181C53.6605 61.663 53.5025 60.7637 52.7608 59.8851C51.1104 57.9082 48.2138 58.2601 47.2321 58.3793C47.2253 58.3802 47.2186 58.381 47.2119 58.3818H46.9853C46.914 58.3577 46.8368 58.3577 46.7655 58.3818C46.1474 58.6907 43.0845 60.2626 43.2837 61.814C43.3867 62.6171 44.2658 63.1663 45.9689 63.5026ZM43.9844 61.6904C43.8883 60.9285 45.6532 59.7203 46.9924 59.0339C47.0748 59.0339 47.1709 59.0339 47.3014 59.0064C48.256 58.8829 50.8038 58.5671 52.2186 60.2558C52.7016 60.6859 52.8588 61.3749 52.61 61.9719C52.1018 62.8299 50.0965 63.5575 46.1065 62.775C44.3415 62.4249 43.9844 61.9444 43.9844 61.6904Z" fill="#231F20"/>
<path d="M37.8446 51.5242C37.8446 51.5242 37.1029 50.6731 37.5699 50.0759C37.783 49.8299 38.1017 49.7017 38.4259 49.7317C38.7501 49.7616 39.0399 49.946 39.2043 50.2269C39.2043 50.2269 38.0369 50.6456 37.8446 51.5242Z" fill="white"/>
<path fill-rule="evenodd" clip-rule="evenodd" d="M37.5764 51.7576C37.645 51.8329 37.7424 51.8754 37.8443 51.8743L37.9335 51.8675C38.0622 51.8337 38.1607 51.73 38.1876 51.5997C38.3113 51.0437 39.0461 50.6593 39.3208 50.5632C39.4291 50.5241 39.5113 50.4343 39.5405 50.323C39.5742 50.2108 39.5483 50.0891 39.4719 50.0003C39.1945 49.6153 38.7515 49.3837 38.2769 49.3757C37.8914 49.3762 37.5283 49.5564 37.2949 49.8631C36.7798 50.5083 37.2331 51.3595 37.5764 51.7576ZM37.8578 50.2955C37.9627 50.1633 38.1214 50.0852 38.2901 50.0827L38.297 50.1102C38.3995 50.0955 38.504 50.1098 38.5989 50.1514C38.3156 50.3151 38.0645 50.5291 37.8578 50.7829C37.7785 50.6301 37.7785 50.4483 37.8578 50.2955Z" fill="#231F20"/>
<path d="M39.4652 50.1925C38.6251 50.2608 37.9366 50.8868 37.7896 51.7164L52.5203 70.875C52.7074 68.9855 54.1625 67.4686 56.0434 67.2025L39.4652 50.1925Z" fill="white"/>
<path fill-rule="evenodd" clip-rule="evenodd" d="M52.2386 71.0878C52.3042 71.1734 52.4055 71.224 52.5133 71.2251L52.6164 71.2114C52.7573 71.1716 52.8587 71.0484 52.8704 70.9025C53.0448 69.173 54.382 67.7881 56.105 67.5526C56.2344 67.5303 56.3405 67.4376 56.3797 67.3124C56.4234 67.1875 56.3913 67.0486 56.2973 66.9554L39.7192 49.9454C39.6527 49.8762 39.5611 49.8366 39.4651 49.8356C38.4691 49.9136 37.6453 50.6418 37.4461 51.6203C37.4176 51.7273 37.4405 51.8414 37.5079 51.9292L52.2386 71.0878ZM52.3349 70.0513L38.181 51.6478C38.33 51.0976 38.7762 50.6781 39.3347 50.5632L55.3497 66.9966C53.8818 67.4217 52.7402 68.5784 52.3349 70.0513Z" fill="#231F20"/>
<path d="M52.5207 70.875L57.5477 73.4835L58.1726 72.9L56.0437 67.2025C56.0437 67.2025 52.1292 66.8113 52.5207 70.875Z" fill="white"/>
<path fill-rule="evenodd" clip-rule="evenodd" d="M57.3824 73.7924C57.4328 73.8203 57.4896 73.8345 57.5472 73.8336C57.6355 73.8339 57.7209 73.8022 57.7876 73.7443L58.4125 73.1609C58.5186 73.0633 58.554 72.9107 58.5018 72.7764L56.3797 67.079C56.3326 66.9494 56.2149 66.8585 56.0776 66.8456C54.9772 66.754 53.8862 67.1076 53.049 67.8272C52.2961 68.6615 51.9694 69.7957 52.1631 70.9025C52.1741 71.0232 52.2468 71.1297 52.3554 71.1839L57.3824 73.7924ZM57.4856 73.051L52.857 70.6485C52.7344 69.8118 52.9855 68.9636 53.5437 68.3283C54.1735 67.8008 54.9749 67.5224 55.7962 67.5458L57.7603 72.8039L57.4856 73.051Z" fill="#231F20"/>
<path d="M57.5474 73.4835L58.5088 74.5131L58.9621 73.9983L58.1723 72.9L57.5474 73.4835V73.4835Z" fill="white"/>
<path fill-rule="evenodd" clip-rule="evenodd" d="M58.2544 74.7534C58.3176 74.8281 58.4107 74.8708 58.5085 74.8701H58.536C58.6371 74.8702 58.733 74.8248 58.7969 74.7465L59.2502 74.2317C59.3536 74.1035 59.3536 73.9206 59.2502 73.7924L58.4604 72.6941C58.4009 72.612 58.3092 72.5591 58.2083 72.5487C58.1074 72.5382 58.0068 72.5711 57.9316 72.6392L57.3067 73.2226C57.2371 73.2867 57.1953 73.3753 57.1899 73.4698C57.1894 73.5634 57.2236 73.6539 57.2861 73.7237L58.2544 74.7534ZM58.5012 73.9846L58.0483 73.4972L58.1101 73.4423L58.5012 73.9846Z" fill="#231F20"/>
<path d="M47.8501 72.3783C48.6604 70.7377 50.6932 67.2575 51.1602 65.7473C52.4513 61.6286 44.8902 57.7708 42.4454 57.7708C40.0005 57.7708 34.8911 66.3102 34.8911 70.875C34.8911 75.4398 51.8195 110.393 51.8195 110.393L68.0611 102.966L47.8501 72.3783Z" fill="white"/>
<path fill-rule="evenodd" clip-rule="evenodd" d="M51.5248 110.551C51.5829 110.673 51.7058 110.75 51.8407 110.75C51.9001 110.759 51.9608 110.747 52.0123 110.716L68.2608 103.275C68.3533 103.233 68.4233 103.153 68.4531 103.055C68.4793 102.955 68.4618 102.847 68.4051 102.76L48.2902 72.3508C48.4417 72.0679 48.6141 71.7409 48.8032 71.3821C48.9399 71.1229 49.0852 70.8471 49.2379 70.5592C50.1104 69.0468 50.8769 67.4757 51.5316 65.8571C51.8957 64.5365 51.5791 63.1215 50.6869 62.0817C48.7022 59.4183 44.3276 57.4139 42.4459 57.4139C39.7195 57.4139 34.5552 66.2896 34.5552 70.875C34.5552 75.3454 50.0314 107.453 51.4441 110.384C51.4805 110.459 51.5075 110.515 51.5248 110.551ZM35.2692 70.875C35.2692 66.3582 40.2962 58.1209 42.4457 58.1209C44.0253 58.1209 48.1938 59.9263 50.1099 62.5279C50.8634 63.3881 51.1389 64.5669 50.8447 65.6718C50.2032 67.247 49.4552 68.7767 48.6059 70.2503C48.1938 71.0191 47.8161 71.7262 47.5552 72.2479C47.4941 72.359 47.4941 72.4937 47.5552 72.6048L67.5602 102.808L52.0053 109.933L51.9589 109.837C50.0707 105.9 35.2692 75.0397 35.2692 70.875Z" fill="#231F20"/>
<path d="M134.264 79.2976L154.283 74.1974C153.596 73.2295 145.52 47.6047 137.004 43.4105C129.553 38.4681 111.883 35.1732 96.2731 36.2921C96.2731 36.2921 92.1526 36.1411 84.928 39.0036C67.3335 45.9915 63.9409 70.3259 63.9409 70.3259L77.6759 75.0692C77.6759 75.0692 75.0525 106.542 72.5734 122.996C72.5734 122.996 102.941 128.934 147.154 121.624C147.189 121.61 134.346 83.9517 134.264 79.2976Z" fill="#E7816B"/>
<path d="M132.616 44.1175C129.965 46.8633 127.898 50.1582 124.973 52.7461C118.668 58.32 110.421 62.7338 101.774 62.1984C91.583 61.5669 82.772 54.6064 80.5607 44.4676C79.1872 38.1112 80.6157 32.2078 85.5328 27.7185C88.9322 24.6158 93.2862 22.7212 97.7363 21.5405C109.555 18.376 122.816 20.0578 132.905 26.9909C134.553 28.005 135.945 29.3864 136.97 31.0271C139.491 35.592 136.593 40.2872 133.324 43.4242C133.104 43.637 132.87 43.8773 132.616 44.1175Z" fill="#E7816B"/>
<path d="M97.8456 51.3114C97.7426 51.3114 95.8471 53.6179 95.751 53.6522C96.8292 57.7159 97.9692 63.0084 102.57 63.5301C111.903 64.5941 113.318 52.1558 115.076 46.2867C108.614 48.0989 104.054 48.8265 97.8456 51.3114Z" fill="#231F20"/>
<path fill-rule="evenodd" clip-rule="evenodd" d="M102.536 63.8733C102.91 63.9161 103.286 63.939 103.663 63.9419C110.983 63.9351 113.16 55.231 114.582 49.3551C114.609 49.2476 114.636 49.1407 114.663 49.0346C114.907 48.0624 115.136 47.1481 115.372 46.3622C115.404 46.2434 115.373 46.1162 115.289 46.0258C115.202 45.9373 115.073 45.9031 114.953 45.9366C112.949 46.499 111.145 46.9517 109.395 47.3907L109.39 47.3919C105.418 48.3041 101.517 49.4993 97.7154 50.9682C97.6055 51.0163 97.5918 51.0231 96.5273 52.245C96.1633 52.6706 95.662 53.2541 95.5521 53.357C95.4354 53.4382 95.3808 53.5828 95.4148 53.7208L95.5933 54.4073L95.6045 54.4495C96.6533 58.4169 97.9583 63.3535 102.536 63.8733ZM96.2322 54.2357L96.1086 53.762H96.1292C96.2803 53.5973 96.5482 53.2952 97.0289 52.6775C97.386 52.2587 97.8667 51.7096 98.0041 51.5723C101.768 50.1163 105.633 48.937 109.569 48.044C109.873 47.9663 110.181 47.888 110.493 47.8088C111.779 47.4822 113.13 47.1388 114.562 46.7466C114.356 47.488 114.15 48.3117 113.937 49.1697L113.932 49.1872C112.367 55.4598 110.228 64.0304 102.592 63.1594C98.4734 62.7279 97.2883 58.2372 96.2393 54.2624L96.2322 54.2357Z" fill="#231F20"/>
<path d="M106.884 3.4322C105.51 3.37729 104.631 3.97449 103.45 4.40008C101.149 5.21008 100.078 3.28805 98.1 2.26525C91.6795 -1.07118 83.7959 0.580068 79.2556 6.21229C77.8853 7.8345 76.9978 9.80845 76.694 11.9097C76.4056 14.2848 77.0717 16.7148 76.6597 19.0625C76.1477 21.8034 74.2579 24.0868 71.6602 25.1031C73.8588 25.2728 76.0702 25.0638 78.198 24.4853C76.9606 25.9554 75.1477 26.8189 73.2259 26.8536C75.416 28.5368 78.107 29.4382 80.8695 29.414L76.0279 30.5466C80.1484 33.1894 85.1685 33.9788 90.0238 33.7592C99.6933 33.258 115.887 29.3042 115.605 16.7835C115.447 11.9853 112.81 3.70678 106.884 3.4322Z" fill="white"/>
<path fill-rule="evenodd" clip-rule="evenodd" d="M75.8147 30.8555C79.9214 33.4777 84.66 34.1642 88.3616 34.1642C88.9384 34.1642 89.4947 34.1504 90.0716 34.1092C92.9903 33.9582 100.462 33.2306 106.725 30.0936C112.988 26.9565 116.099 22.4741 115.976 16.7835C115.88 11.4155 112.899 3.35669 106.952 3.09585C106.012 3.08987 105.084 3.30876 104.246 3.73424C104.203 3.75198 104.16 3.76989 104.117 3.78789C103.876 3.8882 103.629 3.9912 103.367 4.08432C101.925 4.58542 101.046 3.91957 99.9333 3.07525C99.4125 2.65923 98.8565 2.28943 98.2714 1.97008C91.7077 -1.44609 83.6444 0.239951 79.0012 5.99949C77.59 7.6733 76.6764 9.70892 76.3641 11.8754C76.2567 13.017 76.2567 14.1661 76.3641 15.3076C76.5019 16.5448 76.488 17.7943 76.3228 19.0281C75.8314 21.656 74.0118 23.8411 71.5156 24.8011C71.3624 24.8554 71.2699 25.0114 71.2958 25.1718C71.3176 25.3301 71.4457 25.4525 71.6049 25.4669C73.4296 25.6108 75.2654 25.4952 77.0577 25.1237C75.9629 26.0123 74.6014 26.5078 73.1913 26.5309C73.0435 26.5309 72.9123 26.6255 72.8655 26.7656C72.8188 26.9058 72.867 27.0601 72.9852 27.1487C74.6343 28.4137 76.5674 29.2572 78.6166 29.6062L75.9245 30.2308C75.793 30.2663 75.6923 30.3723 75.6636 30.5054C75.6404 30.6417 75.6996 30.7789 75.8147 30.8555ZM89.9823 33.4777C86.4181 33.6493 81.3293 33.3061 76.8929 30.7319L80.931 29.7229C81.1017 29.6822 81.2143 29.5194 81.1919 29.3453C81.174 29.1704 81.0244 29.0388 80.8486 29.0433C78.4776 29.0666 76.1527 28.3883 74.1665 27.0938C75.8347 26.8279 77.3511 25.9701 78.4381 24.6775C78.5241 24.5562 78.5241 24.3938 78.4381 24.2725C78.3559 24.1447 78.1995 24.0861 78.0535 24.1284C76.4022 24.5818 74.6977 24.8126 72.9853 24.8148C75.0647 23.5772 76.5089 21.5031 76.9478 19.1242C77.1239 17.8362 77.1424 16.5315 77.0028 15.239C76.8998 14.1454 76.8998 13.0445 77.0028 11.9509C77.3073 9.92451 78.1705 8.02294 79.4957 6.45941C83.9308 0.949574 91.6416 -0.662581 97.9143 2.60847C98.4635 2.90733 98.9852 3.25419 99.4732 3.645C100.648 4.53737 101.76 5.38169 103.539 4.75703C103.823 4.66036 104.091 4.54773 104.353 4.43787C104.388 4.42292 104.424 4.40802 104.459 4.39322C105.207 4.0153 106.032 3.81559 106.87 3.80974C112.377 4.07746 115.117 11.745 115.234 16.8521C115.351 22.2613 112.37 26.5241 106.361 29.5307C100.146 32.6471 92.8392 33.3267 89.9823 33.4777Z" fill="#231F20"/>
<path d="M95.0645 41.8317L95.7512 53.6522C95.7512 53.6522 101.156 59.8302 108.113 56.0341C115.069 52.2381 114.802 46.218 114.802 46.218L110.235 24.0254C110.235 24.0254 103.924 22.5702 102.317 10.1456C96.9327 14.4065 90.4983 17.1361 83.6919 18.0465C83.6919 18.0465 83.8155 31.9469 86.2672 37.4728C88.7189 42.9986 95.0645 41.8317 95.0645 41.8317Z" fill="white"/>
<path fill-rule="evenodd" clip-rule="evenodd" d="M95.4905 53.8787C95.5317 53.9336 98.8212 57.6061 103.546 57.6061C105.199 57.5887 106.82 57.1517 108.257 56.3362C115.221 52.5381 115.129 46.4579 115.125 46.1592C115.125 46.1545 115.125 46.1512 115.125 46.1494L110.551 23.9362C110.524 23.806 110.425 23.7022 110.297 23.6685C109.036 23.2393 107.919 22.4695 107.069 21.4444C105.496 19.7283 103.45 16.3716 102.64 10.0838C102.621 9.95949 102.537 9.85468 102.42 9.80924C102.301 9.76308 102.166 9.78689 102.07 9.87102C96.7253 14.0684 90.3578 16.7649 83.6234 17.6827C83.4543 17.7096 83.3294 17.8547 83.3281 18.0259L83.3283 18.039C83.337 18.7751 83.4955 32.1345 85.9309 37.5895C88.1079 42.4975 93.2723 42.3603 94.7213 42.2161L95.408 53.6728C95.4103 53.749 95.4395 53.822 95.4905 53.8787ZM107.955 55.7115C101.685 59.1369 96.7676 54.2357 96.0808 53.4875L95.4078 41.7768C95.4 41.6781 95.353 41.5866 95.2773 41.5228C95.1984 41.4647 95.0988 41.4423 95.0026 41.461L95.002 41.4611C94.746 41.5038 88.8887 42.4797 86.5762 37.2806C84.3855 32.3314 84.0421 20.3461 84.0421 18.2868C90.5868 17.3182 96.7832 14.7218 102.062 10.7359C103.635 21.5817 108.799 23.8607 109.939 24.2382L114.465 46.2043C114.465 46.2049 114.465 46.2062 114.465 46.2083C114.468 46.3876 114.556 52.1001 107.955 55.7115Z" fill="#231F20"/>
<path d="M107.659 30.2446C109.273 30.4875 110.917 30.0828 112.233 29.1188C114.04 27.6882 114.972 25.4202 114.692 23.1331C114.649 22.2924 114.414 21.4728 114.005 20.7374C113.599 19.9931 112.89 19.462 112.061 19.2821C111.047 19.2191 110.04 19.4864 109.191 20.0441C107.859 20.7305 107.817 21.4925 107.089 22.6182C107.172 22.5153 107.234 22.2269 107.316 22.124" fill="white"/>
<path d="M108.58 30.6633C108.254 30.6621 107.928 30.6368 107.605 30.5878C107.416 30.5562 107.287 30.3789 107.316 30.1897C107.33 30.0999 107.379 30.0194 107.453 29.9664C107.526 29.9134 107.618 29.8924 107.708 29.9082C109.229 30.132 110.777 29.7446 112.014 28.8305C113.725 27.4697 114.602 25.3153 114.328 23.1468C114.301 22.3592 114.091 21.5887 113.717 20.8953C113.359 20.2453 112.738 19.7803 112.014 19.6185C111.162 19.4675 110.311 19.8587 109.363 20.3461C108.712 20.6628 108.202 21.2111 107.934 21.8837C107.79 22.1446 107.632 22.4397 107.419 22.7624C107.405 22.7902 107.387 22.8157 107.364 22.8379C107.25 22.9799 107.042 23.0043 106.897 22.8928C106.746 22.7863 106.71 22.5778 106.815 22.426V22.426C106.815 22.426 106.815 22.3368 106.863 22.2887C106.903 22.1645 106.961 22.0466 107.035 21.9386C107.07 21.897 107.115 21.8642 107.165 21.8425L107.296 21.5954C107.635 20.7991 108.249 20.1511 109.026 19.7695C109.837 19.3508 110.956 18.7742 112.103 18.9732C113.047 19.1604 113.86 19.7528 114.328 20.5932C114.749 21.3783 114.984 22.2496 115.015 23.1399C115.31 25.5435 114.325 27.9263 112.419 29.4209C111.304 30.2322 109.959 30.6674 108.58 30.6633V30.6633Z" fill="#231F20"/>
<path d="M95.4216 48.0508C98.1675 47.8534 100.638 46.3116 102.021 43.9322C104.445 39.8891 103.477 37.3012 103.477 37.3012C103.477 37.3012 100.208 41.4679 95.0645 41.8042L95.4216 48.0508Z" fill="#231F20"/>
<path fill-rule="evenodd" clip-rule="evenodd" d="M95.0853 48.0646C95.0927 48.245 95.2412 48.3873 95.4218 48.3872L95.4424 48.4215C98.2973 48.2385 100.873 46.6449 102.31 44.1725C104.796 40.0332 103.841 37.3561 103.8 37.2463C103.756 37.1309 103.654 37.0475 103.532 37.0266C103.409 37.0083 103.286 37.0582 103.21 37.157C103.209 37.1576 103.208 37.1587 103.207 37.1605C103.094 37.2994 99.9056 41.211 95.0441 41.5228C94.953 41.5281 94.8677 41.5694 94.8072 41.6377C94.7466 41.706 94.7157 41.7955 94.7214 41.8866L95.0853 48.0646ZM95.7448 47.6802L95.422 42.1406C98.4359 41.7485 101.215 40.3072 103.272 38.07C103.395 39.031 103.354 41.0354 101.713 43.7812C100.434 45.9342 98.2306 47.374 95.7448 47.6802Z" fill="#231F20"/>
<path d="M94.1578 23.0438C94.1578 23.0438 91.5825 29.8258 92.75 30.6358C93.9174 31.4458 96.3829 30.1553 96.3829 30.1553" fill="white"/>
<path d="M93.7667 31.2468C93.3371 31.2665 92.912 31.1513 92.5512 30.9173C91.2601 30.0249 93.2379 24.5746 93.8285 22.9203C93.8958 22.7448 94.0917 22.6561 94.2681 22.7212C94.3541 22.7535 94.4235 22.8188 94.461 22.9027C94.4984 22.9865 94.5006 23.0819 94.4672 23.1674C93.2723 26.3181 92.407 29.9631 92.9426 30.3475C93.7599 30.9104 95.5866 30.1828 96.2184 29.8533C96.3874 29.7669 96.5946 29.8308 96.6854 29.9975C96.7702 30.1662 96.7027 30.3717 96.5343 30.4574C95.6789 30.9153 94.7351 31.1845 93.7667 31.2468V31.2468Z" fill="#231F20"/>
<ellipse cx="0.995745" cy="1.40726" rx="0.995745" ry="1.40726" transform="matrix(0.951622 -0.307272 0.307774 0.95146 97.4102 20.5002)" fill="#231F20"/>
<ellipse cx="0.995787" cy="1.4072" rx="0.995787" ry="1.4072" transform="matrix(0.999907 -0.0136009 0.0136254 0.999907 88.5815 22.3172)" fill="#231F20"/>
<path fill-rule="evenodd" clip-rule="evenodd" d="M93.1207 38.8045C93.6669 39.1744 94.3153 39.364 94.9749 39.3468C95.3955 39.3451 95.8138 39.2851 96.2179 39.1683C97.8637 38.6553 99.1827 37.4153 99.7959 35.8047C100.299 34.5081 100.49 33.1112 100.352 31.7273C100.339 31.6289 100.287 31.5399 100.208 31.4802C100.05 31.3635 99.9538 31.2948 91.0673 33.2375C90.9038 33.2735 90.7886 33.4202 90.7926 33.5875L90.7926 33.5877C90.7995 33.7406 90.958 37.2261 93.1207 38.8045ZM93.5121 38.2416C91.9601 37.1158 91.5892 34.6858 91.5068 33.8553V33.8484C94.3362 33.2306 98.5048 32.3382 99.686 32.1254C99.7674 33.294 99.5892 34.466 99.1641 35.5576C98.6193 36.9749 97.4554 38.0649 96.005 38.5162C95.1748 38.8014 94.2604 38.7007 93.5121 38.2416Z" fill="#231F20"/>
<path d="M99.4806 35.6949C98.162 38.88 94.8587 39.6419 93.2998 38.5368C93.65 37.3218 94.2887 36.0587 95.4768 35.5988C96.7804 35.1543 98.1998 35.1884 99.4806 35.6949V35.6949Z" fill="#231F20"/>
<path fill-rule="evenodd" clip-rule="evenodd" d="M93.1209 38.8045C93.6683 39.1711 94.3164 39.3582 94.9751 39.3399C95.3954 39.3402 95.8137 39.2825 96.2181 39.1683C97.8614 38.6549 99.1795 37.4184 99.7961 35.8116C99.8301 35.7256 99.8301 35.6299 99.7961 35.5439C99.7574 35.4578 99.6856 35.391 99.5969 35.3586C98.2433 34.8339 96.7481 34.8023 95.3734 35.2693C94.2678 35.6881 93.4643 36.7589 92.9973 38.4338C92.9551 38.5711 93.0047 38.72 93.1209 38.8045ZM96.0051 38.5093C95.2558 38.7584 94.4392 38.7092 93.7251 38.372C94.1578 37.0678 94.7759 36.2303 95.6206 35.8871C96.7218 35.5212 97.9119 35.5212 99.0131 35.8871C98.4292 37.149 97.3353 38.1027 96.0051 38.5093Z" fill="#231F20"/>
<path fill-rule="evenodd" clip-rule="evenodd" d="M81.3572 26.9016C81.5638 27.8471 82.4012 28.5213 83.3694 28.5216C83.5183 28.5136 83.6659 28.4883 83.8089 28.4461L91.4662 26.7712C92.5563 26.5155 93.2425 25.4363 93.0114 24.3412L92.3246 21.0669C92.208 20.5321 91.8831 20.0657 91.4218 19.7707C90.9605 19.4758 90.4007 19.3765 89.866 19.4949L82.2088 21.1767C81.0977 21.4196 80.3938 22.5166 80.6361 23.6273L81.3572 26.9016ZM90.0169 20.1608C90.1151 20.1506 90.214 20.1506 90.3122 20.1608L90.3397 20.1402C90.9718 20.1493 91.5161 20.5884 91.6582 21.2042L92.345 24.4785C92.4907 25.2039 92.0352 25.9143 91.3149 26.0847L83.6576 27.8008C82.9319 27.9465 82.2212 27.4912 82.0506 26.7712L81.3295 23.4488C81.18 22.7189 81.6402 22.0031 82.3665 21.8357L90.0169 20.1608Z" fill="#231F20"/>
<path fill-rule="evenodd" clip-rule="evenodd" d="M95.9024 25.2061C96.2341 25.4202 96.6202 25.5346 97.015 25.5356C97.1764 25.5349 97.3374 25.5188 97.4957 25.4875L105.146 23.8126C106.247 23.554 106.933 22.4574 106.684 21.3552L105.998 18.0809C105.881 17.546 105.556 17.0797 105.095 16.7847C104.634 16.4898 104.074 16.3905 103.539 16.5089L95.8887 18.1838C95.3526 18.301 94.8854 18.6271 94.5908 19.0899C94.2971 19.5502 94.1983 20.1082 94.3161 20.6413L95.0028 23.9156C95.12 24.4478 95.4436 24.9119 95.9024 25.2061ZM103.663 17.1953C103.76 17.1738 103.859 17.1623 103.958 17.161C104.603 17.1581 105.162 17.6035 105.304 18.2319L105.991 21.5062C106.068 21.8573 106.003 22.2246 105.812 22.529C105.616 22.8294 105.311 23.0412 104.961 23.1193L97.3034 24.7942C96.5777 24.9399 95.867 24.4846 95.6965 23.7646L94.9754 20.4903C94.9007 20.1382 94.9673 19.7709 95.1608 19.4675C95.3533 19.1639 95.6604 18.951 96.0124 18.8771L103.663 17.1953Z" fill="#231F20"/>
<path d="M91.9741 21.4993C91.9112 21.5007 91.8492 21.484 91.7955 21.4513C91.629 21.3529 91.5712 21.1398 91.6651 20.9708C91.9878 20.4147 93.0386 19.543 94.7623 20.2363C94.9519 20.3083 95.0473 20.5204 94.9752 20.7099C94.9031 20.8995 94.691 20.9947 94.5013 20.9227C92.963 20.3049 92.3449 21.2453 92.2831 21.3552C92.2104 21.4515 92.0946 21.5055 91.9741 21.4993Z" fill="#231F20"/>
<path d="M23.5602 112.878H164.756L187.412 154.236H0.904297L23.5602 112.878V112.878Z" fill="white"/>
<path fill-rule="evenodd" clip-rule="evenodd" d="M0.904223 154.58H187.412C187.534 154.581 187.649 154.519 187.714 154.415C187.772 154.308 187.772 154.178 187.714 154.072L165.051 112.714C164.992 112.602 164.875 112.533 164.749 112.535H23.5738C23.4476 112.533 23.3309 112.602 23.2717 112.714L0.60892 154.072C0.550282 154.178 0.550282 154.308 0.60892 154.415C0.672552 154.517 0.784028 154.579 0.904223 154.58ZM186.828 153.893H1.48831L23.7665 113.221H164.55L186.828 153.893Z" fill="#D1D3D4"/>
<path d="M25.7505 86.1963L26.0527 84.8921C26.7394 83.5879 27.5017 82.7092 29.2735 82.7092H96.4857C98.1545 82.712 99.6222 83.813 100.091 85.4138L111.017 122.935C111.603 124.605 110.787 126.441 109.156 127.129L107.968 127.41L25.7505 86.1963Z" fill="white"/>
<path fill-rule="evenodd" clip-rule="evenodd" d="M107.818 127.719C107.865 127.74 107.917 127.752 107.969 127.753L108.037 127.781L109.267 127.486C111.063 126.732 111.964 124.713 111.327 122.873L100.394 85.304C99.8782 83.5594 98.2786 82.3596 96.4587 82.3523H29.2466C27.2001 82.3523 26.4103 83.4712 25.7235 84.7137C25.7206 84.7433 25.7206 84.7732 25.7235 84.8029L25.4214 86.1071C25.3825 86.2613 25.457 86.4217 25.5999 86.4915L107.818 127.719ZM108.038 127.046L26.1702 86.011L26.3762 85.0157C27.1042 83.7389 27.7566 83.0525 29.2743 83.0525H96.5071C98.0218 83.0598 99.3527 84.0582 99.7829 85.5099L110.709 123.031C111.101 124.39 110.757 126.154 109.102 126.799L108.038 127.046Z" fill="#231F20"/>
<path d="M107.968 127.41H39.3828C38.4259 127.4 37.589 126.764 37.3225 125.845L25.7783 86.1964C25.69 85.888 25.7515 85.5561 25.9445 85.2999C26.1374 85.0436 26.4395 84.8927 26.7603 84.8921H97.1796L109.108 125.893C109.215 126.252 109.145 126.64 108.921 126.939C108.696 127.238 108.343 127.413 107.968 127.41V127.41Z" fill="#231F20"/>
<path fill-rule="evenodd" clip-rule="evenodd" d="M39.3828 127.753H107.968C108.45 127.753 108.903 127.526 109.192 127.142C109.481 126.757 109.572 126.259 109.438 125.797L97.5024 84.796C97.4619 84.6519 97.3293 84.5532 97.1797 84.5557H26.7329C26.3066 84.5596 25.9063 84.7612 25.6494 85.1013C25.3925 85.4414 25.3082 85.8815 25.4212 86.2924L36.9655 125.941C37.2834 127.012 38.2654 127.748 39.3828 127.753ZM26.1952 85.5084C26.3227 85.3394 26.5211 85.2386 26.7329 85.2353H96.9049L108.786 125.989C108.861 126.243 108.813 126.518 108.655 126.731C108.492 126.944 108.237 127.069 107.968 127.067H39.3828C38.5681 127.065 37.8511 126.529 37.6178 125.749L26.0805 86.1002C26.0254 85.8958 26.0677 85.6774 26.1952 85.5084Z" fill="#231F20"/>
<path d="M96.4657 110.517L92.2971 128.234C91.8429 130.187 90.0999 131.567 88.0942 131.563H44.7122C43.393 131.563 42.1464 130.959 41.3275 129.926C40.5087 128.892 40.2073 127.541 40.5093 126.257L44.1834 110.517H40.5917L37.0756 125.447C36.5379 127.776 37.0916 130.223 38.5797 132.094C40.0678 133.965 42.3279 135.056 44.7191 135.057H88.1285C91.7493 135.055 94.896 132.571 95.7377 129.051L100.092 110.517L96.4657 110.517Z" fill="white"/>
<path fill-rule="evenodd" clip-rule="evenodd" d="M44.7116 135.448H88.0936C91.9079 135.474 95.2306 132.854 96.0942 129.14L100.455 110.606C100.475 110.505 100.45 110.399 100.385 110.318C100.32 110.237 100.222 110.19 100.119 110.187H96.4925C96.3352 110.187 96.1982 110.295 96.1629 110.448L91.9943 128.165C91.5754 129.965 89.9694 131.237 88.1211 131.234H44.7116C43.4968 131.232 42.3491 130.676 41.5947 129.725C40.8404 128.773 40.5619 127.529 40.8384 126.346L44.5399 110.606C44.5648 110.506 44.542 110.399 44.4781 110.318C44.4127 110.237 44.3145 110.189 44.2103 110.187H40.5843C40.4252 110.186 40.2859 110.294 40.2478 110.448L36.7385 125.385C36.1659 127.82 36.7378 130.383 38.2913 132.343C39.8447 134.304 42.2094 135.448 44.7116 135.448ZM37.3907 125.543L40.8245 110.874H43.7706L40.1721 126.188C39.8446 127.575 40.1696 129.035 41.0543 130.152C41.9389 131.269 43.2862 131.921 44.7115 131.92H88.1072C90.2758 131.93 92.1615 130.436 92.6466 128.323L96.7671 110.874H99.6858L95.4279 128.975C94.6401 132.371 91.6085 134.772 88.1209 134.762H44.7115C42.4155 134.769 40.2429 133.724 38.8154 131.926C37.3879 130.129 36.863 127.777 37.3907 125.543Z" fill="#231F20"/>
<path d="M152.408 74.3896C152.408 74.3896 158.548 101.641 153.521 108.602C148.494 115.562 113.387 114.464 113.387 114.464C113.387 114.464 107.694 121.294 102.749 120.841C97.8047 120.388 100.689 111.039 106.506 107.147L105.702 103.9L136.654 98.9367L132.534 79.3526" fill="white"/>
<path d="M103.202 121.205C103.033 121.205 102.861 121.205 102.687 121.205C101.371 121.139 100.265 120.194 99.9954 118.905C99.2193 115.864 101.705 110.064 106.08 107.016L105.338 104.003C105.314 103.912 105.329 103.814 105.379 103.735C105.432 103.653 105.517 103.598 105.613 103.584L136.208 98.6758L132.156 79.4555C132.138 79.3663 132.156 79.2735 132.206 79.1975C132.256 79.1216 132.334 79.0687 132.424 79.0505C132.512 79.0302 132.605 79.0464 132.681 79.0955C132.758 79.1446 132.811 79.2225 132.829 79.3114L136.949 98.8955C136.97 98.9885 136.95 99.0858 136.894 99.1632C136.842 99.2406 136.76 99.2929 136.668 99.3074L106.087 104.215L106.774 107.098C106.81 107.237 106.755 107.382 106.636 107.462C102.433 110.277 99.9129 115.94 100.634 118.754C100.824 119.753 101.678 120.49 102.694 120.532C107.399 120.971 112.996 114.354 113.037 114.279C113.104 114.197 113.206 114.152 113.311 114.155C113.662 114.155 148.336 115.164 153.184 108.43C158.033 101.696 152.085 74.7946 152.023 74.4994C151.997 74.3768 152.037 74.2491 152.13 74.1644C152.223 74.0797 152.353 74.051 152.473 74.0889C152.593 74.1269 152.683 74.2258 152.71 74.3484C152.964 75.4673 158.822 101.806 153.761 108.835C148.816 115.7 116.409 114.931 113.476 114.842C112.7 115.748 107.804 121.205 103.202 121.205Z" fill="#231F20"/>
<path d="M115.578 60.8942C115.525 60.8933 115.473 60.8792 115.427 60.853C115.341 60.8144 115.276 60.7427 115.245 60.6547C115.214 60.5666 115.22 60.4696 115.262 60.3862C120.248 50.0896 133.049 43.1634 133.179 43.0947C133.261 43.0491 133.357 43.0387 133.447 43.0659C133.536 43.0931 133.611 43.1556 133.653 43.2389C133.699 43.3215 133.709 43.4191 133.682 43.5096C133.655 43.6001 133.592 43.6757 133.509 43.7194C133.385 43.7881 120.783 50.5838 115.9 60.6951C115.839 60.8167 115.714 60.8935 115.578 60.8942Z" fill="#231F20"/>
<path d="M94.4119 60.4068C94.3621 60.4171 94.3107 60.4171 94.2609 60.4068C82.2977 54.9153 80.8486 42.8476 80.8349 42.7309C80.8149 42.5359 80.9559 42.3613 81.1508 42.3397C81.2438 42.3281 81.3376 42.3542 81.4112 42.4123C81.4847 42.4703 81.532 42.5554 81.5423 42.6486C81.5423 42.7653 82.9707 54.4416 94.5905 59.6998C94.7672 59.7808 94.8466 59.9883 94.7691 60.1665C94.7152 60.3159 94.5707 60.4132 94.4119 60.4068V60.4068Z" fill="#231F20"/>
<path d="M39.9045 75.9684C39.7512 75.9246 39.6455 75.7846 39.6455 75.6252C39.6455 75.4658 39.7512 75.3257 39.9045 75.282C45.0826 75.1241 47.5961 72.1998 47.6236 72.1724C47.6826 72.1002 47.768 72.0546 47.8608 72.0456C47.9536 72.0365 48.0462 72.0649 48.1181 72.1243C48.2692 72.2497 48.2907 72.4736 48.1661 72.6254C48.0562 72.7559 45.4191 75.8242 39.9251 75.989L39.9045 75.9684Z" fill="#231F20"/>
<path d="M132.492 79.7026C132.329 79.704 132.187 79.5931 132.149 79.4349C132.149 79.3114 128.914 66.6603 128.468 59.0751C128.462 58.9822 128.494 58.8909 128.556 58.8213C128.618 58.7518 128.705 58.7097 128.798 58.7044C128.992 58.6926 129.161 58.8393 129.175 59.0339C129.622 66.5504 132.808 79.1329 132.836 79.2633C132.884 79.4527 132.77 79.6454 132.582 79.6958L132.492 79.7026Z" fill="#231F20"/>
<path d="M77.1403 81.961V81.961C77.0461 81.9558 76.958 81.9127 76.8959 81.8417C76.8339 81.7706 76.8031 81.6775 76.8107 81.5835L78.5138 54.9153C78.5191 54.8211 78.5621 54.733 78.6332 54.671C78.7043 54.6089 78.7975 54.5782 78.8915 54.5858C78.9852 54.5892 79.0733 54.6307 79.1356 54.7007C79.1978 54.7707 79.2287 54.8631 79.2212 54.9564L77.4906 81.6247C77.4832 81.8126 77.3285 81.9612 77.1403 81.961Z" fill="#231F20"/>
<path d="M137.945 67.0447C137.815 67.0462 137.696 66.9745 137.636 66.8593L134.312 60.6814C134.275 60.5912 134.275 60.4901 134.312 60.3999C134.344 60.3077 134.41 60.2314 134.497 60.1871L144.799 55.3203C144.883 55.278 144.981 55.2717 145.07 55.3027C145.16 55.3337 145.232 55.3995 145.272 55.485C145.356 55.6614 145.283 55.8724 145.108 55.9586L135.122 60.6676L138.13 66.2415L148.246 63.1525C148.369 63.1158 148.502 63.1472 148.595 63.235C148.688 63.3228 148.727 63.4536 148.698 63.5782C148.669 63.7028 148.575 63.8022 148.452 63.839L138.048 67.0515L137.945 67.0447Z" fill="#231F20"/>
<ellipse cx="146.866" cy="140.274" rx="16.9558" ry="5.10025" fill="white"/>
<path fill-rule="evenodd" clip-rule="evenodd" d="M129.567 140.274C129.567 143.329 137.169 145.718 146.866 145.718C156.563 145.718 164.165 143.329 164.165 140.274C164.165 137.219 156.563 134.831 146.866 134.831C137.169 134.831 129.567 137.219 129.567 140.274ZM130.254 140.274C130.254 137.975 136.929 135.517 146.866 135.517C156.803 135.517 163.479 137.975 163.479 140.274C163.479 142.574 156.803 145.031 146.866 145.031C136.929 145.031 130.254 142.574 130.254 140.274Z" fill="#D1D3D4"/>
<path d="M134.086 125.708L133.68 125.783C132.455 125.966 131.34 126.594 130.549 127.548C129.644 128.929 129.604 130.705 130.446 132.126C132.245 135.366 136.627 136.245 140.005 136.581C140.483 136.659 140.973 136.621 141.434 136.471C141.899 136.312 142.215 135.878 142.224 135.387C142.164 134.986 141.906 134.642 141.537 134.474C141.183 134.31 140.805 134.203 140.417 134.158C138.316 133.815 136.105 133.561 134.182 132.593C133.062 132.023 131.497 130.726 132.314 129.325C132.6 128.882 133.011 128.533 133.495 128.323C135.425 127.403 137.258 128.104 139.161 128.666C139.299 128.717 139.446 128.738 139.593 128.728C139.97 128.625 140.209 128.256 140.15 127.87C140.088 127.04 139.257 126.497 138.474 126.188C137.076 125.658 135.565 125.492 134.086 125.708V125.708Z" fill="white"/>
<path fill-rule="evenodd" clip-rule="evenodd" d="M139.978 136.924C140.176 136.946 140.376 136.958 140.576 136.959C140.91 136.964 141.243 136.908 141.558 136.794C142.147 136.657 142.577 136.15 142.617 135.546C142.656 134.943 142.296 134.385 141.729 134.172C141.342 133.987 140.926 133.868 140.5 133.822L139.724 133.698C137.874 133.503 136.066 133.026 134.36 132.284C133.542 131.923 132.883 131.276 132.506 130.465C132.408 130.141 132.456 129.79 132.637 129.504C132.887 129.116 133.248 128.812 133.674 128.632C135.315 127.85 136.908 128.33 138.598 128.845L139.092 128.996C139.278 129.059 139.474 129.084 139.669 129.071C140.225 128.939 140.592 128.41 140.521 127.843C140.431 126.724 139.312 126.127 138.625 125.873C137.165 125.313 135.584 125.141 134.038 125.372L133.612 125.447C132.304 125.648 131.117 126.322 130.274 127.342C129.285 128.83 129.235 130.752 130.144 132.291C131.607 134.927 134.821 136.437 139.978 136.924ZM133.749 126.12L134.141 126.051V126.065C135.569 125.851 137.029 126.01 138.378 126.525C138.797 126.676 139.779 127.129 139.834 127.898C139.848 128.104 139.745 128.385 139.58 128.385C139.482 128.387 139.384 128.371 139.291 128.337L138.797 128.186C137.059 127.657 135.26 127.115 133.379 128.014C132.829 128.25 132.364 128.648 132.046 129.154C131.767 129.606 131.695 130.155 131.847 130.664C132.276 131.658 133.063 132.454 134.052 132.895C135.818 133.673 137.694 134.173 139.614 134.378L140.39 134.501C140.739 134.537 141.08 134.63 141.4 134.776C141.655 134.893 141.835 135.13 141.88 135.407C141.857 135.75 141.629 136.045 141.304 136.156C140.894 136.279 140.462 136.307 140.04 136.238C135.13 135.778 132.087 134.378 130.748 131.961C129.968 130.657 129.997 129.022 130.824 127.747C131.569 126.868 132.609 126.289 133.749 126.12Z" fill="#231F20"/>
<path d="M135.672 122.234C135.672 122.234 138.845 138.064 139.106 139.018C139.367 139.972 146.866 143.892 152.841 140.041L158.067 123.861L135.672 122.234Z" fill="white"/>
<path fill-rule="evenodd" clip-rule="evenodd" d="M141.75 141.05C143.424 141.698 145.201 142.037 146.996 142.052C149.126 142.089 151.22 141.502 153.019 140.363C153.087 140.323 153.138 140.259 153.163 140.185L158.39 124.006C158.424 123.905 158.41 123.795 158.35 123.707C158.291 123.619 158.193 123.564 158.087 123.559L135.693 121.898C135.586 121.886 135.48 121.927 135.409 122.008C135.337 122.088 135.31 122.199 135.335 122.303C135.466 122.955 138.515 138.153 138.769 139.107C138.934 139.718 140.431 140.542 141.75 141.05ZM139.435 138.929C139.209 138.084 136.613 125.186 136.098 122.612L157.627 124.177L152.573 139.821C148.961 142.073 145.019 141.366 142.958 140.741C140.768 140.075 139.531 139.155 139.435 138.929Z" fill="#231F20"/>
<ellipse cx="4.86" cy="11.2283" rx="4.86" ry="11.2283" transform="matrix(0.0410406 -0.999157 0.99916 0.0409669 135.483 127.093)" fill="#231F20"/>
<path fill-rule="evenodd" clip-rule="evenodd" d="M146.68 127.918H147.772C150.165 127.971 152.547 127.592 154.805 126.799C157.078 125.948 158.396 124.644 158.451 123.202C158.575 120.278 153.589 117.8 147.106 117.532C140.623 117.265 135.452 119.324 135.328 122.248C135.205 125.172 140.191 127.657 146.68 127.918ZM136.008 122.283C136.104 119.949 140.603 118.164 146.049 118.164L147.106 118.184C152.992 118.425 157.902 120.697 157.799 123.147C157.751 124.28 156.583 125.372 154.592 126.133C152.063 127.019 149.383 127.395 146.708 127.239C140.815 126.998 135.912 124.726 136.008 122.283Z" fill="#231F20"/>
<path fill-rule="evenodd" clip-rule="evenodd" d="M83.692 78.2542H120.028C120.21 78.2546 120.36 78.1131 120.371 77.9316V67.1888C120.371 66.9993 120.218 66.8456 120.028 66.8456H83.692C83.5039 66.8492 83.3523 67.0008 83.3486 67.1888V77.911C83.3486 78.1006 83.5024 78.2542 83.692 78.2542ZM119.684 77.5678H84.0353V67.532H119.684V77.5678Z" fill="white"/>
<rect x="0.904297" y="154.236" width="186.501" height="7.18703" fill="white"/>
<path fill-rule="evenodd" clip-rule="evenodd" d="M0.90441 161.767H187.412C187.601 161.767 187.755 161.613 187.755 161.423V154.236C187.752 154.048 187.6 153.897 187.412 153.893H0.90441C0.716303 153.897 0.564689 154.048 0.561035 154.236V161.423C0.561035 161.613 0.714769 161.767 0.90441 161.767ZM187.069 161.08H1.24786V154.58H187.069V161.08Z" fill="#D1D3D4"/>
<path d="M158.06 87.1162V87.1162C157.872 87.1088 157.723 86.9542 157.724 86.7661C157.724 85.9767 158.225 67.3673 160.278 60.9216C162.332 54.4759 166.184 51.7919 166.342 51.689C166.5 51.5828 166.713 51.6243 166.82 51.7817C166.926 51.939 166.884 52.1526 166.727 52.2587C166.686 52.2587 162.929 54.8603 160.931 61.1275C158.932 67.3947 158.417 86.5876 158.41 86.7798C158.409 86.8709 158.371 86.9575 158.305 87.0205C158.239 87.0836 158.151 87.118 158.06 87.1162V87.1162Z" fill="white"/>
</svg>
