<svg width="183" height="162" viewBox="0 0 183 162" fill="none" xmlns="http://www.w3.org/2000/svg">
<path d="M182.613 146.454H0.387856C0.192256 146.454 0.0336914 146.295 0.0336914 146.098C0.0336914 145.902 0.192256 145.743 0.387856 145.743H182.613C182.808 145.743 182.967 145.902 182.967 146.098C182.967 146.295 182.808 146.454 182.613 146.454Z" fill="#D1D3D4"/>
<rect x="126.676" y="84.1405" width="40.6794" height="70.0579" fill="white"/>
<path fill-rule="evenodd" clip-rule="evenodd" d="M126.676 154.554H167.355C167.452 154.554 167.544 154.514 167.611 154.445C167.678 154.375 167.713 154.281 167.709 154.184V84.1405C167.709 83.9443 167.551 83.7853 167.355 83.7853H126.676C126.48 83.7853 126.322 83.9443 126.322 84.1405V154.198C126.322 154.395 126.48 154.554 126.676 154.554ZM167.001 153.843H127.03V84.4958H167.001V153.843Z" fill="#231F20"/>
<rect x="14.604" y="84.1405" width="40.6794" height="70.0579" fill="white"/>
<path fill-rule="evenodd" clip-rule="evenodd" d="M14.6037 154.554H55.2831C55.3795 154.554 55.4718 154.514 55.5386 154.445C55.6055 154.375 55.6411 154.281 55.6372 154.184V84.1405C55.6372 83.9443 55.4787 83.7853 55.2831 83.7853H14.6037C14.4081 83.7853 14.2495 83.9443 14.2495 84.1405V154.198C14.2495 154.395 14.4081 154.554 14.6037 154.554ZM54.9285 153.843H14.9575V84.4958H54.9285V153.843Z" fill="#231F20"/>
<path d="M134.248 63.8266L142.302 80.0479H120.521L134.248 63.8266V63.8266Z" fill="#231F20"/>
<path fill-rule="evenodd" clip-rule="evenodd" d="M120.541 80.4032H142.301C142.436 80.4162 142.566 80.3497 142.634 80.2326C142.695 80.1271 142.695 79.9971 142.634 79.8916L134.588 63.6703C134.533 63.5638 134.43 63.4917 134.311 63.4784C134.193 63.4597 134.074 63.5058 134 63.5992L120.272 79.8205C120.18 79.9236 120.158 80.0714 120.216 80.1971C120.276 80.323 120.402 80.4031 120.541 80.4032ZM141.728 79.6926H121.285L134.17 64.4732L141.728 79.6926Z" fill="#231F20"/>
<path d="M72.3892 80.0479H124.246L143.059 52.3942H94.1066L72.3892 80.0479V80.0479Z" fill="#231F20"/>
<path fill-rule="evenodd" clip-rule="evenodd" d="M72.3755 80.4032H124.246C124.366 80.4058 124.478 80.3468 124.544 80.2468L143.357 52.6003C143.428 52.4873 143.428 52.3438 143.357 52.2308C143.295 52.116 143.176 52.043 143.046 52.0389H94.0929C93.9849 52.0384 93.8828 52.0883 93.8166 52.1739L72.0992 79.8276C72.0153 79.9342 71.9992 80.0796 72.058 80.202C72.1168 80.3244 72.24 80.4025 72.3755 80.4032ZM124.084 79.6926H73.1192L94.277 52.7495H142.415L124.084 79.6926Z" fill="#231F20"/>
<path d="M95.6653 55.08L80.167 75.2234H118.651L133.214 55.08H95.6653V55.08Z" fill="white"/>
<path fill-rule="evenodd" clip-rule="evenodd" d="M80.1669 75.5786H118.65C118.758 75.5737 118.858 75.5185 118.92 75.4294L133.483 55.286C133.553 55.173 133.553 55.0295 133.483 54.9165C133.425 54.7972 133.303 54.7224 133.171 54.7247H95.6297C95.5217 54.7241 95.4196 54.774 95.3535 54.8597L79.8481 75.0031C79.7811 75.1196 79.7811 75.2632 79.8481 75.3797C79.9077 75.5017 80.0315 75.5789 80.1669 75.5786ZM118.431 74.8681H80.8894L95.8422 55.421H132.52L118.431 74.8681Z" fill="#231F20"/>
<path d="M106.687 71.5571C106.536 71.556 106.403 71.459 106.354 71.3155C104.491 65.8089 101.899 59.7695 100.957 59.6274V59.6274C99.8305 59.6274 92.6055 65.6171 86.1881 71.4718C86.0944 71.5582 85.962 71.5878 85.8407 71.5496C85.7194 71.5114 85.6276 71.4112 85.5999 71.2867C85.5722 71.1622 85.6128 71.0324 85.7064 70.9461C87.9306 68.9211 98.9876 58.924 101.021 58.924H101.098C102.912 59.2011 106.12 68.3029 107.063 71.0882C107.094 71.1776 107.087 71.2759 107.044 71.3604C107.001 71.4449 106.926 71.5082 106.836 71.5358C106.789 71.5559 106.738 71.5632 106.687 71.5571V71.5571Z" fill="#D1D3D4"/>
<path d="M118.247 72.2961C118.088 72.2952 117.948 72.1876 117.907 72.0332C116.66 67.5924 114.882 62.8532 114.047 62.6045C113.211 62.3558 109.329 65.8729 106.17 69.255C106.035 69.3982 105.81 69.4046 105.667 69.2692C105.524 69.1338 105.518 68.908 105.653 68.7647C107.268 67.0382 112.651 61.4463 114.252 61.9295C115.853 62.4126 118.148 70.2711 118.587 71.8768C118.642 72.0652 118.534 72.2624 118.346 72.3174L118.247 72.2961Z" fill="#D1D3D4"/>
<path fill-rule="evenodd" clip-rule="evenodd" d="M128.071 65.1268C128.071 65.6597 128.758 66.0789 129.63 66.0789C130.501 66.0789 131.188 65.6597 131.188 65.1268C131.188 64.5939 130.48 64.1818 129.63 64.1818C128.78 64.1818 128.071 64.5939 128.071 65.1268ZM128.213 65.1268C128.213 64.7076 128.879 64.3595 129.63 64.3595V64.3808C130.381 64.3808 131.011 64.7076 131.011 65.1268C131.011 65.5461 130.416 65.9013 129.63 65.9013C128.844 65.9013 128.213 65.5461 128.213 65.1268Z" fill="#A7A9AC"/>
<path d="M135.82 58.0216H132.675C132.63 58.0182 132.594 57.9819 132.59 57.9363C132.59 57.888 132.627 57.8477 132.675 57.8439H135.82C135.844 57.8439 135.867 57.8538 135.883 57.8714C135.899 57.8889 135.907 57.9125 135.905 57.9363C135.905 57.9834 135.867 58.0216 135.82 58.0216Z" fill="#A7A9AC"/>
<path d="M124.246 80.4032C124.171 80.4038 124.096 80.3815 124.034 80.3392C123.878 80.2215 123.844 80.0016 123.956 79.8418L134 66.015C134.055 65.9385 134.139 65.8873 134.232 65.8726C134.325 65.8579 134.42 65.8811 134.496 65.9368C134.651 66.0545 134.685 66.2744 134.574 66.4342L124.529 80.2895C124.456 80.3675 124.353 80.4091 124.246 80.4032Z" fill="white"/>
<path fill-rule="evenodd" clip-rule="evenodd" d="M105.129 58.6468C105.129 59.5101 105.827 60.21 106.687 60.21C107.548 60.21 108.246 59.5101 108.246 58.6468C108.246 57.7835 107.548 57.0837 106.687 57.0837C105.827 57.0837 105.129 57.7835 105.129 58.6468ZM105.837 58.6468C105.837 58.1759 106.218 57.7942 106.687 57.7942C106.913 57.7923 107.13 57.8815 107.29 58.0418C107.45 58.2021 107.539 58.4201 107.537 58.6468C107.537 59.1177 107.157 59.4995 106.687 59.4995C106.218 59.4995 105.837 59.1177 105.837 58.6468Z" fill="#D1D3D4"/>
<rect x="9.19971" y="80.6518" width="159.884" height="6.79974" fill="white"/>
<path fill-rule="evenodd" clip-rule="evenodd" d="M9.19938 87.8068H169.091C169.286 87.8068 169.445 87.6478 169.445 87.4516V80.6518C169.441 80.4572 169.285 80.3003 169.091 80.2966H9.19938C9.00536 80.3003 8.84898 80.4572 8.84521 80.6518V87.4516C8.84521 87.6478 9.00378 87.8068 9.19938 87.8068ZM168.708 87.0963H9.55319V81H168.708V87.0963Z" fill="#231F20"/>
<path d="M69.337 117.436C69.4858 117.94 60.5396 150.156 60.5396 150.156L73.0416 152.173L87.8173 107.666L69.337 117.436Z" fill="white"/>
<path fill-rule="evenodd" clip-rule="evenodd" d="M72.9845 152.529H73.0411C73.1909 152.531 73.3251 152.436 73.374 152.294L88.1569 107.787C88.1973 107.649 88.1561 107.5 88.0506 107.403C87.9382 107.312 87.7831 107.295 87.654 107.361L69.1737 117.13C69.0476 117.195 68.9724 117.329 68.9824 117.471C68.8832 118.537 63.6841 137.515 60.192 150.063C60.17 150.162 60.1851 150.266 60.2345 150.354C60.2915 150.439 60.3815 150.496 60.4824 150.511L72.9845 152.529ZM72.8148 151.776L60.9999 149.864H60.9857C66.3549 130.524 69.2661 119.717 69.6557 117.677L87.2223 108.398L72.8148 151.776Z" fill="#231F20"/>
<path d="M59.7814 148.763L57.876 154.774L87.8171 157.097C86.411 154.257 83.9798 152.059 81.0171 150.951C77.9075 149.857 74.5571 148.55 74.5571 148.55L73.0413 152.173L59.7814 148.763Z" fill="#231F20"/>
<path fill-rule="evenodd" clip-rule="evenodd" d="M57.8756 155.129L87.8167 157.453C87.9587 157.487 88.107 157.427 88.1851 157.303C88.2457 157.195 88.2457 157.063 88.1851 156.955C86.7437 154.022 84.2368 151.754 81.1797 150.617C78.9463 149.833 76.5708 148.924 75.425 148.486C74.9936 148.321 74.7365 148.223 74.7268 148.223C74.6414 148.188 74.5455 148.188 74.4604 148.224C74.3753 148.26 74.3081 148.329 74.2735 148.415L72.8568 151.754L59.8944 148.422C59.7132 148.375 59.5271 148.478 59.4694 148.656L57.564 154.667C57.5312 154.771 57.5475 154.884 57.6082 154.974C57.669 155.064 57.7675 155.121 57.8756 155.129ZM87.2076 156.699L58.3432 154.454L60.0148 149.211L72.9489 152.522C73.1215 152.563 73.2987 152.473 73.3669 152.308L74.7481 149.012C74.7859 149.026 74.8268 149.042 74.8707 149.058C75.8862 149.445 78.4794 150.434 80.9035 151.285C83.5733 152.292 85.805 154.208 87.2076 156.699Z" fill="#231F20"/>
<path d="M38.7651 117.862L36.6401 151.797C36.6401 151.797 29.4576 152.046 27.6585 153.31C25.8593 154.575 24.3931 160.302 24.3931 160.302H26.6314C26.6314 160.302 27.9347 156.039 29.3655 155.527C30.7964 155.016 38.928 154.817 38.928 154.817C38.928 154.817 42.8521 156.337 43.4826 158.945C43.9784 160.998 43.8367 161.474 43.8367 161.474H46.3159C46.3099 160.306 46.143 159.144 45.82 158.021C45.3242 156.6 43.4613 154.902 43.4613 154.902C43.4613 154.902 47.5625 154.987 48.9296 154.987C50.2967 154.987 51.7204 157.602 51.7204 157.602H54.3908C54.3908 157.602 51.6 152.884 49.7938 152.55C47.9875 152.216 43.3551 151.406 43.3551 151.406L42.0942 119.788L38.7651 117.862Z" fill="#231F20"/>
<path fill-rule="evenodd" clip-rule="evenodd" d="M43.8651 161.837H46.3443C46.5344 161.833 46.6876 161.679 46.6914 161.488C46.6882 160.286 46.5141 159.089 46.1743 157.936C45.7467 156.951 45.1306 156.06 44.361 155.314C44.5604 155.317 44.7849 155.321 45.0256 155.325C46.3405 155.347 48.1366 155.378 48.9509 155.378C49.7868 155.378 50.9201 156.87 51.4301 157.808C51.4935 157.921 51.6124 157.991 51.7418 157.993H54.4122C54.5415 157.991 54.6604 157.921 54.7238 157.808C54.7871 157.698 54.7871 157.563 54.7238 157.453C54.4334 156.955 51.7913 152.593 49.893 152.237C48.363 151.946 44.7647 151.321 43.7305 151.143L42.4768 119.809C42.4725 119.687 42.4054 119.577 42.2997 119.518L38.9422 117.578C38.836 117.521 38.7085 117.521 38.6022 117.578C38.4967 117.639 38.4277 117.748 38.4181 117.869L36.3356 151.491C34.8906 151.555 29.146 151.889 27.4815 153.054C25.5973 154.376 24.1381 160.011 24.0815 160.245C24.0558 160.351 24.0792 160.463 24.1452 160.55C24.2112 160.637 24.3127 160.689 24.4215 160.693H26.681C26.8377 160.69 26.975 160.587 27.021 160.437C27.5027 158.867 28.6148 156.238 29.5356 155.897C30.6477 155.449 36.6118 155.236 38.9139 155.186C39.3814 155.385 42.6326 156.813 43.1639 159.037C43.4064 159.792 43.5283 160.581 43.5251 161.375C43.4918 161.483 43.5101 161.601 43.5747 161.694C43.6458 161.783 43.7522 161.835 43.8651 161.837ZM45.9689 161.126H44.2335C44.1709 160.357 44.0333 159.595 43.8227 158.852C43.1568 156.096 39.2185 154.547 39.0485 154.483H38.9139C38.581 154.483 30.5769 154.703 29.2311 155.193C27.8853 155.683 26.7236 158.945 26.3978 159.947H24.8819C25.3848 158.142 26.6173 154.497 27.8923 153.602C29.2948 152.642 34.7136 152.252 36.6827 152.181C36.8648 152.174 37.0119 152.029 37.0227 151.847L39.0839 118.452L41.7756 120.008L43.0152 151.427C43.0198 151.598 43.1447 151.741 43.3127 151.768C43.3693 151.776 47.9664 152.571 49.7443 152.905C50.9343 153.126 52.8185 155.754 53.7676 157.254H51.9401C51.5576 156.593 50.2968 154.639 48.9439 154.639C47.7947 154.639 44.6879 154.577 43.7525 154.559C43.5867 154.556 43.4891 154.554 43.4827 154.554C43.3351 154.557 43.2028 154.646 43.1427 154.781C43.092 154.918 43.1283 155.072 43.2348 155.172C43.2356 155.173 43.2393 155.176 43.2457 155.182C43.3974 155.323 45.0595 156.867 45.5014 158.142C45.7882 159.111 45.9454 160.115 45.9689 161.126Z" fill="#231F20"/>
<path d="M79.7207 96.2195C79.7207 96.2195 108.011 97.7329 109.796 101.776C111.581 105.819 98.4631 150.276 98.4631 150.276C98.4631 150.276 112.311 155.079 110.044 156.088C107.778 157.097 85.1111 155.079 85.1111 155.079L95.8565 113.869L67.8633 111.979L79.7207 96.2195Z" fill="white"/>
<path fill-rule="evenodd" clip-rule="evenodd" d="M85.1037 155.435C86.9241 155.598 99.837 156.728 106.481 156.728C107.739 156.806 109.001 156.7 110.228 156.415C110.506 156.327 110.693 156.068 110.689 155.776C110.632 154.319 102.699 151.371 98.9374 150.056C100.227 145.686 111.893 105.606 110.143 101.634C109.846 100.959 108.946 98.9195 94.1491 97.1289C86.9241 96.2479 79.8266 95.8642 79.7558 95.8642C79.6375 95.849 79.5212 95.9046 79.4583 96.0063L67.5938 111.794C67.5126 111.897 67.4962 112.037 67.5513 112.157C67.6098 112.271 67.7215 112.348 67.8488 112.363L95.417 114.224L84.792 154.987C84.7644 155.089 84.7825 155.198 84.8416 155.286C84.9031 155.371 84.9988 155.426 85.1037 155.435ZM109.924 155.762C108.174 156.543 92.1517 155.342 85.5784 154.76L96.2175 113.997C96.2379 113.894 96.2176 113.787 96.1608 113.698C96.0963 113.614 95.9979 113.562 95.8917 113.556L68.5501 111.702L79.8834 96.5889C87.8309 97.0224 108.047 98.7063 109.463 101.925C110.88 105.144 101.757 137.856 98.13 150.184C98.0734 150.366 98.1703 150.561 98.3496 150.624C103.634 152.451 109.456 154.902 109.924 155.762Z" fill="#231F20"/>
<path d="M70.1226 70.9532C70.1226 70.9532 84.6575 89.1426 90.8695 88.6382C97.0816 88.1337 114.875 65.7095 114.875 65.7095C118.091 61.8584 121.689 56.97 119.387 51.6624C119.16 51.1508 118.764 50.6037 118.211 50.6463C117.979 50.6821 117.758 50.7722 117.566 50.9092L115.583 52.1313C115.647 51.5842 114.953 51.1934 114.422 51.3426C113.904 51.5455 113.474 51.9222 113.203 52.4084C111.142 55.35 109.81 58.1495 109.924 61.7732L89.127 72.4311L80.875 63.2724" fill="white"/>
<path d="M90.6221 89.0005C84.1693 89.0005 70.4347 71.9479 69.8468 71.1734C69.745 71.0198 69.7774 70.8135 69.9214 70.6987C70.0654 70.5838 70.2731 70.5987 70.3993 70.7329C70.541 70.9105 84.5093 88.2971 90.6009 88.2971H90.8417C96.8342 87.8139 114.408 65.7237 114.578 65.4963C117.9 61.5316 121.25 56.8847 119.047 51.8187C118.962 51.6197 118.665 50.9874 118.226 51.0158C118.049 51.0481 117.881 51.1211 117.737 51.2289L115.74 52.4439C115.624 52.5154 115.479 52.5147 115.364 52.4422C115.25 52.3696 115.186 52.2379 115.201 52.1029C115.21 51.9984 115.161 51.8973 115.074 51.84C114.91 51.709 114.698 51.657 114.493 51.6979C114.057 51.8845 113.695 52.2121 113.466 52.6287C111.723 55.1155 110.13 57.9434 110.25 61.7803C110.254 61.9171 110.18 62.0442 110.059 62.1071L89.2622 72.765C89.1192 72.8387 88.9447 72.8066 88.8372 72.6868L80.5922 63.5139C80.5251 63.4472 80.4874 63.3564 80.4874 63.2617C80.4874 63.167 80.5251 63.0762 80.5922 63.0095C80.7323 62.8732 80.955 62.8732 81.0951 63.0095L89.1559 71.9479L109.52 61.5387C109.457 57.6095 111.086 54.7176 112.864 52.1811C113.183 51.6263 113.683 51.1995 114.28 50.9732C114.716 50.8681 115.176 50.9761 115.52 51.2645C115.615 51.3479 115.697 51.4462 115.761 51.5558L117.347 50.5824C117.587 50.4141 117.864 50.3068 118.155 50.2697C118.771 50.22 119.317 50.6747 119.671 51.4989C122.235 57.3963 117.602 62.9384 115.109 65.9155C114.401 66.825 97.1742 88.4605 90.8771 88.9721L90.6221 89.0005Z" fill="#231F20"/>
<path d="M22.5447 67.8482C22.5447 67.8482 15.0577 84.8653 17.8343 86.6842C20.611 88.5032 37.5117 86.6842 37.5117 86.6842L36.0455 64.6579" fill="white"/>
<path d="M24.2583 87.8068C21.2338 87.8068 18.5917 87.5937 17.6284 86.9542C17.1467 86.6416 15.6734 85.6824 18.8113 76.4668C20.32 72.0261 22.1971 67.7487 22.2184 67.7061C22.2591 67.5761 22.3703 67.481 22.5047 67.4612C22.6391 67.4414 22.7729 67.5004 22.8492 67.6131C22.9255 67.7258 22.9308 67.8723 22.8629 67.9903C20.0296 74.4632 16.1905 85.1708 18.018 86.3574C20.1429 87.7784 32.1846 86.8405 37.1429 86.3574L35.7262 64.6792C35.7125 64.483 35.86 64.3128 36.0556 64.2991C36.2512 64.2853 36.4208 64.4333 36.4345 64.6295L37.9008 86.6558C37.9132 86.847 37.7721 87.0136 37.582 87.0324C37.0862 87.0608 29.9462 87.8068 24.2583 87.8068Z" fill="#231F20"/>
<path d="M28.643 96.6884C28.643 96.6884 24.9809 104.845 28.8838 109.989C32.7867 115.134 86.9669 115.752 86.9669 115.752L90.8556 96.2195L68.189 93.1216L66.8715 86.3645L28.643 96.6884Z" fill="white"/>
<path fill-rule="evenodd" clip-rule="evenodd" d="M59.3563 115.155C73.2679 115.944 86.8466 116.107 86.9812 116.107C87.1517 116.106 87.2976 115.984 87.3283 115.816L91.1745 96.2621C91.1953 96.1681 91.1746 96.0697 91.1178 95.9921C91.063 95.9096 90.9751 95.8551 90.877 95.8429L68.4867 92.7876L67.2188 86.2721C67.2003 86.178 67.1439 86.0958 67.0629 86.0447C66.9797 85.9884 66.8756 85.9727 66.7796 86.0021L28.5298 96.326C28.4253 96.3524 28.339 96.4259 28.296 96.525C28.1402 96.866 24.5986 104.938 28.5794 110.181C30.2652 112.419 40.621 114.089 59.3563 115.155ZM29.1671 109.776C25.7246 105.243 28.4375 98.1166 28.8979 96.9868L66.6448 86.805L67.8844 93.1997C67.9131 93.3484 68.0325 93.4625 68.1819 93.4839L90.4518 96.525L86.6906 115.404C67.9269 115.176 32.1563 113.713 29.1671 109.776Z" fill="#231F20"/>
<path d="M50.8422 27.9734C50.2894 27.6406 49.8078 27.2011 49.4255 26.6803C48.895 25.9173 48.5107 25.0619 48.2922 24.1579C46.3726 17.1947 46.3585 8.27763 52.5422 3.51C56.2431 0.673137 61.0856 -0.187643 65.533 1.20079C68.5363 2.18131 71.0863 6.32368 72.425 9.01658C73.5229 11.1979 74.2667 13.5711 75.57 15.6316C76.8733 17.6921 78.9487 19.4968 81.3854 19.6176C79.4302 20.715 77.0824 20.8563 75.0104 20.0013C75.9842 21.3125 77.632 21.9319 79.225 21.5858C77.8083 22.7155 75.7825 22.6729 73.9975 22.2963C72.2125 21.9197 70.4559 21.3513 68.6213 21.5858C65.788 21.9055 63.9463 23.9945 61.7292 25.5079C58.9172 27.3553 54.058 29.8421 50.8422 27.9734Z" fill="white"/>
<path fill-rule="evenodd" clip-rule="evenodd" d="M50.679 28.2861C51.5432 28.7726 52.5215 29.0179 53.5123 28.9966C56.7281 28.9966 60.2697 26.8721 61.9202 25.7211C62.4939 25.3232 63.0464 24.8968 63.5847 24.4776C63.6547 24.4244 63.7245 24.3712 63.7942 24.3182C65.2971 23.173 66.7406 22.0731 68.6564 21.8558C70.0017 21.7814 71.3499 21.9352 72.6443 22.3105C73.0693 22.41 73.4943 22.5095 73.9193 22.5876C76.3134 23.0495 78.1692 22.7795 79.4371 21.7776C79.5702 21.6746 79.6127 21.492 79.5389 21.3405C79.4651 21.189 79.2953 21.1104 79.1326 21.1524C78.1814 21.3633 77.1858 21.1952 76.3559 20.6834C78.1251 21.0159 79.9544 20.7168 81.5267 19.8379C81.6676 19.7636 81.7382 19.6012 81.6967 19.4471C81.6616 19.2935 81.5279 19.1828 81.3709 19.1771C78.4738 19.035 76.5472 16.4629 75.8388 15.3616C75.083 14.0845 74.4293 12.7492 73.8838 11.3684C73.5226 10.5087 73.1401 9.62053 72.7151 8.7679C71.4614 6.24553 68.8476 1.85448 65.6318 0.810002C61.0714 -0.62323 56.1009 0.259441 52.3081 3.17605C44.5519 9.1729 47.0169 20.7829 47.9519 24.1934C48.1796 25.1504 48.5831 26.0564 49.1419 26.865C49.5505 27.4405 50.0739 27.9244 50.679 28.2861ZM52.7258 3.76579C55.1783 1.8839 58.1806 0.865047 61.2683 0.866842C62.6791 0.860071 64.0822 1.07586 65.4262 1.50632C68.5145 2.50816 71.1282 7.155 72.1057 9.10895C72.4649 9.77808 72.7599 10.4794 73.0497 11.1685C73.1199 11.3356 73.1898 11.5019 73.2603 11.6668C73.8189 13.0836 74.4917 14.4524 75.272 15.7595C76.3508 17.6479 78.0979 19.0605 80.1665 19.7171C78.5429 20.2974 76.7633 20.2595 75.1657 19.6105C75.0208 19.5455 74.8502 19.5897 74.7549 19.7171C74.6604 19.8434 74.6604 20.0171 74.7549 20.1434C75.4625 21.0948 76.5119 21.732 77.6803 21.9197C76.5014 22.1953 75.2751 22.1953 74.0961 21.9197C73.7827 21.8611 73.4693 21.7905 73.1558 21.7199C73.0513 21.6964 72.9469 21.6728 72.8424 21.6497C71.4632 21.2495 70.0254 21.0909 68.5924 21.1808C66.3895 21.4295 64.7462 22.7084 63.1595 23.9447C62.6354 24.3568 62.09 24.7832 61.5375 25.1597C59.9366 26.2468 54.4471 29.6574 51.0329 27.6679C50.5144 27.3623 50.0637 26.9537 49.7083 26.4671C49.1993 25.7319 48.8318 24.9078 48.6246 24.0371C47.7109 20.7261 45.3238 9.49974 52.7258 3.76579Z" fill="#231F20"/>
<path d="M70.0381 22.9145C70.0381 22.9145 71.9718 28.9824 70.9589 29.8421C69.946 30.7018 67.8423 29.3518 67.8423 29.3518" fill="white"/>
<path d="M70.1014 30.4887C69.2351 30.4143 68.4005 30.1263 67.6718 29.6503C67.5581 29.5851 67.4894 29.4623 67.4933 29.331C67.4973 29.1996 67.5732 29.0812 67.6907 29.0231C67.8082 28.9649 67.948 28.9766 68.0543 29.0534C68.5502 29.3661 70.1014 30.1405 70.746 29.5721C71.2347 29.1529 70.6043 25.8489 69.6977 23.0282C69.6419 22.8401 69.7455 22.6416 69.9314 22.5805C70.1172 22.5198 70.3169 22.6216 70.3777 22.8079C70.8452 24.2858 72.2972 29.2026 71.2064 30.1121C70.8977 30.3714 70.5037 30.5057 70.1014 30.4887Z" fill="#231F20"/>
<path d="M71.2141 15.9584C72.8645 18.3174 71.2141 21.8558 70.5058 24.2645C69.5283 27.6561 68.4729 31.0216 67.3396 34.3611C66.6312 36.4926 61.0496 34.9508 60.2563 34.0342L58.7404 42.7808L47.0034 38.7095L50.7788 28.1013C50.7788 28.1013 54.5542 29.1955 57.9542 25.4226C61.3542 21.6497 63.72 12.0292 63.72 12.0292C63.72 12.0292 69.6062 13.6492 71.2141 15.9584Z" fill="white"/>
<path fill-rule="evenodd" clip-rule="evenodd" d="M58.6194 43.1361H58.7328C58.7857 43.1322 58.8368 43.1151 58.8815 43.0863C58.9726 43.0367 59.0354 42.9474 59.0515 42.8447L60.4682 34.6595C62.1689 35.5479 64.0945 35.909 66.0002 35.6968C66.7202 35.6338 67.3467 35.1774 67.6294 34.5103C68.7627 31.1779 69.8252 27.7745 70.8027 24.3995C70.9231 23.9945 71.0648 23.5611 71.2135 23.1063L71.2275 23.0638C71.997 20.7273 72.9259 17.9066 71.4615 15.7879C69.8249 13.4477 64.2034 11.8492 63.7791 11.7286C63.7718 11.7265 63.7661 11.7249 63.7619 11.7237C63.6757 11.6882 63.579 11.6882 63.4927 11.7237C63.4101 11.771 63.351 11.8509 63.3298 11.9439C63.3298 12.0434 60.8648 21.6284 57.6632 25.1811C54.5173 28.6718 51.1116 27.8271 50.8528 27.7629C50.8482 27.7618 50.8446 27.7609 50.842 27.7603C50.6644 27.7084 50.4775 27.8053 50.417 27.9805L46.6699 38.6242C46.638 38.7138 46.638 38.8117 46.6699 38.9013C46.7109 38.9865 46.7853 39.0509 46.8753 39.0789L58.6194 43.1361ZM58.4566 42.3118L47.4491 38.4892L50.9695 28.4992C51.9966 28.6982 55.2124 28.9468 58.1803 25.6571C61.2686 22.2324 63.4645 14.2887 63.939 12.4768C65.2282 12.8605 69.6198 14.3384 70.8948 16.1574C72.1538 17.9535 71.2856 20.6087 70.5816 22.7615C70.5727 22.7889 70.5637 22.8162 70.5548 22.8434C70.5066 22.9956 70.4583 23.1449 70.411 23.2911C70.3125 23.5954 70.2183 23.8867 70.1369 24.165C69.1665 27.5329 68.0969 30.9221 66.9707 34.2403C66.8432 34.6239 66.4749 34.8797 65.8657 35.0005C64.0665 35.3558 60.9995 34.3895 60.4895 33.7997C60.4 33.6963 60.2593 33.6536 60.1277 33.69C59.9961 33.7264 59.8971 33.8355 59.8732 33.9703L58.4566 42.3118Z" fill="#231F20"/>
<path d="M67.9695 31.8032C67.9695 31.8032 64.8882 32.6842 64.2578 29.565Z" fill="white"/>
<path d="M67.0274 32.2721C66.4197 32.2877 65.8193 32.1353 65.292 31.8316C64.5281 31.3371 64.0122 30.5377 63.8754 29.6361C63.8406 29.4418 63.9672 29.2553 64.1601 29.2166C64.353 29.1779 64.5413 29.3012 64.5837 29.4939C64.6788 30.1942 65.0648 30.8214 65.6462 31.2205C66.3275 31.5646 67.1098 31.6504 67.8491 31.4621C67.9756 31.4278 68.1108 31.4639 68.2036 31.5567C68.2965 31.6495 68.3329 31.7849 68.2993 31.9119C68.2656 32.039 68.1669 32.1384 68.0404 32.1726C67.708 32.2471 67.3679 32.2805 67.0274 32.2721V32.2721Z" fill="#231F20"/>
<path d="M62.9336 23.2626C63.0775 22.3855 62.977 21.4856 62.6432 20.6621C62.4705 19.9972 62.2033 19.3607 61.8499 18.7721C61.4777 18.1846 60.8659 17.7919 60.1782 17.6992C59.5602 17.6881 58.9681 17.9475 58.5561 18.4097C58.1426 18.8549 57.8371 19.3898 57.6636 19.9729C56.8299 22.5327 57.4153 25.3441 59.2007 27.3553L59.0661 27.0995" fill="white"/>
<path d="M59.2003 27.7105C59.1012 27.7095 59.0068 27.6685 58.9382 27.5968C57.0642 25.479 56.4496 22.5235 57.3232 19.8308C57.5131 19.1962 57.8478 18.6148 58.3007 18.1326C58.7943 17.6087 59.4878 17.3216 60.2061 17.3439C61.0045 17.4347 61.7172 17.8878 62.1399 18.5732C62.5161 19.189 62.8001 19.8569 62.9828 20.5555C63.3378 21.4407 63.4408 22.4074 63.2803 23.3479C63.2284 23.5394 63.0326 23.6534 62.8411 23.6037C62.654 23.5518 62.5435 23.3585 62.5932 23.1703C62.7119 22.3581 62.6116 21.5288 62.3028 20.7687C62.1439 20.1373 61.8908 19.5336 61.5519 18.9782C61.2444 18.4702 60.723 18.1302 60.1353 18.0545C59.6253 18.0446 59.1355 18.2541 58.7895 18.63C58.4127 19.0346 58.1339 19.5209 57.9749 20.0511C57.2304 22.3362 57.6628 24.8429 59.1295 26.7442C59.229 26.7716 59.3133 26.8382 59.3632 26.9289L59.4907 27.1847C59.5755 27.3429 59.5265 27.5399 59.3774 27.6395C59.3265 27.68 59.265 27.7047 59.2003 27.7105V27.7105Z" fill="#231F20"/>
<ellipse cx="1.25739" cy="0.5" rx="1.25739" ry="0.5" transform="matrix(0.218501 -0.975837 0.97592 0.218126 69.0142 21.1031)" fill="#231F20"/>
<path d="M60.249 34.0342C58.71 33.0325 57.2361 31.9337 55.8361 30.7445C55.8361 30.7445 55.1277 36.8976 59.3281 38.3116L60.249 34.0342Z" fill="#231F20"/>
<path fill-rule="evenodd" clip-rule="evenodd" d="M59.2146 38.6668C59.252 38.6736 59.2904 38.6736 59.3279 38.6668C59.3894 38.6669 59.4501 38.6523 59.505 38.6242C59.5917 38.5732 59.6533 38.4882 59.675 38.3897L60.5958 34.1266C60.6228 33.9832 60.5613 33.8376 60.44 33.7571C58.9147 32.7597 57.4527 31.6681 56.0625 30.4887C55.9606 30.4069 55.8232 30.3853 55.7012 30.4318C55.5811 30.4821 55.4972 30.5934 55.4817 30.7232C55.4533 30.9861 54.8087 37.1818 59.2146 38.6668ZM59.0725 37.8284C56.3526 36.6205 56.1542 32.9897 56.1542 31.4692C57.3385 32.4427 58.5727 33.3534 59.8517 34.1976L59.0725 37.8284Z" fill="#231F20"/>
<path d="M26.4473 99.3813C26.4473 99.3813 27.0848 55.8971 33.5872 45.8858C40.0897 35.8745 56.9621 33.615 65.0087 39.5834C73.0554 45.5518 69.1808 91.1676 69.1808 91.1676C69.1808 91.1676 43.5251 99.3813 26.4473 99.3813Z" fill="#E7816B"/>
<path d="M59.3915 37.0255C63.6716 38.7696 67.6719 41.1375 71.2631 44.0526C76.8305 48.6924 88.5817 68.6439 88.5817 68.6439L73.0835 78.0584L59.1719 60.8495L59.3915 37.0255Z" fill="#E7816B"/>
<path d="M40.288 39.7326C40.288 39.7326 32.1776 40.6492 27.8851 49.5805C25.5618 54.4263 19.6118 70.0721 19.6118 70.0721L37.5042 72.1397L40.288 39.7326Z" fill="#E7816B"/>
<path d="M71.9217 76.9713C71.8087 76.9708 71.703 76.9152 71.6384 76.8221L57.8189 57.9434C57.7625 57.868 57.7383 57.7733 57.7516 57.68C57.7649 57.5867 57.8146 57.5026 57.8897 57.4461C58.049 57.3339 58.2682 57.3684 58.3855 57.5242L72.2051 76.4029C72.2856 76.5105 72.2985 76.6546 72.2385 76.7749C72.1785 76.8953 72.0559 76.9713 71.9217 76.9713V76.9713Z" fill="#231F20"/>
<path d="M113.175 55.6342L116.632 44.8697L117.709 45.1824L115.534 55.7976C115.534 55.7976 114.004 57.2755 113.175 55.6342Z" fill="#231F20"/>
<path fill-rule="evenodd" clip-rule="evenodd" d="M113.997 56.7639H114.238C114.815 56.7249 115.361 56.4863 115.782 56.0889C115.832 56.0412 115.867 55.9793 115.881 55.9113L118.056 45.2534C118.093 45.0723 117.985 44.893 117.808 44.8413L116.731 44.5287C116.546 44.4809 116.356 44.5827 116.292 44.7632L112.857 55.5418C112.821 55.6283 112.821 55.7254 112.857 55.8118C113.056 56.2989 113.483 56.6554 113.997 56.7639ZM114.089 56.0463C113.844 55.9863 113.639 55.8195 113.53 55.5916L116.837 45.3103L117.27 45.4311L115.18 55.6129C114.887 55.8944 114.495 56.0499 114.089 56.0463Z" fill="#231F20"/>
<path d="M47.8105 31.2632C41.4355 29.8421 34.3522 30.8368 29.2027 34.8158C27.0203 36.4136 25.3808 38.6461 24.5064 41.2105C23.6655 43.8258 24.1579 46.6886 25.8239 48.87C30.7114 54.7603 41.4426 54.7318 48.0797 52.8063C52.6059 51.4989 66.0075 45.1184 62.3171 38.8516C59.6609 34.3682 52.5917 32.2934 47.8105 31.2632Z" fill="#E7816B"/>
<path d="M39.6934 53.3392C35.4694 53.2163 31.3447 52.0262 27.7013 49.8789C27.6198 49.8305 27.5616 49.7507 27.5402 49.6581C27.5188 49.5655 27.5361 49.4682 27.588 49.3887C27.6938 49.2241 27.9124 49.1764 28.0767 49.2821C28.1617 49.3389 36.9238 54.8029 45.2183 51.6482C49.1991 50.1347 51.5933 47.4489 53.8812 44.8555C56.4099 42.0134 58.797 39.3276 62.9195 38.9511C63.0135 38.9432 63.1067 38.9733 63.1785 39.0347C63.2503 39.096 63.2948 39.1836 63.302 39.2779C63.3118 39.3715 63.2835 39.465 63.2235 39.5373C63.1634 39.6096 63.0768 39.6544 62.9832 39.6616C59.1441 40.0097 56.9483 42.5037 54.4125 45.3458C52.16 47.8824 49.61 50.7529 45.4662 52.3303C43.6186 53.0138 41.6626 53.3557 39.6934 53.3392Z" fill="#231F20"/>
<path d="M27.0844 83.8421V83.8421C26.9905 83.8384 26.9018 83.7974 26.8381 83.7281C26.7743 83.6588 26.7406 83.5669 26.7444 83.4726C27.2615 72.225 29.5778 56.0392 29.5778 55.8758C29.6104 55.6835 29.7888 55.5517 29.9815 55.5774C30.1721 55.6066 30.3044 55.7835 30.279 55.9753C30.279 56.1387 27.9344 72.3174 27.4457 83.5011C27.438 83.6945 27.2774 83.8461 27.0844 83.8421Z" fill="#231F20"/>
<path d="M81.4067 154.319H96.4587C96.4587 154.319 98.095 150.66 101.622 150.156C101.622 150.156 115.35 155.975 113.331 157.168C111.312 158.362 80.3442 158.234 80.3442 158.234L81.4067 154.319Z" fill="#231F20"/>
<path fill-rule="evenodd" clip-rule="evenodd" d="M80.3366 158.597H83.5029C91.7124 158.597 111.794 158.49 113.515 157.453C113.754 157.325 113.9 157.071 113.89 156.799C113.798 155.037 104.59 151.001 101.757 149.807C101.696 149.79 101.632 149.79 101.572 149.807C98.3636 150.269 96.6566 153.154 96.2387 153.971H81.4062C81.2442 153.969 81.1013 154.077 81.0591 154.234L79.9966 158.149C79.9674 158.257 79.9911 158.373 80.0604 158.462C80.1265 158.547 80.2286 158.597 80.3366 158.597ZM113.153 156.863C111.751 157.694 93.2209 157.922 80.8038 157.886L81.6751 154.674H96.4579C96.5975 154.676 96.7251 154.596 96.7838 154.468C96.7979 154.433 98.3563 151.044 101.572 150.518C107.154 152.891 113.153 155.982 113.153 156.863Z" fill="#231F20"/>
<path d="M70.0306 119.368C79.6143 117.343 86.0389 112.846 82.2705 106.778C78.5022 100.71 51.4369 104.646 46.1457 100.149C40.8545 95.6511 42.7457 71.7987 36.9374 67.7132C31.1291 63.6276 6.23133 59.4995 3.4476 64.6579C0.663861 69.8163 3.4476 107.353 11.558 115.688C19.6684 124.022 60.6807 121.301 70.0306 119.368Z" fill="#231F20"/>
<path fill-rule="evenodd" clip-rule="evenodd" d="M40.3164 121.749H41.9173C53.3143 121.749 65.2426 120.704 70.123 119.624C77.2275 118.125 81.8883 115.489 83.305 112.206C84.07 110.43 83.8291 108.512 82.5966 106.522C80.4646 103.097 71.5609 102.735 62.9547 102.387L62.9284 102.386C55.9454 102.102 48.7355 101.809 46.3868 99.8076C43.915 97.6976 43.0295 90.8707 42.1725 84.2634L42.1723 84.2613L42.1682 84.2304C41.2274 77.0069 40.2553 69.5432 37.136 67.3508C32.1777 63.8834 14.3774 60.5439 6.67786 62.3771C4.8362 62.8461 3.65329 63.5495 3.13621 64.5087C0.125807 70.1147 3.25662 107.666 11.2749 115.965C15.7728 120.569 29.5498 121.656 40.3164 121.749ZM6.81977 63.1018C8.54354 62.7445 10.3015 62.5801 12.0614 62.6116C20.5543 62.6116 32.8792 65.2903 36.7042 67.9974C39.58 70.0082 40.5363 77.3692 41.45 84.4176C42.3638 91.4661 43.2279 98.1237 45.9054 100.412C48.4412 102.579 55.4679 102.863 62.9053 103.161L62.9296 103.162C71.3653 103.503 80.0417 103.854 81.9736 106.963C83.0786 108.746 83.2981 110.444 82.6323 112.007C81.3502 115.034 76.7319 117.592 69.9532 119.013C60.5537 120.967 19.7539 123.639 11.8135 115.461C4.0077 107.417 1.01147 69.9442 3.75979 64.8497C4.17062 64.0753 5.20478 63.4855 6.81977 63.1018Z" fill="#231F20"/>
<path d="M87.8168 99.7366H87.7602L64.9236 95.7292C64.728 95.6958 64.5964 95.5097 64.6297 95.3135C64.6629 95.1173 64.8484 94.9853 65.044 95.0187L87.8806 99.026C88.0762 99.0437 88.2205 99.2171 88.2029 99.4133C88.1853 99.6095 88.0124 99.7542 87.8168 99.7366V99.7366Z" fill="#D1D3D4"/>
<path d="M153.656 146.368L152.948 146.29C152.948 146.084 155.179 125.514 148.082 116.377L148.641 115.944C151.701 119.88 153.479 126.204 153.911 134.737C154.107 138.615 154.022 142.503 153.656 146.368V146.368Z" fill="#231F20"/>
<path d="M151.213 148.99C151.201 148.751 151.225 148.512 151.284 148.28C152.976 137.515 150.108 132.499 147.402 130.183L147.862 129.643C150.696 132.073 153.727 137.302 151.985 148.393C151.942 148.663 151.914 148.841 151.914 148.912L151.213 148.99Z" fill="#231F20"/>
<path d="M147.536 125.614C146.963 125.277 146.316 125.087 145.652 125.06C144.461 124.889 143.253 125.22 142.316 125.976C142.082 126.204 141.877 126.587 142.089 126.836C142.215 126.952 142.373 127.026 142.542 127.049C143.485 127.319 144.222 128.058 144.49 129.003C144.002 128.641 143.584 128.179 143.074 127.817C142.602 127.42 141.995 127.221 141.381 127.262C140.715 127.42 140.129 127.814 139.73 128.371C139.273 128.862 138.893 129.42 138.604 130.026C138.303 130.635 138.213 131.328 138.349 131.994C138.995 131.808 139.674 131.762 140.339 131.859C140.813 131.902 141.263 132.088 141.629 132.392C141.739 132.478 141.819 132.598 141.855 132.733C141.879 133.019 141.688 133.278 141.409 133.337C141.139 133.401 140.858 133.401 140.587 133.337C140.01 133.219 139.426 133.136 138.838 133.089C138.618 133.06 138.394 133.075 138.179 133.131C137.66 133.422 137.377 134.006 137.471 134.595C137.46 134.836 137.55 135.07 137.719 135.242C138.009 135.469 138.427 135.306 138.767 135.163C139.36 134.915 139.994 134.78 140.637 134.766C140.71 134.759 140.783 134.771 140.849 134.801C140.922 134.852 140.97 134.931 140.981 135.019C140.991 135.107 140.964 135.196 140.906 135.263C140.787 135.397 140.628 135.489 140.453 135.526C139.967 135.68 139.469 135.797 138.965 135.874C138.675 135.917 138.335 135.981 138.193 136.243C138.138 136.359 138.112 136.485 138.115 136.613C138.087 137.577 138.365 138.525 138.909 139.32C138.997 139.464 139.112 139.59 139.249 139.689C139.443 139.793 139.659 139.851 139.879 139.86C141.565 140.035 143.268 139.791 144.837 139.149C144.919 139.121 144.99 139.069 145.043 139C145.135 138.837 144.979 138.645 144.859 138.503C144.334 137.856 144.455 136.926 144.604 136.108C144.616 135.95 144.681 135.799 144.788 135.682C144.994 135.543 145.271 135.586 145.425 135.782C145.568 135.976 145.65 136.208 145.659 136.449C145.764 137.29 145.696 138.144 145.461 138.958C146.276 138.767 147.071 138.496 147.834 138.148C148.45 137.908 149.032 137.585 149.562 137.188C150.095 136.785 150.468 136.207 150.617 135.554C150.649 135.433 150.636 135.305 150.582 135.192C150.527 135.114 150.454 135.051 150.369 135.007C149.631 134.528 149.049 133.841 148.698 133.032C148.627 132.861 148.592 132.627 148.747 132.542C148.814 132.52 148.886 132.52 148.953 132.542C149.845 132.691 150.299 133.693 151.035 134.226C151.094 134.274 151.165 134.304 151.241 134.311C151.332 134.311 151.42 134.272 151.482 134.204C151.778 133.928 151.979 133.565 152.055 133.167C152.269 132.385 152.224 131.555 151.928 130.801C151.618 130.045 150.982 129.472 150.199 129.245C149.837 129.161 149.463 129.144 149.094 129.195C148.967 129.195 148.287 129.437 148.195 129.351C148.103 129.266 148.464 128.754 148.549 128.584C149.009 127.532 148.393 126.182 147.536 125.614Z" fill="#231F20"/>
<path d="M158.239 119.184C157.11 119.174 156.05 119.725 155.406 120.654C154.977 121.397 154.802 122.261 154.91 123.113C155.02 123.955 155.225 124.782 155.519 125.578C156.075 124.577 157.087 123.915 158.225 123.809C159.379 123.71 158.034 124.825 157.835 125.06C157.184 125.827 156.56 126.616 155.944 127.412C155.764 127.611 155.643 127.857 155.597 128.122C155.595 128.408 155.679 128.688 155.838 128.925C156.317 129.99 157.046 130.924 157.963 131.646C158.216 131.869 158.573 131.927 158.884 131.796C159.027 131.675 159.134 131.518 159.195 131.341C159.534 130.626 159.976 129.966 160.506 129.38C160.633 129.231 160.839 129.081 161.001 129.188C161.164 129.294 161.136 129.458 161.122 129.614L160.973 131.199C160.874 131.77 160.908 132.356 161.072 132.911C161.448 133.92 162.581 134.424 163.636 134.623C163.924 134.702 164.227 134.702 164.515 134.623C165.081 134.424 165.315 133.749 165.414 133.153C165.526 132.371 165.847 131.634 166.342 131.021C166.471 132.053 166.801 133.05 167.313 133.956C167.569 134.443 167.924 134.871 168.354 135.213C168.812 135.539 169.337 135.758 169.891 135.853C170.825 136.021 171.777 136.074 172.724 136.009C173.38 136.017 174.033 135.933 174.665 135.76C175.302 135.581 175.849 135.168 176.195 134.602C176.755 133.593 176.323 132.293 175.6 131.398C174.878 130.502 173.9 129.834 173.149 128.961C174.086 129.219 174.958 129.674 175.706 130.296C175.885 130.502 176.143 130.621 176.415 130.623C176.539 130.596 176.653 130.532 176.741 130.438C177.86 129.316 176.571 127.419 175.976 126.41C175.659 125.692 175.096 125.112 174.389 124.776C173.971 124.669 173.532 124.669 173.114 124.776C172.476 124.882 169.317 126.324 170.663 124.427C171.397 123.576 172.475 123.104 173.596 123.141C174.141 123.191 174.97 123.632 174.956 122.608C174.917 122.242 174.775 121.894 174.545 121.607C174.107 120.949 173.634 120.316 173.128 119.709C173.002 119.524 172.813 119.39 172.597 119.333C172.409 119.326 172.223 119.378 172.066 119.482C170.774 120.267 169.347 120.802 167.858 121.059C167.518 121.059 167.044 120.953 167.1 120.619C167.134 120.497 167.212 120.393 167.32 120.328C168.219 119.617 169.565 119.923 170.486 119.269C170.763 119.092 170.948 118.8 170.989 118.473C170.989 117.997 170.599 117.621 170.217 117.329C169.261 116.497 168.089 115.952 166.838 115.759C164.975 115.61 163.296 116.839 162.043 118.239C161.625 118.715 161.334 119.951 160.69 119.873C160.283 119.729 159.886 119.56 159.5 119.368C159.092 119.241 158.666 119.178 158.239 119.184V119.184Z" fill="#231F20"/>
<path d="M149.215 109.35C149.135 108.631 148.807 107.962 148.287 107.46C147.338 106.593 145.914 106.551 144.646 106.749C143.696 106.953 142.763 107.231 141.856 107.581C140.942 107.844 140.673 108.05 141.487 108.796C142.061 109.314 143.612 111.169 142.904 112.057C142.196 112.945 141.006 110.679 140.545 110.302C139.944 109.714 139.146 109.372 138.307 109.343C137.572 109.469 136.897 109.827 136.38 110.366C135.828 110.856 135.303 111.375 134.808 111.922C134.727 112 134.665 112.095 134.624 112.199C134.51 112.611 135.07 112.853 135.488 112.91C136.685 113.13 138.024 113.755 138.264 114.949C137.032 115.254 135.87 114.004 134.609 114.139C133.68 114.363 132.923 115.037 132.591 115.937C132.25 116.736 132.145 117.616 132.286 118.473C133.35 118.103 134.49 118.005 135.601 118.189C135.739 118.197 135.87 118.255 135.969 118.352C136.075 118.551 136.002 118.797 135.806 118.907C135.614 119.003 135.397 119.04 135.183 119.013H133.129C132.928 118.992 132.726 119.039 132.555 119.148C132.417 119.292 132.336 119.481 132.329 119.681C132.196 120.623 132.184 121.578 132.293 122.523C132.31 123.11 132.539 123.671 132.938 124.101C133.258 124.343 133.632 124.504 134.029 124.569C135.066 124.819 136.128 124.953 137.195 124.967C136.72 124.301 136.601 123.444 136.876 122.672C137.301 121.678 138.024 122.253 138.059 123.156C138.059 123.582 137.981 124.001 137.967 124.427C137.96 124.508 137.974 124.589 138.009 124.662C138.052 124.717 138.108 124.761 138.172 124.79C138.736 125.095 139.391 125.181 140.014 125.031C140.191 124.996 140.359 124.921 140.503 124.811C140.832 124.417 140.943 123.884 140.8 123.39L140.51 120.825C140.478 120.704 140.504 120.575 140.581 120.477C140.708 120.349 140.935 120.477 141.069 120.576C141.598 121.048 141.88 121.737 141.834 122.445C141.834 122.85 141.664 123.241 141.636 123.639C141.577 124.047 141.739 124.455 142.061 124.712C142.402 124.876 142.795 124.896 143.152 124.768C143.626 124.699 144.063 124.471 144.391 124.122C144.673 123.674 144.758 123.128 144.625 122.616C144.484 122.111 144.384 121.595 144.328 121.074C144.328 120.022 145.404 118.516 145.581 120.363C145.588 120.966 145.553 121.57 145.475 122.168C145.458 122.245 145.458 122.325 145.475 122.402C145.57 122.529 145.721 122.601 145.879 122.594C146.712 122.667 147.549 122.505 148.294 122.125C148.808 121.875 149.259 121.51 149.612 121.059C149.874 120.689 150.095 120.291 150.271 119.873C151.128 118.047 152.495 116.619 150.901 114.665C150.356 113.997 149.343 113.819 148.833 113.137C148.231 112.327 149.158 111.041 149.194 110.025C149.218 109.801 149.226 109.575 149.215 109.35Z" fill="#231F20"/>
<path d="M144.108 144.237H162.171L160.754 157.836C160.543 159.905 158.804 161.478 156.731 161.474H149.513C147.442 161.474 145.707 159.903 145.497 157.836L144.108 144.237Z" fill="white"/>
<path fill-rule="evenodd" clip-rule="evenodd" d="M149.513 161.851H156.759C159.001 161.829 160.866 160.117 161.087 157.879L162.503 144.279C162.517 144.178 162.483 144.076 162.411 144.002C162.344 143.924 162.245 143.88 162.142 143.882H144.08C143.975 143.88 143.874 143.924 143.803 144.002C143.738 144.079 143.704 144.178 143.711 144.279L145.128 157.879C145.354 160.137 147.25 161.855 149.513 161.851ZM145.858 157.808L144.512 144.613H161.767L160.414 157.808C160.225 159.69 158.645 161.121 156.759 161.119H149.513C147.627 161.121 146.047 159.69 145.858 157.808Z" fill="#231F20"/>
<path d="M155.647 144.486C155.647 144.358 154.23 131.341 160.605 120.853L161.214 121.223C154.974 131.497 156.362 144.272 156.376 144.4L155.647 144.486Z" fill="#231F20"/>
<path d="M139.242 119.795C139.152 119.793 139.066 119.757 139.001 119.695C138.934 119.629 138.896 119.538 138.896 119.443C138.896 119.348 138.934 119.257 139.001 119.191C142.698 115.283 148.521 112.903 148.769 112.796C148.951 112.723 149.157 112.813 149.229 112.995C149.301 113.177 149.213 113.384 149.031 113.457C148.974 113.457 143.102 115.873 139.511 119.674C139.443 119.752 139.345 119.796 139.242 119.795Z" fill="white"/>
<path d="M141.735 137.899C141.612 137.898 141.498 137.833 141.435 137.727C141.371 137.621 141.367 137.49 141.423 137.38C142.767 134.849 144.471 132.527 146.481 130.488C146.546 130.421 146.636 130.384 146.729 130.384C146.822 130.384 146.912 130.421 146.977 130.488C147.112 130.626 147.112 130.847 146.977 130.986C145.025 132.975 143.369 135.236 142.061 137.7C141.999 137.823 141.873 137.9 141.735 137.899Z" fill="white"/>
<path d="M171.853 132.868C171.735 132.867 171.624 132.809 171.556 132.712C171.386 132.449 167.306 126.317 162.468 122.694C162.311 122.576 162.28 122.353 162.397 122.196C162.516 122.043 162.735 122.012 162.893 122.125C167.724 125.784 171.704 131.661 172.144 132.314C172.25 132.477 172.206 132.696 172.044 132.804C171.989 132.846 171.922 132.868 171.853 132.868V132.868Z" fill="white"/>
<rect x="126.974" y="9.45" width="43.0027" height="30.2826" fill="white"/>
<path fill-rule="evenodd" clip-rule="evenodd" d="M126.973 40.0879H169.969C170.165 40.0879 170.323 39.9288 170.323 39.7326V9.45C170.323 9.25379 170.165 9.09473 169.969 9.09473H126.973C126.778 9.09473 126.619 9.25379 126.619 9.45V39.7326C126.619 39.9288 126.778 40.0879 126.973 40.0879ZM169.614 39.3774H127.327V9.80526H169.614V39.3774Z" fill="#D1D3D4"/>
<path d="M154.726 68.4805C154.552 68.4798 154.402 68.3543 154.372 68.1821L152.629 56.8421L149.583 58.1921C149.497 58.2301 149.399 58.232 149.311 58.1973C149.224 58.1626 149.153 58.0943 149.116 58.0074C149.078 57.9217 149.077 57.8245 149.111 57.7376C149.146 57.6507 149.214 57.5815 149.3 57.5455L152.778 56.0392C152.876 55.9898 152.992 55.9898 153.09 56.0392C153.187 56.0918 153.255 56.186 153.274 56.295L155.087 68.0542C155.103 68.1478 155.081 68.244 155.025 68.3205C154.968 68.3969 154.884 68.4471 154.79 68.4592L154.726 68.4805Z" fill="#231F20"/>
<path d="M160.732 80.6518H151.864L151.382 61.5032H161.214L160.732 80.6518V80.6518Z" fill="white"/>
<path fill-rule="evenodd" clip-rule="evenodd" d="M151.864 81H160.733C160.897 80.9888 161.032 80.8651 161.058 80.7016L161.54 61.5174C161.537 61.3202 161.382 61.159 161.186 61.1479H151.354C151.258 61.1508 151.166 61.1916 151.099 61.2616C151.034 61.3305 150.998 61.4224 151 61.5174L151.51 80.6589C151.518 80.8496 151.674 81.0002 151.864 81ZM160.407 80.2895H152.232L151.744 61.8513H160.867L160.407 80.2895Z" fill="#231F20"/>
<rect x="150.483" y="59.5634" width="11.6308" height="1.93974" fill="white"/>
<path fill-rule="evenodd" clip-rule="evenodd" d="M150.483 61.8584H162.114C162.309 61.8584 162.468 61.6994 162.468 61.5032V59.5634C162.468 59.3672 162.309 59.2082 162.114 59.2082H150.483C150.287 59.2082 150.129 59.3672 150.129 59.5634V61.5032C150.129 61.6994 150.287 61.8584 150.483 61.8584ZM161.76 61.1479H150.837V59.9187H161.76V61.1479Z" fill="#231F20"/>
<path fill-rule="evenodd" clip-rule="evenodd" d="M152.315 71.8211C153.089 73.3965 154.746 74.3353 156.49 74.1861C158.735 74.0824 160.474 72.176 160.378 69.9229C160.372 68.167 159.293 66.5945 157.66 65.9617C156.027 65.3288 154.175 65.765 152.993 67.0605C151.811 68.3559 151.542 70.2457 152.315 71.8211ZM152.972 68.329C153.636 67.0203 155.033 66.256 156.49 66.4058C158.344 66.509 159.767 68.0976 159.67 69.9584C159.662 71.4267 158.755 72.739 157.387 73.2607C156.019 73.7824 154.471 73.406 153.493 72.3136C152.515 71.2211 152.308 69.6377 152.972 68.329Z" fill="#D1D3D4"/>
<path fill-rule="evenodd" clip-rule="evenodd" d="M137.046 33.2953C137.866 33.5815 138.727 33.7303 139.596 33.7358C141.572 33.6424 143.477 32.9651 145.071 31.7889C146.813 30.6592 147.578 29.5437 147.408 28.3784C147.236 27.6784 146.878 27.0379 146.374 26.5239C145.94 26.1068 145.633 25.5746 145.489 24.9892C145.513 24.3256 145.729 23.6834 146.112 23.1418C147.212 21.3461 147.322 19.1113 146.403 17.216C145.368 15.2195 143.201 13.8908 140.453 13.5782C138.472 13.3817 136.517 14.1445 135.19 15.6316C133.978 17.0595 133.482 18.9643 133.844 20.8042C133.901 21.0884 133.971 21.3797 134.049 21.6782L134.057 21.7106C134.338 22.8709 134.602 23.966 133.901 24.7192C133.565 25.0175 133.182 25.2576 132.767 25.4297C132.143 25.6639 131.602 26.0765 131.209 26.6163C130.961 27.0716 130.876 27.5981 130.968 28.1084C131.223 29.5137 132.046 30.7506 133.242 31.526L133.242 31.5261C133.476 31.6824 133.709 31.8387 133.95 31.9737C134.936 32.5145 135.973 32.9572 137.046 33.2953ZM137.272 32.6203C136.243 32.2956 135.249 31.8696 134.304 31.3484V31.3839C134.085 31.255 133.872 31.1151 133.667 30.9647C132.634 30.3008 131.916 29.2439 131.676 28.0374C131.608 27.6846 131.66 27.319 131.825 27C132.152 26.5823 132.589 26.2648 133.086 26.0834C133.58 25.8711 134.034 25.5728 134.425 25.2024C135.394 24.1656 135.048 22.7527 134.744 21.5098L134.743 21.5076C134.673 21.2234 134.602 20.9392 134.545 20.6692C134.226 19.0451 134.662 17.3637 135.728 16.1005C136.9 14.7824 138.63 14.1063 140.382 14.2816C142.889 14.5729 144.858 15.7595 145.779 17.5429C146.59 19.2485 146.472 21.2522 145.468 22.8505C145.02 23.502 144.785 24.2764 144.795 25.0674C144.95 25.7923 145.311 26.4563 145.836 26.9787C146.253 27.3963 146.556 27.9152 146.714 28.485C146.82 29.3447 146.183 30.2258 144.695 31.1992C142.606 32.5279 140.261 33.6434 137.272 32.6203Z" fill="#D1D3D4"/>
<path fill-rule="evenodd" clip-rule="evenodd" d="M153.592 32.4284C155.27 33.1313 157.066 33.5052 158.884 33.5297C159.941 33.551 160.995 33.4048 162.007 33.0963C164.152 32.4175 165.824 30.7214 166.477 28.5632C166.934 26.9092 166.49 25.1361 165.308 23.895C163.155 21.5218 157.68 20.5768 154.846 21.5218C154.237 21.739 153.64 21.9929 153.061 22.2821C152.178 22.7646 151.22 23.096 150.228 23.2626C148.934 23.3152 147.643 23.1174 146.424 22.68C144.724 22.1968 142.975 21.7066 141.331 22.4171C139.625 23.2589 138.664 25.116 138.958 27C139.198 28.5255 139.872 29.9491 140.899 31.0997C142.108 32.6453 144.013 33.4738 145.964 33.3024C146.823 33.1525 147.654 32.8722 148.429 32.4711C149.865 31.4937 151.731 31.4221 153.238 32.2863L153.592 32.4284ZM151.213 30.9718H151.043C150.034 31.0454 149.053 31.3362 148.167 31.8245C147.458 32.1931 146.699 32.4541 145.914 32.5989C143.789 32.8689 142.217 31.4763 141.466 30.6308C140.52 29.5822 139.895 28.2821 139.667 26.8863C139.417 25.3206 140.196 23.7708 141.6 23.0424C143.006 22.4189 144.56 22.8622 146.198 23.3297L146.212 23.3337C147.52 23.7993 148.905 24.0067 150.292 23.9447C151.352 23.7575 152.374 23.395 153.316 22.8718C153.87 22.6001 154.44 22.3628 155.023 22.1613C157.616 21.2874 162.794 22.2039 164.735 24.3355C165.751 25.4027 166.135 26.9263 165.747 28.35C165.152 30.2721 163.653 31.7782 161.738 32.3787C159.119 33.1008 156.33 32.8821 153.855 31.7605L153.515 31.6184C152.791 31.2697 152.012 31.0509 151.213 30.9718Z" fill="#D1D3D4"/>
<path fill-rule="evenodd" clip-rule="evenodd" d="M155.364 27.1492C155.991 27.877 156.921 28.2688 157.878 28.2079L158.324 28.2221C160.187 28.1799 161.991 27.5593 163.488 26.4458C166.336 24.1366 165.422 21.8558 164.621 20.7047C162.362 17.4505 155.434 15.1555 151.701 17.3582C150.335 18.191 149.384 19.5638 149.081 21.1382C148.833 22.3401 149.12 23.5907 149.867 24.5629C150.537 25.3485 151.507 25.8131 152.537 25.8418C153.11 25.8917 153.668 26.0433 154.188 26.2895C154.622 26.5132 155.018 26.8033 155.364 27.1492ZM152.063 17.9337C153.065 17.3937 154.191 17.1289 155.328 17.1663C158.629 17.1663 162.525 18.8929 164.041 21.0813C165.167 22.7368 164.848 24.3924 163.042 25.8632C161.651 26.8649 159.993 27.4266 158.282 27.476C157.379 27.6592 156.448 27.3352 155.852 26.6305C155.018 25.722 153.866 25.1722 152.636 25.0958C151.788 25.0865 150.984 24.7142 150.426 24.0726C149.803 23.2675 149.567 22.2269 149.782 21.2305C150.047 19.859 150.875 18.6625 152.063 17.9337Z" fill="#D1D3D4"/>
<path d="M49.7798 25.6216C49.7798 25.6216 52.0677 23.76 49.7798 21.3584H46.0894C46.0894 21.3584 46.8827 24.4634 46.0894 25.6216H49.7798Z" fill="#231F20"/>
<path fill-rule="evenodd" clip-rule="evenodd" d="M46.0893 25.9768H49.7797C49.8521 25.9714 49.9212 25.9441 49.978 25.8987C50.6259 25.3376 51.0362 24.5499 51.1255 23.696C51.1361 22.7156 50.7289 21.7772 50.0064 21.1168C49.9372 21.0513 49.8465 21.0133 49.7514 21.0103H46.061C45.9509 21.0096 45.8466 21.0593 45.7776 21.1453C45.7146 21.2363 45.6916 21.3493 45.7139 21.4579C45.9264 22.275 46.3443 24.5842 45.7705 25.4155C45.7032 25.5294 45.7032 25.6711 45.7705 25.785C45.8345 25.902 45.9563 25.9753 46.0893 25.9768ZM49.6379 25.2663H46.6417C46.8563 24.0892 46.8128 22.8793 46.5142 21.7208H49.6025C50.1257 22.2235 50.4202 22.9196 50.4171 23.6463C50.3577 24.2621 50.0815 24.8365 49.6379 25.2663Z" fill="#231F20"/>
<path d="M47.7751 24.2147C47.8838 23.3744 47.5865 22.5325 46.9747 21.9482C46.7041 21.595 46.3926 21.2754 46.0468 20.9961C45.3825 20.5628 44.6382 20.268 43.8581 20.1292C42.1368 19.71 40.1252 20.2429 38.3685 20.2784C36.4815 20.3143 34.6069 19.9663 32.8577 19.2553C32.2567 19.0517 31.7177 18.697 31.2923 18.225C30.8531 20.8042 30.9098 23.6463 32.3902 25.8134C33.6446 27.4493 35.3787 28.6495 37.3485 29.2453C40.0145 30.3241 43.0528 29.8817 45.303 28.0871C46.3132 27.322 47.0927 26.2917 47.5555 25.11C47.6582 24.8196 47.7317 24.5197 47.7751 24.2147Z" fill="white"/>
<path fill-rule="evenodd" clip-rule="evenodd" d="M37.1996 29.5792C38.2302 29.9585 39.3178 30.158 40.4155 30.1689C42.2726 30.1558 44.0695 29.5065 45.5084 28.3287C46.5673 27.5204 47.3855 26.4368 47.8742 25.1953C47.9954 24.8834 48.0832 24.5594 48.1363 24.2289C48.266 23.2882 47.9426 22.3415 47.265 21.6782C46.9718 21.3092 46.6419 20.9712 46.2804 20.6692C45.576 20.2073 44.7857 19.8931 43.9571 19.7455C42.7127 19.5286 41.4403 19.5286 40.1959 19.7455C40.1142 19.7546 40.0331 19.7639 39.9525 19.773C39.4044 19.8353 38.8819 19.8947 38.3755 19.8947C36.5312 19.9516 34.6941 19.64 32.9709 18.9782C32.4299 18.7923 31.9432 18.475 31.5543 18.0545C31.4703 17.943 31.3281 17.8927 31.193 17.9266C31.0583 17.9626 30.9563 18.0733 30.9309 18.2108C30.3713 21.4508 30.7538 24.0868 32.0784 26.0266C33.3726 27.7194 35.1639 28.962 37.1996 29.5792ZM32.6663 25.6074C31.5259 23.9234 31.1575 21.7208 31.5259 18.9497C31.8828 19.2178 32.2704 19.442 32.6804 19.6176C34.4819 20.3383 36.4079 20.6933 38.3471 20.6621C38.9112 20.6489 39.5118 20.587 40.0926 20.5272C40.139 20.5224 40.1852 20.5176 40.2312 20.5129C41.4032 20.3107 42.6009 20.3107 43.7729 20.5129C44.5058 20.6422 45.2063 20.915 45.8341 21.3158C46.1554 21.5636 46.4498 21.8446 46.7124 22.1542C47.2499 22.6671 47.5127 23.4054 47.4208 24.1437C47.3699 24.4254 47.2916 24.7015 47.187 24.9679C46.7516 26.0926 46.0165 27.0758 45.062 27.81C42.9019 29.5208 39.9941 29.941 37.4404 28.9113C35.5422 28.341 33.8717 27.1849 32.6663 25.6074Z" fill="#231F20"/>
<rect x="91.5005" y="5.69131" width="30.0757" height="19.9232" fill="white"/>
<path fill-rule="evenodd" clip-rule="evenodd" d="M91.5002 25.9768H121.576C121.77 25.9731 121.926 25.8162 121.93 25.6216V5.68421C121.926 5.48959 121.77 5.33273 121.576 5.32895H91.5002C91.3046 5.32895 91.146 5.48801 91.146 5.68421V25.6216C91.146 25.8178 91.3046 25.9768 91.5002 25.9768ZM121.25 25.2663H91.826L91.8543 6.04658H121.25V25.2663Z" fill="#D1D3D4"/>
<rect x="91.5005" y="25.6216" width="30.0757" height="3.94342" fill="white"/>
<path fill-rule="evenodd" clip-rule="evenodd" d="M91.5002 29.9203H121.576C121.771 29.9203 121.93 29.7612 121.93 29.565V25.6216C121.93 25.4254 121.771 25.2663 121.576 25.2663H91.5002C91.3046 25.2663 91.146 25.4254 91.146 25.6216V29.565C91.146 29.7612 91.3046 29.9203 91.5002 29.9203ZM121.25 29.2097H91.826L91.8543 25.9768H121.25V29.2097Z" fill="#D1D3D4"/>
<path d="M94.9428 20.9818C94.8046 20.9873 94.6764 20.91 94.6164 20.785C94.5564 20.66 94.5761 20.5113 94.6665 20.4063C95.0065 19.98 103.166 9.94027 110.774 10.5442C113.806 10.7858 115.874 12.3774 116.313 14.8074C116.72 16.9466 115.642 19.0929 113.685 20.0368C111.56 21.0245 109.591 21.0103 108.217 19.9942C107.001 19.0206 106.437 17.4426 106.758 15.9158C106.816 14.5906 107.706 13.4488 108.975 13.0737C110.28 12.7284 111.67 13.1232 112.601 14.1039C113.031 14.5795 113.124 15.272 112.835 15.8447C112.297 16.8892 111.659 17.4363 110.937 17.4647C109.782 17.4647 108.932 16.1503 108.897 16.0934C108.848 16.0125 108.833 15.9152 108.855 15.8231C108.878 15.731 108.936 15.6518 109.017 15.6032C109.097 15.554 109.193 15.5391 109.283 15.5619C109.374 15.5846 109.452 15.643 109.499 15.7239C109.683 16.0153 110.271 16.7897 110.916 16.7542C111.56 16.7187 111.921 16.0437 112.205 15.5179C112.365 15.1957 112.302 14.8067 112.049 14.5516C111.3 13.7873 110.2 13.4837 109.166 13.7558C108.175 14.0626 107.489 14.9682 107.459 16.0082C107.182 17.2742 107.636 18.5892 108.635 19.4116C109.789 20.2713 111.525 20.2642 113.388 19.4116C115.056 18.5934 115.96 16.7453 115.583 14.9211C115.208 12.8392 113.381 11.4679 110.689 11.2547C103.485 10.6579 95.2969 20.7474 95.219 20.8539C95.1502 20.9353 95.0491 20.9821 94.9428 20.9818Z" fill="#D1D3D4"/>
<path fill-rule="evenodd" clip-rule="evenodd" d="M95.0988 44.145H106.687C106.883 44.145 107.041 43.9859 107.041 43.7897V34.5529C107.041 34.3567 106.883 34.1976 106.687 34.1976H95.0988C94.9032 34.1976 94.7446 34.3567 94.7446 34.5529V43.7897C94.7446 43.9859 94.9032 44.145 95.0988 44.145ZM106.333 43.4345H95.4528V34.9082H106.333V43.4345Z" fill="#D1D3D4"/>
<path d="M100.892 36.2368C100.697 36.2368 100.539 36.0778 100.539 35.8816V33.6718C100.539 33.4756 100.697 33.3166 100.892 33.3166C101.088 33.3166 101.246 33.4756 101.246 33.6718V35.8674C101.25 35.964 101.215 36.0581 101.148 36.1278C101.081 36.1975 100.989 36.2369 100.892 36.2368Z" fill="#D1D3D4"/>
</svg>
